<svg width="77" height="124" viewBox="0 0 77 124" fill="none" xmlns="http://www.w3.org/2000/svg">
<path fill-rule="evenodd" clip-rule="evenodd" d="M31.9183 31.4916L27.4683 37.5219C25.2641 40.5578 25.9295 45.9227 28.9655 48.0853L37.2 53.9492C38.614 54.9474 38.7387 55.9455 38.0733 57.0268L39.2794 57.9001L43.4382 52.2025C46.0167 48.6675 45.7672 43.8849 41.9826 41.14L33.665 35.1513C32.6668 34.4443 32.5837 33.4462 33.1243 32.3233L31.9183 31.4916ZM39.0714 4.79184L32.1678 14.2324C28.9239 18.6408 30.0884 26.2098 34.5383 29.4537L45.8919 37.6882C48.1793 39.3517 48.512 43.5938 46.8069 45.7979L47.7634 46.5049L55.6236 35.6088C59.1586 30.7014 58.9507 23.5066 53.4194 19.5141L41.2756 10.7806C39.5705 9.5745 38.7387 7.49508 40.1527 5.49884L39.0714 4.79184ZM20.8558 64.0136H30.0052L31.6271 69.5033H46.5989L48.2209 64.0136H57.3703L56.1642 59.9796H22.0202L20.8558 64.0136ZM7.58908 0.175537H69.6805C73.7145 0.175537 77 3.41943 77 7.41191V115.833C77 119.784 73.7145 123.027 69.6805 123.027H7.58908C3.55501 123.027 0.269531 119.784 0.269531 115.833V7.37032C0.269531 3.41943 3.55501 0.175537 7.58908 0.175537ZM7.58908 0.674599H69.6805C73.4234 0.674599 76.5009 3.71055 76.5009 7.41191V115.833C76.5009 119.534 73.4234 122.57 69.6805 122.57H7.58908C3.84613 122.57 0.768596 119.534 0.768596 115.833V7.37032C0.768596 3.71055 3.84613 0.674599 7.58908 0.674599ZM74.9622 98.9062V115.791C74.9622 118.661 72.5916 121.031 69.6389 121.031H7.58908C4.6779 121.031 2.30736 118.661 2.30736 115.791V98.9062H74.9622ZM14.4927 108.222L11.7895 101.526H10.4171L7.67226 108.222H9.21102L9.79326 106.725H12.4133L12.9956 108.222C12.9124 108.222 14.4927 108.222 14.4927 108.222ZM11.8727 105.436H10.2507L10.7082 104.23C10.7914 104.022 10.833 103.855 10.9161 103.647C10.9577 103.481 11.0409 103.315 11.0825 103.19C11.1241 103.315 11.1657 103.481 11.2073 103.647C11.2489 103.814 11.332 104.022 11.4152 104.23L11.8727 105.436ZM20.5646 102.608C20.1488 102.109 19.4833 101.693 18.8595 101.526C18.61 101.443 18.2773 101.402 17.9446 101.402C17.4871 101.402 17.0296 101.485 16.6553 101.651C16.281 101.817 15.9483 102.067 15.6572 102.358C15.3661 102.649 15.1582 103.023 14.9918 103.439C14.8255 103.855 14.7423 104.313 14.7423 104.853C14.7423 105.394 14.8254 105.851 14.9502 106.309C15.1166 106.725 15.3245 107.099 15.574 107.39C15.8652 107.681 16.1979 107.931 16.5722 108.097C16.9465 108.264 17.3623 108.347 17.8614 108.347C18.7348 108.347 20.2319 107.889 20.6478 107.058L19.6497 106.184C19.3586 106.642 18.4436 107.058 17.903 107.058C17.6535 107.058 17.4039 107.016 17.196 106.891C16.988 106.766 16.8217 106.642 16.6553 106.434C16.489 106.226 16.4058 106.018 16.3226 105.768C16.2395 105.519 16.1979 105.228 16.1979 104.937C16.1979 104.645 16.2395 104.354 16.3226 104.063C16.4058 103.814 16.489 103.564 16.6553 103.398C16.7801 103.231 16.988 103.065 17.196 102.94C17.4039 102.857 17.6535 102.774 17.903 102.774C18.4436 102.774 19.1922 103.107 19.5665 103.606L20.5646 102.608ZM34.164 108.222L32.5837 105.685C33.0411 105.519 33.5402 105.228 33.7897 104.895C33.9977 104.562 34.1224 104.146 34.1224 103.647C34.1224 103.273 34.0393 102.982 33.9145 102.691C33.7897 102.441 33.6234 102.192 33.3738 102.025C33.1659 101.859 32.8748 101.734 32.5837 101.609C32.2925 101.526 31.9598 101.485 31.6271 101.485H28.3001V108.18H29.7141V105.768L31.0033 105.81L32.5005 108.18L34.164 108.222ZM32.6253 103.647C32.6253 104.23 32.2926 104.521 31.5856 104.521H29.7141V102.816H31.5856C31.9183 102.816 32.1678 102.857 32.3341 103.023C32.5421 103.148 32.6253 103.356 32.6253 103.647ZM40.1527 108.222V106.891H36.4514V105.269H39.4457V103.98H36.493V102.816H40.028V101.485H35.0374V108.222H40.1527ZM47.0564 104.853C47.0564 104.23 46.9732 103.73 46.8069 103.273C46.6405 102.857 46.391 102.483 46.0583 102.233C45.7256 101.984 45.3513 101.776 44.9354 101.651C44.5195 101.526 44.0205 101.485 43.5214 101.485H41.2756V108.222H43.3966C43.8541 108.222 44.3116 108.18 44.7275 108.014C45.1849 107.889 45.5592 107.681 45.8919 107.432C46.2246 107.141 46.5158 106.808 46.7237 106.392C46.9316 105.935 47.0564 105.436 47.0564 104.853ZM45.5592 104.853C45.5592 105.144 45.5176 105.436 45.4345 105.685C45.3513 105.935 45.2265 106.143 45.0186 106.351C44.8522 106.517 44.6027 106.683 44.3532 106.766C44.1036 106.85 43.7709 106.933 43.3966 106.933H42.6896V102.816H43.4382C44.1868 102.816 44.7275 102.982 45.0602 103.315C45.3929 103.689 45.5592 104.188 45.5592 104.853ZM48.4288 108.222H49.8428V101.526H48.4288V108.222ZM56.5386 102.816V101.485H51.0073V102.816H53.0451V108.222H54.5007V102.816H56.5386ZM69.4725 104.853C69.4725 104.23 69.3893 103.73 69.1814 103.273C69.015 102.857 68.7655 102.483 68.4328 102.233C68.1001 101.984 67.7258 101.776 67.3099 101.651C66.894 101.526 66.395 101.485 65.8959 101.485H63.6501V108.222H65.7711C66.2286 108.222 66.6861 108.18 67.102 108.014C67.5595 107.889 67.9337 107.681 68.2664 107.432C68.5992 107.141 68.8903 106.808 69.0982 106.392C69.3477 105.935 69.4725 105.436 69.4725 104.853ZM67.9753 104.853C67.9753 105.144 67.9337 105.436 67.8506 105.685C67.7674 105.935 67.6426 106.143 67.4347 106.351C67.2683 106.517 67.0188 106.683 66.7693 106.766C66.5197 106.85 66.1454 106.933 65.7711 106.933H65.0642V102.816H65.8127C66.5613 102.816 67.102 102.982 67.4347 103.315C67.809 103.689 67.9753 104.188 67.9753 104.853ZM62.5689 108.222V106.891H58.8675V105.269H61.8203V103.98H58.8259V102.816H62.3609V101.485H57.3703V108.222H62.5689ZM50.5914 116.872V115.542H46.8901V113.92H49.8844V112.63H46.8901V111.466H50.4251V110.135H45.4345V116.831L50.5914 116.872ZM27.1772 102.608C26.7613 102.109 26.0959 101.693 25.4721 101.526C25.1809 101.443 24.8898 101.402 24.5571 101.402C24.0996 101.402 23.6422 101.485 23.2679 101.651C22.8936 101.817 22.5609 102.067 22.2698 102.358C21.9786 102.649 21.7707 103.023 21.6044 103.439C21.438 103.855 21.3548 104.313 21.3548 104.853C21.3548 105.394 21.438 105.851 21.5628 106.309C21.7291 106.725 21.9371 107.099 22.1866 107.39C22.4777 107.681 22.8104 107.931 23.1847 108.097C23.559 108.264 23.9749 108.347 24.4739 108.347C25.3473 108.347 26.8445 107.889 27.2604 107.058L26.2206 106.184C25.9295 106.642 25.0146 107.058 24.4739 107.058C24.2244 107.058 23.9749 107.016 23.7669 106.891C23.559 106.766 23.3926 106.642 23.2263 106.434C23.1015 106.226 22.9768 106.018 22.8936 105.768C22.8104 105.519 22.7688 105.228 22.7688 104.937C22.7688 104.645 22.8104 104.354 22.8936 104.063C22.9768 103.772 23.0599 103.564 23.2263 103.398C23.3511 103.231 23.559 103.065 23.7669 102.94C23.9749 102.857 24.2244 102.774 24.4739 102.774C25.0146 102.774 25.7632 103.107 26.1375 103.606L27.1772 102.608ZM21.3132 114.71C21.3132 114.336 21.23 114.044 21.0221 113.795C20.8558 113.545 20.6062 113.379 20.3151 113.254C20.5646 113.129 20.731 112.921 20.8558 112.714C20.9805 112.506 21.0637 112.256 21.0637 111.923C21.0637 111.341 20.8558 110.925 20.4815 110.593C20.0656 110.301 19.5249 110.135 18.8595 110.135H15.6572V116.831H18.8179C19.1922 116.831 19.5249 116.789 19.816 116.706C20.1072 116.623 20.3983 116.457 20.6062 116.29C20.8142 116.124 20.9805 115.874 21.1053 115.625C21.2716 115.375 21.3132 115.084 21.3132 114.71ZM19.6497 112.048C19.6497 112.215 19.6081 112.381 19.4833 112.506C19.3586 112.63 19.1506 112.672 18.8595 112.672H17.0296V111.383H18.8179C19.109 111.383 19.3586 111.424 19.4833 111.549C19.6081 111.674 19.6497 111.84 19.6497 112.048ZM19.8576 114.751C19.8576 115.001 19.7745 115.25 19.6081 115.375C19.4418 115.542 19.1922 115.625 18.8595 115.625H16.988V113.878H18.8595C19.5249 113.878 19.8576 114.169 19.8576 114.751ZM27.8842 113.92V110.177H26.5118V113.961C26.5118 114.502 26.387 114.918 26.1375 115.25C25.8879 115.542 25.5137 115.708 25.0978 115.708C24.6403 115.708 24.3076 115.542 24.0581 115.25C23.8085 114.918 23.6838 114.502 23.6838 113.961V110.218H22.2698V114.003C22.2698 114.502 22.3529 114.918 22.4777 115.292C22.6025 115.666 22.8104 115.999 23.0599 116.249C23.3095 116.498 23.6006 116.706 23.9333 116.831C24.266 116.956 24.6819 117.039 25.0978 117.039C25.9711 117.039 26.6781 116.789 27.1772 116.249C27.6762 115.666 27.9258 114.918 27.8842 113.92ZM34.3304 114.876C34.3304 114.502 34.2472 114.211 34.1224 113.961C33.9977 113.712 33.7897 113.545 33.5818 113.379C33.3738 113.213 33.1243 113.088 32.8332 113.005C32.5421 112.921 32.2926 112.838 32.0014 112.797C31.7103 112.755 31.5024 112.672 31.2944 112.63C31.1281 112.589 30.9617 112.506 30.8785 112.464C30.7538 112.422 30.7122 112.339 30.6706 112.256C30.629 112.173 30.629 112.09 30.629 111.965C30.629 111.882 30.629 111.799 30.6706 111.757C30.7122 111.674 30.7538 111.632 30.837 111.549C30.9201 111.507 31.0033 111.466 31.1281 111.424C31.2528 111.383 31.4192 111.383 31.5856 111.383C31.9183 111.383 32.2094 111.424 32.4589 111.549C32.7084 111.674 32.958 111.84 33.1659 112.048L34.164 111.092C33.8313 110.759 33.457 110.509 33.0411 110.301C32.6253 110.135 32.1678 110.01 31.6271 110.01C31.2944 110.01 30.9617 110.052 30.6706 110.135C30.3795 110.218 30.0884 110.343 29.8804 110.509C29.6725 110.676 29.4645 110.884 29.3398 111.133C29.215 111.383 29.1318 111.674 29.1318 111.965C29.1318 112.298 29.1734 112.589 29.2982 112.797C29.423 113.005 29.5477 113.213 29.7557 113.337C29.9636 113.504 30.1715 113.629 30.4627 113.712C30.7122 113.795 31.0449 113.878 31.336 113.961C31.6687 114.044 31.9183 114.086 32.1262 114.169C32.3341 114.211 32.5005 114.294 32.5837 114.377C32.7084 114.46 32.75 114.502 32.7916 114.585C32.8332 114.668 32.8332 114.751 32.8332 114.876C32.8332 115.126 32.75 115.334 32.5421 115.417C32.3341 115.542 32.043 115.583 31.6271 115.583C31.2944 115.583 30.9617 115.542 30.6706 115.417C30.3795 115.292 30.0884 115.084 29.8388 114.835L28.8407 115.708C29.0903 116.082 29.4645 116.373 29.9636 116.581C30.4627 116.789 30.9617 116.914 31.5856 116.914C32.043 116.914 32.4589 116.872 32.8332 116.748C33.1659 116.664 33.457 116.498 33.665 116.29C33.8729 116.124 34.0393 115.874 34.164 115.625C34.2472 115.458 34.3304 115.167 34.3304 114.876ZM35.4533 116.872H36.8673V110.177H35.4533V116.872ZM43.9373 116.872V110.177H42.5649V113.005C42.5649 113.088 42.5649 113.213 42.5649 113.337V113.753C42.5649 113.878 42.5649 114.044 42.5649 114.169V114.46C42.5233 114.377 42.4401 114.252 42.3569 114.128C42.2738 114.003 42.1906 113.836 42.0658 113.712L39.6121 110.177H38.2813V116.872H39.6537V113.92C39.6537 113.836 39.6537 113.712 39.6537 113.587V113.171V112.755V112.464C39.6953 112.547 39.7785 112.672 39.8616 112.838C39.9448 112.963 40.028 113.129 40.1527 113.254L42.7312 116.914L43.9373 116.872ZM56.289 114.876C56.289 114.502 56.2058 114.211 56.0811 113.961C55.9563 113.712 55.7484 113.545 55.5404 113.379C55.3325 113.213 55.083 113.088 54.7918 113.005C54.5007 112.921 54.2512 112.838 53.9601 112.797C53.6689 112.755 53.461 112.672 53.2531 112.63C53.0867 112.589 52.9204 112.506 52.8372 112.464C52.754 112.422 52.6708 112.339 52.6292 112.256C52.5877 112.173 52.5877 112.09 52.5877 111.965C52.5877 111.882 52.5877 111.799 52.6292 111.757C52.6708 111.674 52.7124 111.632 52.7956 111.549C52.8788 111.507 52.9619 111.466 53.0867 111.424C53.2115 111.383 53.3778 111.383 53.5442 111.383C53.8769 111.383 54.168 111.424 54.4175 111.549C54.6671 111.674 54.9166 111.84 55.1245 112.048L56.1227 111.092C55.79 110.759 55.4157 110.509 54.9998 110.301C54.5839 110.135 54.1264 110.01 53.5442 110.01C53.2115 110.01 52.8788 110.052 52.5877 110.135C52.2965 110.218 52.0054 110.343 51.7975 110.509C51.5895 110.676 51.3816 110.884 51.2568 111.133C51.1321 111.383 51.0489 111.674 51.0489 111.965C51.0489 112.298 51.0905 112.589 51.2152 112.797C51.34 113.005 51.4648 113.213 51.6727 113.337C51.8807 113.504 52.0886 113.629 52.3797 113.712C52.6708 113.795 52.9619 113.878 53.2531 113.961C53.5858 114.044 53.8353 114.086 54.0433 114.169C54.2512 114.211 54.4175 114.294 54.5007 114.377C54.6255 114.46 54.6671 114.502 54.7087 114.585C54.7502 114.668 54.7502 114.751 54.7502 114.876C54.7502 115.126 54.6671 115.334 54.4591 115.417C54.2512 115.542 53.9601 115.583 53.5442 115.583C53.2115 115.583 52.8788 115.542 52.5877 115.417C52.2965 115.292 52.0054 115.084 51.7559 114.835L50.7578 115.708C51.0073 116.082 51.3816 116.373 51.8807 116.581C52.3381 116.789 52.8788 116.914 53.461 116.914C53.9601 116.914 54.3344 116.872 54.7087 116.748C55.0414 116.664 55.3325 116.498 55.582 116.29C55.79 116.124 55.9563 115.874 56.0811 115.625C56.2474 115.458 56.289 115.167 56.289 114.876ZM62.2777 114.876C62.2777 114.502 62.1946 114.211 62.0698 113.961C61.945 113.712 61.7371 113.545 61.5291 113.379C61.3212 113.213 61.0717 113.088 60.7806 113.005C60.4894 112.921 60.2399 112.838 59.9488 112.797C59.6577 112.755 59.4497 112.672 59.2418 112.63C59.0754 112.589 58.9091 112.506 58.8259 112.464C58.7011 112.422 58.6596 112.339 58.618 112.256C58.5764 112.173 58.5764 112.09 58.5764 111.965C58.5764 111.882 58.5764 111.799 58.618 111.757C58.6596 111.674 58.7011 111.632 58.7843 111.549C58.8675 111.507 58.9507 111.466 59.0754 111.424C59.2002 111.383 59.3665 111.383 59.5329 111.383C59.8656 111.383 60.1567 111.424 60.4063 111.549C60.6558 111.674 60.9053 111.84 61.1133 112.048L62.1114 111.092C61.7787 110.759 61.4044 110.509 60.9885 110.301C60.5726 110.135 60.1151 110.01 59.5329 110.01C59.2002 110.01 58.8675 110.052 58.5764 110.135C58.2853 110.218 57.9941 110.343 57.7862 110.509C57.5783 110.676 57.3703 110.884 57.2455 111.133C57.1208 111.383 57.0376 111.674 57.0376 111.965C57.0376 112.298 57.0792 112.589 57.204 112.797C57.3287 113.005 57.4535 113.213 57.6614 113.337C57.8694 113.504 58.0773 113.629 58.3684 113.712C58.618 113.795 58.9507 113.878 59.2418 113.961C59.5745 114.044 59.824 114.086 60.032 114.169C60.2399 114.211 60.4063 114.294 60.4894 114.377C60.6142 114.46 60.6558 114.502 60.6974 114.585C60.739 114.668 60.739 114.751 60.739 114.876C60.739 115.126 60.6558 115.334 60.4478 115.417C60.2399 115.542 59.9488 115.583 59.5329 115.583C59.2002 115.583 58.8675 115.542 58.5764 115.417C58.2853 115.292 57.9941 115.084 57.7446 114.835L56.7465 115.708C56.996 116.082 57.3703 116.373 57.8694 116.581C58.3268 116.789 58.8675 116.914 59.4497 116.914C59.9072 116.914 60.3231 116.872 60.6974 116.748C61.0301 116.664 61.3212 116.498 61.5291 116.29C61.7371 116.124 61.9034 115.874 62.0282 115.625C62.2361 115.458 62.2777 115.167 62.2777 114.876ZM21.5212 89.0498H16.0315V84.5167H21.5212C25.5552 84.5167 25.3057 89.0498 21.5212 89.0498ZM40.3191 89.0498H34.8294V84.5167H40.3191C44.3532 84.5167 44.1452 89.0498 40.3191 89.0498ZM59.1586 89.0498H53.6689V84.5167H59.1586C63.1927 84.5167 62.9431 89.0498 59.1586 89.0498ZM21.1469 80.9401H16.0315V76.6981H20.9389C24.0581 76.6981 24.1412 80.9401 21.1469 80.9401ZM39.9448 80.9401H34.8294V76.6981H39.7369C42.856 76.6981 42.9392 80.9401 39.9448 80.9401ZM58.7843 80.9401H53.6689V76.6981H58.5764C61.6539 76.6981 61.7787 80.9401 58.7843 80.9401ZM28.7159 86.5129C28.3417 83.8928 27.2604 83.269 25.1394 82.3541C26.7613 81.4391 27.7178 80.0667 27.7178 78.1952C27.7178 74.4523 24.5987 72.9135 21.23 72.9135H11.7479V92.7927H21.1469C25.1394 92.7927 29.3814 91.0876 28.7159 86.5129ZM47.5139 86.5129C47.1396 83.8928 46.0583 83.269 43.9373 82.3541C45.5592 81.4391 46.5158 80.0667 46.5158 78.1952C46.5158 74.4523 43.3966 72.9135 40.028 72.9135H30.5458V92.7927H39.9448C43.9373 92.7927 48.1793 91.0876 47.5139 86.5129ZM66.3118 86.5129C65.9375 83.8928 64.8562 83.269 62.7352 82.3541C64.3572 81.4391 65.3137 80.0667 65.3137 78.1952C65.3137 74.4523 62.1946 72.9135 58.8259 72.9135H49.3854V92.7927H58.7843C62.7768 92.7927 67.0188 91.0876 66.3118 86.5129Z" fill="#008CFE"/>
<path fill-rule="evenodd" clip-rule="evenodd" d="M7.58908 0.674599H69.6805C73.4234 0.674599 76.5009 3.71055 76.5009 7.41191V115.833C76.5009 119.534 73.4234 122.57 69.6805 122.57H7.58908C3.84613 122.57 0.768596 119.534 0.768596 115.833V7.37032C0.768596 3.71055 3.84613 0.674599 7.58908 0.674599ZM27.4683 37.5219L31.9183 31.4916L33.1243 32.3233C32.5837 33.4462 32.6668 34.4443 33.665 35.1513L41.9826 41.14C45.7672 43.8849 46.0167 48.6675 43.4382 52.2025L39.2794 57.9001L38.0733 57.0268C38.7387 55.9455 38.614 54.9474 37.2 53.9492L28.9655 48.0853C25.9295 45.9227 25.2641 40.5578 27.4683 37.5219ZM32.1678 14.2324L39.0714 4.79184L40.1527 5.49884C38.7387 7.49508 39.5705 9.5745 41.2756 10.7806L53.4194 19.5141C58.9507 23.5066 59.1586 30.7014 55.6236 35.6088L47.7634 46.5049L46.8069 45.7979C48.512 43.5938 48.1793 39.3517 45.8919 37.6882L34.5383 29.4537C30.0884 26.2098 28.9239 18.6408 32.1678 14.2324ZM30.0052 64.0136H20.8558L22.0202 59.9796H56.1642L57.3703 64.0136H48.2209L46.5989 69.5033H31.6271L30.0052 64.0136ZM74.9622 115.791V98.9062H2.30736V115.791C2.30736 118.661 4.6779 121.031 7.58908 121.031H69.6389C72.5916 121.031 74.9622 118.661 74.9622 115.791ZM25.1394 82.3541C27.2604 83.269 28.3417 83.8928 28.7159 86.5129C29.3814 91.0876 25.1394 92.7927 21.1469 92.7927H11.7479V72.9135H21.23C24.5987 72.9135 27.7178 74.4523 27.7178 78.1952C27.7178 80.0667 26.7613 81.4391 25.1394 82.3541ZM43.9373 82.3541C46.0583 83.269 47.1396 83.8928 47.5139 86.5129C48.1793 91.0876 43.9373 92.7927 39.9448 92.7927H30.5458V72.9135H40.028C43.3966 72.9135 46.5158 74.4523 46.5158 78.1952C46.5158 80.0667 45.5592 81.4391 43.9373 82.3541ZM62.7352 82.3541C64.8562 83.269 65.9375 83.8928 66.3118 86.5129C67.0188 91.0876 62.7768 92.7927 58.7843 92.7927H49.3854V72.9135H58.8259C62.1946 72.9135 65.3137 74.4523 65.3137 78.1952C65.3137 80.0667 64.3572 81.4391 62.7352 82.3541Z" fill="white"/>
<path d="M21.1469 80.9401H16.0315V76.6981H20.9389C24.0581 76.6981 24.1412 80.9401 21.1469 80.9401Z" fill="white"/>
<path d="M39.9448 80.9401H34.8294V76.6981H39.7369C42.856 76.6981 42.9392 80.9401 39.9448 80.9401Z" fill="white"/>
<path d="M40.1527 108.222V106.891H36.4514V105.269H39.4457V103.98H36.493V102.816H40.028V101.485H35.0374V108.222H40.1527Z" fill="white"/>
<path d="M40.3191 89.0498H34.8294V84.5167H40.3191C44.3532 84.5167 44.1452 89.0498 40.3191 89.0498Z" fill="white"/>
<path d="M58.7843 80.9401H53.6689V76.6981H58.5764C61.6539 76.6981 61.7787 80.9401 58.7843 80.9401Z" fill="white"/>
<path d="M59.1586 89.0498H53.6689V84.5167H59.1586C63.1927 84.5167 62.9431 89.0498 59.1586 89.0498Z" fill="white"/>
<path d="M21.5212 89.0498H16.0315V84.5167H21.5212C25.5552 84.5167 25.3057 89.0498 21.5212 89.0498Z" fill="white"/>
<path fill-rule="evenodd" clip-rule="evenodd" d="M34.164 108.222L32.5837 105.685C33.0411 105.519 33.5402 105.228 33.7897 104.895C33.9977 104.562 34.1224 104.146 34.1224 103.647C34.1224 103.273 34.0393 102.982 33.9145 102.691C33.7897 102.441 33.6234 102.192 33.3738 102.025C33.1659 101.859 32.8748 101.734 32.5837 101.609C32.2925 101.526 31.9598 101.485 31.6271 101.485H28.3001V108.18H29.7141V105.768L31.0033 105.81L32.5005 108.18L34.164 108.222ZM31.5856 104.521C32.2926 104.521 32.6253 104.23 32.6253 103.647C32.6253 103.356 32.5421 103.148 32.3341 103.023C32.1678 102.857 31.9183 102.816 31.5856 102.816H29.7141V104.521H31.5856Z" fill="white"/>
<path d="M27.1772 102.608C26.7613 102.109 26.0959 101.693 25.4721 101.526C25.1809 101.443 24.8898 101.402 24.5571 101.402C24.0996 101.402 23.6422 101.485 23.2679 101.651C22.8936 101.817 22.5609 102.067 22.2698 102.358C21.9786 102.649 21.7707 103.023 21.6044 103.439C21.438 103.855 21.3548 104.313 21.3548 104.853C21.3548 105.394 21.438 105.851 21.5628 106.309C21.7291 106.725 21.9371 107.099 22.1866 107.39C22.4777 107.681 22.8104 107.931 23.1847 108.097C23.559 108.264 23.9749 108.347 24.4739 108.347C25.3473 108.347 26.8445 107.889 27.2604 107.058L26.2206 106.184C25.9295 106.642 25.0146 107.058 24.4739 107.058C24.2244 107.058 23.9749 107.016 23.7669 106.891C23.559 106.766 23.3926 106.642 23.2263 106.434C23.1015 106.226 22.9768 106.018 22.8936 105.768C22.8104 105.519 22.7688 105.228 22.7688 104.937C22.7688 104.645 22.8104 104.354 22.8936 104.063C22.9768 103.772 23.0599 103.564 23.2263 103.398C23.3511 103.231 23.559 103.065 23.7669 102.94C23.9749 102.857 24.2244 102.774 24.4739 102.774C25.0146 102.774 25.7632 103.107 26.1375 103.606L27.1772 102.608Z" fill="white"/>
<path d="M56.5386 102.816V101.485H51.0073V102.816H53.0451V108.222H54.5007V102.816H56.5386Z" fill="white"/>
<path d="M48.4288 108.222H49.8428V101.526H48.4288V108.222Z" fill="white"/>
<path fill-rule="evenodd" clip-rule="evenodd" d="M47.0564 104.853C47.0564 104.23 46.9732 103.73 46.8069 103.273C46.6405 102.857 46.391 102.483 46.0583 102.233C45.7256 101.984 45.3513 101.776 44.9354 101.651C44.5195 101.526 44.0205 101.485 43.5214 101.485H41.2756V108.222H43.3966C43.8541 108.222 44.3116 108.18 44.7275 108.014C45.1849 107.889 45.5592 107.681 45.8919 107.432C46.2246 107.141 46.5158 106.808 46.7237 106.392C46.9316 105.935 47.0564 105.436 47.0564 104.853ZM45.4345 105.685C45.5176 105.436 45.5592 105.144 45.5592 104.853C45.5592 104.188 45.3929 103.689 45.0602 103.315C44.7275 102.982 44.1868 102.816 43.4382 102.816H42.6896V106.933H43.3966C43.7709 106.933 44.1036 106.85 44.3532 106.766C44.6027 106.683 44.8522 106.517 45.0186 106.351C45.2265 106.143 45.3513 105.935 45.4345 105.685Z" fill="white"/>
<path d="M62.5689 108.222V106.891H58.8675V105.269H61.8203V103.98H58.8259V102.816H62.3609V101.485H57.3703V108.222H62.5689Z" fill="white"/>
<path fill-rule="evenodd" clip-rule="evenodd" d="M69.4725 104.853C69.4725 104.23 69.3893 103.73 69.1814 103.273C69.015 102.857 68.7655 102.483 68.4328 102.233C68.1001 101.984 67.7258 101.776 67.3099 101.651C66.894 101.526 66.395 101.485 65.8959 101.485H63.6501V108.222H65.7711C66.2286 108.222 66.6861 108.18 67.102 108.014C67.5595 107.889 67.9337 107.681 68.2664 107.432C68.5992 107.141 68.8903 106.808 69.0982 106.392C69.3477 105.935 69.4725 105.436 69.4725 104.853ZM67.8506 105.685C67.9337 105.436 67.9753 105.144 67.9753 104.853C67.9753 104.188 67.809 103.689 67.4347 103.315C67.102 102.982 66.5613 102.816 65.8127 102.816H65.0642V106.933H65.7711C66.1454 106.933 66.5197 106.85 66.7693 106.766C67.0188 106.683 67.2683 106.517 67.4347 106.351C67.6426 106.143 67.7674 105.935 67.8506 105.685Z" fill="white"/>
<path d="M43.9373 116.872V110.177H42.5649V113.005V113.337V113.753V114.169V114.46C42.5233 114.377 42.4401 114.252 42.3569 114.128C42.2738 114.003 42.1906 113.836 42.0658 113.712L39.6121 110.177H38.2813V116.872H39.6537V113.92V113.587V113.171V112.755V112.464C39.6953 112.547 39.7785 112.672 39.8616 112.838C39.9448 112.963 40.028 113.129 40.1527 113.254L42.7312 116.914L43.9373 116.872Z" fill="white"/>
<path d="M50.5914 116.872V115.542H46.8901V113.92H49.8844V112.63H46.8901V111.466H50.4251V110.135H45.4345V116.831L50.5914 116.872Z" fill="white"/>
<path d="M56.289 114.876C56.289 114.502 56.2058 114.211 56.0811 113.961C55.9563 113.712 55.7484 113.545 55.5404 113.379C55.3325 113.213 55.083 113.088 54.7918 113.005C54.5007 112.921 54.2512 112.838 53.9601 112.797C53.6689 112.755 53.461 112.672 53.2531 112.63C53.0867 112.589 52.9204 112.506 52.8372 112.464C52.754 112.422 52.6708 112.339 52.6292 112.256C52.5877 112.173 52.5877 112.09 52.5877 111.965C52.5877 111.882 52.5877 111.799 52.6292 111.757C52.6708 111.674 52.7124 111.632 52.7956 111.549C52.8788 111.507 52.9619 111.466 53.0867 111.424C53.2115 111.383 53.3778 111.383 53.5442 111.383C53.8769 111.383 54.168 111.424 54.4175 111.549C54.6671 111.674 54.9166 111.84 55.1245 112.048L56.1227 111.092C55.79 110.759 55.4157 110.509 54.9998 110.301C54.5839 110.135 54.1264 110.01 53.5442 110.01C53.2115 110.01 52.8788 110.052 52.5877 110.135C52.2965 110.218 52.0054 110.343 51.7975 110.509C51.5895 110.676 51.3816 110.884 51.2568 111.133C51.1321 111.383 51.0489 111.674 51.0489 111.965C51.0489 112.298 51.0905 112.589 51.2152 112.797C51.34 113.005 51.4648 113.213 51.6727 113.337C51.8807 113.504 52.0886 113.629 52.3797 113.712L53.2531 113.961C53.5858 114.044 53.8353 114.086 54.0433 114.169C54.2512 114.211 54.4175 114.294 54.5007 114.377C54.6255 114.46 54.6671 114.502 54.7087 114.585C54.7502 114.668 54.7502 114.751 54.7502 114.876C54.7502 115.126 54.6671 115.334 54.4591 115.417C54.2512 115.542 53.9601 115.583 53.5442 115.583C53.2115 115.583 52.8788 115.542 52.5877 115.417C52.2965 115.292 52.0054 115.084 51.7559 114.835L50.7578 115.708C51.0073 116.082 51.3816 116.373 51.8807 116.581C52.3381 116.789 52.8788 116.914 53.461 116.914C53.9601 116.914 54.3344 116.872 54.7087 116.748C55.0414 116.664 55.3325 116.498 55.582 116.29C55.79 116.124 55.9563 115.874 56.0811 115.625C56.2474 115.458 56.289 115.167 56.289 114.876Z" fill="white"/>
<path d="M62.2777 114.876C62.2777 114.502 62.1946 114.211 62.0698 113.961C61.945 113.712 61.7371 113.545 61.5291 113.379C61.3212 113.213 61.0717 113.088 60.7806 113.005C60.4894 112.921 60.2399 112.838 59.9488 112.797C59.6577 112.755 59.4497 112.672 59.2418 112.63C59.0754 112.589 58.9091 112.506 58.8259 112.464C58.7011 112.422 58.6596 112.339 58.618 112.256C58.5764 112.173 58.5764 112.09 58.5764 111.965C58.5764 111.882 58.5764 111.799 58.618 111.757C58.6596 111.674 58.7011 111.632 58.7843 111.549C58.8675 111.507 58.9507 111.466 59.0754 111.424C59.2002 111.383 59.3665 111.383 59.5329 111.383C59.8656 111.383 60.1567 111.424 60.4063 111.549C60.6558 111.674 60.9053 111.84 61.1133 112.048L62.1114 111.092C61.7787 110.759 61.4044 110.509 60.9885 110.301C60.5726 110.135 60.1151 110.01 59.5329 110.01C59.2002 110.01 58.8675 110.052 58.5764 110.135C58.2853 110.218 57.9941 110.343 57.7862 110.509C57.5783 110.676 57.3703 110.884 57.2455 111.133C57.1208 111.383 57.0376 111.674 57.0376 111.965C57.0376 112.298 57.0792 112.589 57.204 112.797C57.3287 113.005 57.4535 113.213 57.6614 113.337C57.8694 113.504 58.0773 113.629 58.3684 113.712C58.618 113.795 58.9507 113.878 59.2418 113.961C59.5745 114.044 59.824 114.086 60.032 114.169C60.2399 114.211 60.4063 114.294 60.4894 114.377C60.6142 114.46 60.6558 114.502 60.6974 114.585C60.739 114.668 60.739 114.751 60.739 114.876C60.739 115.126 60.6558 115.334 60.4478 115.417C60.2399 115.542 59.9488 115.583 59.5329 115.583C59.2002 115.583 58.8675 115.542 58.5764 115.417C58.2853 115.292 57.9941 115.084 57.7446 114.835L56.7465 115.708C56.996 116.082 57.3703 116.373 57.8694 116.581C58.3268 116.789 58.8675 116.914 59.4497 116.914C59.9072 116.914 60.3231 116.872 60.6974 116.748C61.0301 116.664 61.3212 116.498 61.5291 116.29C61.7371 116.124 61.9034 115.874 62.0282 115.625C62.2361 115.458 62.2777 115.167 62.2777 114.876Z" fill="white"/>
<path d="M35.4533 116.872H36.8673V110.177H35.4533V116.872Z" fill="white"/>
<path d="M34.3304 114.876C34.3304 114.502 34.2472 114.211 34.1224 113.961C33.9977 113.712 33.7897 113.545 33.5818 113.379C33.3738 113.213 33.1243 113.088 32.8332 113.005C32.5421 112.921 32.2926 112.838 32.0014 112.797C31.7103 112.755 31.5024 112.672 31.2944 112.63C31.1281 112.589 30.9617 112.506 30.8785 112.464C30.7538 112.422 30.7122 112.339 30.6706 112.256C30.629 112.173 30.629 112.09 30.629 111.965C30.629 111.882 30.629 111.799 30.6706 111.757C30.7122 111.674 30.7538 111.632 30.837 111.549C30.9201 111.507 31.0033 111.466 31.1281 111.424C31.2528 111.383 31.4192 111.383 31.5856 111.383C31.9183 111.383 32.2094 111.424 32.4589 111.549C32.7084 111.674 32.958 111.84 33.1659 112.048L34.164 111.092C33.8313 110.759 33.457 110.509 33.0411 110.301C32.6253 110.135 32.1678 110.01 31.6271 110.01C31.2944 110.01 30.9617 110.052 30.6706 110.135C30.3795 110.218 30.0884 110.343 29.8804 110.509C29.6725 110.676 29.4645 110.884 29.3398 111.133C29.215 111.383 29.1318 111.674 29.1318 111.965C29.1318 112.298 29.1734 112.589 29.2982 112.797C29.423 113.005 29.5477 113.213 29.7557 113.337C29.9636 113.504 30.1715 113.629 30.4627 113.712C30.7122 113.795 31.0449 113.878 31.336 113.961C31.6687 114.044 31.9183 114.086 32.1262 114.169C32.3341 114.211 32.5005 114.294 32.5837 114.377C32.7084 114.46 32.75 114.502 32.7916 114.585C32.8332 114.668 32.8332 114.751 32.8332 114.876C32.8332 115.126 32.75 115.334 32.5421 115.417C32.3341 115.542 32.043 115.583 31.6271 115.583C31.2944 115.583 30.9617 115.542 30.6706 115.417C30.3795 115.292 30.0884 115.084 29.8388 114.835L28.8407 115.708C29.0903 116.082 29.4645 116.373 29.9636 116.581C30.4627 116.789 30.9617 116.914 31.5856 116.914C32.043 116.914 32.4589 116.872 32.8332 116.748C33.1659 116.664 33.457 116.498 33.665 116.29C33.8729 116.124 34.0393 115.874 34.164 115.625C34.2472 115.458 34.3304 115.167 34.3304 114.876Z" fill="white"/>
<path d="M27.8842 113.92V110.177H26.5118V113.961C26.5118 114.502 26.387 114.918 26.1375 115.25C25.8879 115.542 25.5137 115.708 25.0978 115.708C24.6403 115.708 24.3076 115.542 24.0581 115.25C23.8085 114.918 23.6838 114.502 23.6838 113.961V110.218H22.2698V114.003C22.2698 114.502 22.3529 114.918 22.4777 115.292C22.6025 115.666 22.8104 115.999 23.0599 116.249C23.3095 116.498 23.6006 116.706 23.9333 116.831C24.266 116.956 24.6819 117.039 25.0978 117.039C25.9711 117.039 26.6781 116.789 27.1772 116.249C27.6762 115.666 27.9258 114.918 27.8842 113.92Z" fill="white"/>
<path fill-rule="evenodd" clip-rule="evenodd" d="M21.3132 114.71C21.3132 114.336 21.23 114.044 21.0221 113.795C20.8558 113.545 20.6062 113.379 20.3151 113.254C20.5646 113.129 20.731 112.921 20.8558 112.714C20.9805 112.506 21.0637 112.256 21.0637 111.923C21.0637 111.341 20.8558 110.925 20.4815 110.593C20.0656 110.301 19.5249 110.135 18.8595 110.135H15.6572V116.831H18.8179C19.1922 116.831 19.5249 116.789 19.816 116.706C20.1072 116.623 20.3983 116.457 20.6062 116.29C20.8142 116.124 20.9805 115.874 21.1053 115.625C21.2716 115.375 21.3132 115.084 21.3132 114.71ZM19.4833 112.506C19.6081 112.381 19.6497 112.215 19.6497 112.048C19.6497 111.84 19.6081 111.674 19.4833 111.549C19.3586 111.424 19.109 111.383 18.8179 111.383H17.0296V112.672H18.8595C19.1506 112.672 19.3586 112.63 19.4833 112.506ZM19.6081 115.375C19.7745 115.25 19.8576 115.001 19.8576 114.751C19.8576 114.169 19.5249 113.878 18.8595 113.878H16.988V115.625H18.8595C19.1922 115.625 19.4418 115.542 19.6081 115.375Z" fill="white"/>
<path d="M20.5646 102.608C20.1488 102.109 19.4833 101.693 18.8595 101.526C18.61 101.443 18.2773 101.402 17.9446 101.402C17.4871 101.402 17.0296 101.485 16.6553 101.651C16.281 101.817 15.9483 102.067 15.6572 102.358C15.3661 102.649 15.1582 103.023 14.9918 103.439C14.8255 103.855 14.7423 104.313 14.7423 104.853C14.7423 105.394 14.8254 105.851 14.9502 106.309C15.1166 106.725 15.3245 107.099 15.574 107.39C15.8652 107.681 16.1979 107.931 16.5722 108.097C16.9465 108.264 17.3623 108.347 17.8614 108.347C18.7348 108.347 20.2319 107.889 20.6478 107.058L19.6497 106.184C19.3586 106.642 18.4436 107.058 17.903 107.058C17.6535 107.058 17.4039 107.016 17.196 106.891C16.988 106.766 16.8217 106.642 16.6553 106.434C16.489 106.226 16.4058 106.018 16.3226 105.768C16.2395 105.519 16.1979 105.228 16.1979 104.937C16.1979 104.645 16.2395 104.354 16.3226 104.063C16.4058 103.814 16.489 103.564 16.6553 103.398C16.7801 103.231 16.988 103.065 17.196 102.94C17.4039 102.857 17.6535 102.774 17.903 102.774C18.4436 102.774 19.1922 103.107 19.5665 103.606L20.5646 102.608Z" fill="white"/>
<path fill-rule="evenodd" clip-rule="evenodd" d="M14.4927 108.222L11.7895 101.526H10.4171L7.67226 108.222H9.21102L9.79326 106.725H12.4133L12.9956 108.222H14.4927ZM10.2507 105.436H11.8727L11.4152 104.23C11.332 104.022 11.2489 103.814 11.2073 103.647C11.1657 103.481 11.1241 103.315 11.0825 103.19C11.0409 103.315 10.9577 103.481 10.9161 103.647C10.833 103.855 10.7914 104.022 10.7082 104.23L10.2507 105.436Z" fill="white"/>
</svg>
