<svg width="145" height="55" viewBox="0 0 145 55" fill="none" xmlns="http://www.w3.org/2000/svg">
<path fill-rule="evenodd" clip-rule="evenodd" d="M7.14971 54.959C3.2289 54.952 0.00698896 51.7301 0 47.8093V7.65058C0.00698896 3.72976 3.2289 0.507843 7.14971 0.500854H137.85C141.771 0.507843 144.993 3.72976 145 7.65058V47.8023C144.993 51.7231 141.771 54.945 137.85 54.952H7.14971V54.959Z" fill="#008CFE"/>
<path fill-rule="evenodd" clip-rule="evenodd" d="M7.14946 1.61911C3.84368 1.62609 1.11799 4.34481 1.11799 7.6506V47.8023C1.12497 51.1081 3.84368 53.8338 7.14946 53.8338H49.1531V1.61911H7.14946ZM106.036 37.9618L106.931 36.7038C107.574 37.3747 108.468 37.7521 109.398 37.7521C110.307 37.7521 110.747 37.3328 110.747 36.8925C110.747 36.3264 110.027 36.1586 109.174 35.949C107.902 35.6624 106.281 35.313 106.281 33.5448C106.281 32.2518 107.399 31.1825 109.223 31.1825C110.46 31.1825 111.481 31.5529 112.249 32.2658L111.327 33.4749C110.705 32.9227 109.901 32.6222 109.069 32.6292C108.364 32.6292 107.965 32.9437 107.965 33.405C107.965 33.9082 108.678 34.0689 109.51 34.2646C110.782 34.5652 112.417 34.9496 112.417 36.7108C112.417 38.1295 111.404 39.1989 109.314 39.1989C107.825 39.1849 106.749 38.6956 106.036 37.9618ZM98.9635 37.9618L99.858 36.7038C100.501 37.3747 101.396 37.7521 102.325 37.7521C103.234 37.7521 103.674 37.3328 103.674 36.8925C103.674 36.3264 102.954 36.1586 102.108 35.949C100.837 35.6624 99.2151 35.313 99.2151 33.5448C99.2151 32.2518 100.333 31.1825 102.157 31.1825C103.387 31.1825 104.415 31.5529 105.184 32.2658L104.268 33.4749C103.646 32.9227 102.842 32.6222 102.011 32.6292C101.305 32.6292 100.906 32.9437 100.906 33.405C100.906 33.9082 101.619 34.0689 102.451 34.2646C103.723 34.5652 105.358 34.9496 105.358 36.7108C105.358 38.1295 104.345 39.1989 102.255 39.1989C100.76 39.1849 99.6903 38.6956 98.9635 37.9618ZM73.2091 37.9618L74.1037 36.7038C74.7467 37.3747 75.6413 37.7521 76.5708 37.7521C77.4794 37.7521 77.9197 37.3328 77.9197 36.8925C77.9197 36.3264 77.1998 36.1586 76.3472 35.949C75.0752 35.6624 73.4537 35.313 73.4537 33.5448C73.4537 32.2518 74.572 31.1825 76.3961 31.1825C77.6331 31.1825 78.6535 31.5529 79.4223 32.2658L78.4998 33.4749C77.8778 32.9227 77.074 32.6222 76.2423 32.6292C75.5365 32.6292 75.1381 32.9437 75.1381 33.405C75.1381 33.9082 75.844 34.0689 76.6826 34.2646C77.9546 34.5652 79.59 34.9496 79.59 36.7108C79.59 38.1295 78.5767 39.1989 76.487 39.1989C75.0053 39.1849 73.936 38.6956 73.2091 37.9618ZM65.1159 35.963V31.2943H66.8072V35.9001C66.8072 36.9833 67.4432 37.7242 68.6314 37.7242C69.8195 37.7242 70.4485 36.9764 70.4485 35.9001V31.2943H72.1398V35.949C72.1398 37.8779 71.0006 39.1919 68.6384 39.1919C66.2831 39.1989 65.1159 37.8709 65.1159 35.963ZM89.4165 39.0591L85.7194 33.9991V39.0591H84.07V31.2943H85.7613L89.3606 36.1586V31.2943H91.01V39.0521H89.4165V39.0591ZM80.7991 39.0591V31.2943H82.4485V39.0521H80.7991V39.0591ZM92.6245 39.0591V31.2943H98.1248V32.748H94.2809V34.3904H98.0409V35.8441H94.2809V37.5984H98.1178V39.0521L92.6245 39.0591ZM57.3302 39.0591V31.2943H61.4118C62.8934 31.2943 63.6482 32.2378 63.6482 33.2722C63.6482 34.2507 63.0402 34.9006 62.3133 35.0544C63.138 35.1802 63.795 35.9839 63.795 36.9554C63.795 38.1156 63.0192 39.0521 61.5376 39.0521L57.3302 39.0591ZM62.1107 36.7317C62.1107 36.2425 61.7612 35.8232 61.1112 35.8232H58.9866V37.6263H61.1112C61.7333 37.6263 62.1107 37.2839 62.1107 36.7317ZM61.9639 33.5587C61.9639 33.0905 61.5795 32.7131 61.1182 32.7131C61.0973 32.7131 61.0763 32.7131 61.0553 32.7131H58.9866V34.4044H61.0553C61.6144 34.4044 61.9639 34.055 61.9639 33.5657V33.5587ZM64.9971 21.8522C64.9971 19.469 66.8003 17.8335 69.1276 17.8335C70.4834 17.7986 71.7414 18.5394 72.3705 19.7345L70.9517 20.4334C70.6022 19.7555 69.9034 19.3152 69.1346 19.3012C67.7298 19.3012 66.7024 20.3845 66.7024 21.8382C66.7024 23.2919 67.7228 24.3752 69.1346 24.3752C69.9034 24.3682 70.6092 23.9349 70.9587 23.25L72.3705 23.9559C71.8113 24.9204 70.8329 25.8569 69.1276 25.8569C66.8072 25.8639 64.9971 24.2424 64.9971 21.8522ZM73.0694 21.8522C73.0694 19.469 74.8725 17.8335 77.1998 17.8335C78.5557 17.7986 79.8137 18.5394 80.4427 19.7345L79.0239 20.4334C78.6675 19.7485 77.9686 19.3152 77.1998 19.3012C75.795 19.3012 74.7677 20.3845 74.7677 21.8382C74.7677 23.2919 75.7881 24.3752 77.1998 24.3752C77.9686 24.3682 78.6745 23.9349 79.0239 23.25L80.4427 23.9349C79.8836 24.8994 78.9051 25.8359 77.1998 25.8359C74.8795 25.8639 73.0694 24.2424 73.0694 21.8522ZM85.9011 25.7311L84.3775 22.9844H83.1684V25.7311H81.519V17.9733H85.1463C86.7607 17.9733 87.7532 19.0287 87.7532 20.4754C87.7532 21.8452 86.8935 22.593 86.0618 22.7817L87.8091 25.7451L85.9011 25.7311ZM62.6838 25.7311L62.2085 24.4172H58.8818L58.3925 25.7311H56.5055L59.5108 17.9733H61.5795L64.5708 25.7311H62.6838ZM121.363 25.7311V17.9733H124.424C126.856 17.9733 128.541 19.5179 128.541 21.8592C128.541 24.2005 126.849 25.7311 124.424 25.7311H121.363ZM114.5 25.7311V17.9733H120V19.427H116.149V21.0694H119.902V22.5231H116.149V24.2774H119.986V25.7311H114.5ZM104.38 25.7311V17.9733H106.029V25.7311H104.38ZM95.9442 25.7311V17.9733H99.0054C101.438 17.9733 103.122 19.5179 103.122 21.8592C103.122 24.2005 101.431 25.7311 99.0054 25.7311H95.9442ZM89.0811 25.7311V17.9733H94.5814V19.427H90.7305V21.0694H94.4905V22.5231H90.7305V24.2774H94.5674V25.7311H89.0811ZM109.44 25.7311V19.427H107.168V17.9733H113.361V19.427H111.103V25.7311H109.44ZM126.863 21.8592C126.863 20.4894 126.018 19.427 124.431 19.427H123.026V24.2774H124.431C125.955 24.2774 126.849 23.1731 126.849 21.8592H126.863ZM101.445 21.8592C101.445 20.4894 100.599 19.427 99.0124 19.427H97.6076V24.2774H99.0124C100.536 24.2774 101.431 23.1731 101.431 21.8592H101.445ZM60.5451 19.6227L59.336 22.9635H61.7542L60.5451 19.6227ZM86.0618 20.4684C86.0618 19.8184 85.5656 19.42 84.9017 19.42H83.1684V21.5167H84.9017C85.5656 21.5167 86.0618 21.1253 86.0618 20.4684Z" fill="white"/>
<path fill-rule="evenodd" clip-rule="evenodd" d="M17.3746 45.3631C18.4788 45.8523 19.017 46.1738 19.2266 47.5437C19.5831 49.9339 17.3815 50.8425 15.3058 50.8425H10.4415V40.4149H15.3478C17.109 40.4149 18.7164 41.2187 18.7164 43.1826C18.7164 44.161 18.2062 44.8739 17.3746 45.3631ZM27.1172 45.3631C28.2214 45.8523 28.7596 46.1738 28.9692 47.5437C29.3257 49.9339 27.1242 50.8425 25.0484 50.8425H20.1841V40.4149H25.0904C26.8516 40.4149 28.4591 41.2187 28.4591 43.1826C28.4591 44.161 27.9489 44.8739 27.1172 45.3631ZM38.7119 47.5507C38.5022 46.1808 37.9571 45.8593 36.8598 45.3701C37.6915 44.8809 38.2087 44.168 38.2087 43.1826C38.2087 41.2187 36.6012 40.4149 34.84 40.4149H29.9337V50.8495H34.798C36.8668 50.8495 39.0753 49.9409 38.7119 47.5507ZM40.0677 48.3474V48.3265C40.0677 47.0055 41.151 45.9222 42.4719 45.9222C43.7928 45.9222 44.8761 47.0055 44.8761 48.3195V48.3404C44.8761 49.6613 43.7928 50.7446 42.4719 50.7446C41.158 50.7516 40.0747 49.6683 40.0677 48.3474ZM44.6595 48.3404V48.3195C44.6525 47.1243 43.667 46.1389 42.4719 46.1389C41.2698 46.1389 40.2844 47.1243 40.2844 48.3265V48.3474C40.2914 49.5425 41.2768 50.528 42.4719 50.528C43.674 50.528 44.6595 49.5425 44.6595 48.3404ZM41.5284 47.0335H42.6327C42.8983 47.0195 43.1638 47.1174 43.3665 47.2921C43.4993 47.4179 43.5692 47.5926 43.5692 47.7673V47.7813C43.5692 48.1797 43.3036 48.4173 42.9332 48.5082L43.695 49.5006H43.2407L42.5278 48.5711H41.8988V49.5006H41.5354L41.5284 47.0335ZM15.5085 48.8716H12.657V46.4953H15.5085C17.5982 46.4953 17.4724 48.8716 15.5085 48.8716ZM25.2511 48.8716H22.4066V46.4953H25.2511C27.3408 46.4953 27.215 48.8716 25.2511 48.8716ZM32.1492 46.4953V48.8716H34.9937C36.9576 48.8716 37.0834 46.4953 34.9937 46.4953H32.1492ZM42.5977 48.2426C42.9402 48.2426 43.1848 48.0818 43.1848 47.8023V47.7883C43.1848 47.5297 42.9751 47.362 42.6187 47.362H41.8918V48.2426H42.5977ZM12.657 42.4068H15.215C16.8085 42.4068 16.8644 44.6293 15.3128 44.6293H12.657V42.4068ZM32.1562 42.4068H34.6932C36.2867 42.4068 36.3426 44.6293 34.7911 44.6293H32.1422L32.1562 42.4068ZM22.4136 42.4068H24.9646C26.5581 42.4068 26.614 44.6293 25.0624 44.6293H22.4066L22.4136 42.4068ZM15.1521 35.7463H19.8976L20.7432 38.6257H28.501L29.3466 35.7463H34.0922L33.4701 33.6286H15.7741L15.1521 35.7463ZM20.897 18.6862L18.5976 21.8592C17.4444 23.4457 17.8009 26.2622 19.3734 27.3945L23.6367 30.4696C24.3705 31.0008 24.4264 31.5249 24.077 32.0771L24.699 32.5383L26.8586 29.5471C28.1935 27.695 28.0747 25.1859 26.0968 23.7392L21.7916 20.6012C21.2814 20.2238 21.2255 19.6996 21.505 19.1195L20.897 18.6862ZM24.5872 4.68027L21.0088 9.63545C19.3315 11.9558 19.9395 15.9185 22.2319 17.6099L28.1166 21.9291C29.3117 22.8027 29.4655 25.0392 28.5988 26.1784L29.095 26.5558L33.1556 20.8458C34.9798 18.2808 34.8749 14.4858 32.0094 12.4101L25.7124 7.8323C24.8318 7.1963 24.3915 6.10602 25.1253 5.06466L24.5872 4.68027Z" fill="#008CFE"/>
</svg>
