<svg width="25" height="25" viewBox="0 0 25 25" fill="none" xmlns="http://www.w3.org/2000/svg">
<path d="M5.16797 10.8159C5.16797 15.6677 9.41244 19.68 11.2912 21.2183C11.56 21.4384 11.6961 21.5498 11.8967 21.6063C12.0529 21.6503 12.2828 21.6503 12.439 21.6063C12.6399 21.5497 12.775 21.4394 13.0449 21.2184C14.9236 19.6801 19.1679 15.6682 19.1679 10.8164C19.1679 8.98025 18.4304 7.21912 17.1177 5.92079C15.8049 4.62246 14.0246 3.89307 12.168 3.89307C10.3115 3.89307 8.53098 4.62257 7.21822 5.9209C5.90547 7.21923 5.16797 8.9798 5.16797 10.8159Z" stroke="#008CFE" stroke-width="2" stroke-linecap="round" stroke-linejoin="round"/>
<path d="M10.168 9.89307C10.168 10.9976 11.0634 11.8931 12.168 11.8931C13.2725 11.8931 14.168 10.9976 14.168 9.89307C14.168 8.7885 13.2725 7.89307 12.168 7.89307C11.0634 7.89307 10.168 8.7885 10.168 9.89307Z" stroke="#008CFE" stroke-width="2" stroke-linecap="round" stroke-linejoin="round"/>
</svg>
