<svg width="101" height="75" viewBox="0 0 101 75" fill="none" xmlns="http://www.w3.org/2000/svg">
<path d="M66.6988 31.7048V24.8965H77.3391L51.9713 9.54253C51.2911 9.13082 50.439 9.12917 49.7572 9.53825L24.1597 24.8965L33.0535 31.7048H5.42949C3.89 31.7048 3.32245 29.6816 4.63732 28.8809L49.738 1.41662C50.4294 0.995546 51.2991 0.999682 51.9865 1.42732L97.4704 29.7217C98.3863 30.2915 97.9826 31.7048 96.9039 31.7048H66.6988Z" fill="url(#paint0_linear_1384_10321)"/>
<path fill-rule="evenodd" clip-rule="evenodd" d="M46.0852 46.4537C46.0852 49.0308 43.996 51.1199 41.4189 51.1199C38.8418 51.1199 36.7527 49.0308 36.7527 46.4537L36.7527 38.3601L46.0852 31.7209V46.4537Z" fill="black"/>
<path d="M63.9088 46.4537V36.5406L63.909 28.1114C63.909 26.3344 62.4685 24.8939 60.6916 24.8939H54.5766L54.5764 36.5406V46.4537C54.5764 49.0308 56.6655 51.1199 59.2426 51.1199C61.8197 51.1199 63.9088 49.0308 63.9088 46.4537Z" fill="black"/>
<path d="M53.6431 31.7209C55.1894 31.7209 54.3346 31.9791 54.5764 36.5406L54.5766 24.8939L46.0852 31.7209H53.6431Z" fill="black"/>
<path fill-rule="evenodd" clip-rule="evenodd" d="M44.2179 24.8939C45.2488 24.8939 46.0845 25.7295 46.0846 26.7604L46.0852 31.7209H38.1117L36.7526 30.9951L36.752 24.8939H44.2179Z" fill="black"/>
<path d="M36.7526 30.9951L36.7527 31.7209H38.1117L36.7526 30.9951Z" fill="black"/>
<path d="M46.0852 46.4537C46.0852 49.0308 43.996 51.1199 41.4189 51.1199H46.0852V46.4537Z" fill="black"/>
<path d="M59.2426 51.1199C56.6655 51.1199 54.5764 49.0308 54.5764 46.4537V51.1199H59.2426Z" fill="black"/>
<path d="M76.1549 51.7337C74.2345 65.3948 62.7999 73.8464 50.9187 73.7513C37.3744 73.6429 27.1487 62.8662 26.1143 51.6522C26.0644 51.1116 26.3993 50.5087 26.9677 50.471C27.8982 50.4092 28.2429 51.8304 29.1158 53.5257C33.1766 61.4119 41.5659 66.7417 50.9187 66.7417C60.2714 66.7417 69.2599 60.7616 72.988 51.7357C73.8574 49.6307 76.3999 49.9903 76.1549 51.7337Z" fill="black"/>
<defs>
<linearGradient id="paint0_linear_1384_10321" x1="-0.530161" y1="0.729992" x2="94.1698" y2="46.9715" gradientUnits="userSpaceOnUse">
<stop stop-color="#B780FF"/>
<stop offset="1" stop-color="#8136E2"/>
</linearGradient>
</defs>
</svg>
