<svg width="282" height="49" viewBox="0 0 282 49" fill="none" xmlns="http://www.w3.org/2000/svg">
<path d="M43.2641 20.6933V16.2772H50.1659L33.7111 6.31781C33.2699 6.05076 32.7172 6.04969 32.2749 6.31504L15.6711 16.2772L21.4401 20.6933H3.52183C2.52325 20.6933 2.1551 19.381 3.00799 18.8616L32.2625 1.04695C32.711 0.773821 33.2751 0.776506 33.721 1.05389L63.2241 19.407C63.8182 19.7766 63.5563 20.6933 62.8566 20.6933H43.2641Z" fill="url(#paint0_linear_1762_398)"/>
<path fill-rule="evenodd" clip-rule="evenodd" d="M29.8938 30.2601C29.8938 31.9317 28.5387 33.2868 26.8671 33.2868C25.1954 33.2868 23.8403 31.9317 23.8403 30.2601L23.8403 25.0102L29.8938 20.7037V30.2601Z" fill="white"/>
<path d="M41.4551 30.2601V23.83L41.4552 18.3624C41.4552 17.2098 40.5209 16.2754 39.3683 16.2754H35.4018L35.4016 23.83V30.2601C35.4016 31.9317 36.7567 33.2868 38.4284 33.2868C40.1 33.2868 41.4551 31.9317 41.4551 30.2601Z" fill="white"/>
<path d="M34.7963 20.7037C35.7993 20.7037 35.2448 20.8712 35.4016 23.83L35.4018 16.2754L29.8938 20.7037H34.7963Z" fill="white"/>
<path fill-rule="evenodd" clip-rule="evenodd" d="M28.6826 16.2754C29.3513 16.2754 29.8934 16.8174 29.8935 17.4861L29.8938 20.7037H24.7218L23.8403 20.2329L23.8398 16.2754H28.6826Z" fill="white"/>
<path d="M23.8403 20.2329L23.8403 20.7037H24.7218L23.8403 20.2329Z" fill="white"/>
<path d="M29.8938 30.2601C29.8938 31.9317 28.5387 33.2868 26.8671 33.2868H29.8938V30.2601Z" fill="white"/>
<path d="M38.4284 33.2868C36.7567 33.2868 35.4016 31.9317 35.4016 30.2601V33.2868H38.4284Z" fill="white"/>
<path d="M49.3975 33.685C48.1519 42.5463 40.7348 48.0284 33.0281 47.9667C24.2426 47.8964 17.6097 40.9061 16.9387 33.6322C16.9064 33.2815 17.1236 32.8904 17.4923 32.8659C18.0959 32.8259 18.3194 33.7478 18.8857 34.8474C21.5197 39.9628 26.9614 43.4199 33.0281 43.4199C39.0947 43.4199 44.9251 39.541 47.3433 33.6863C47.9072 32.3209 49.5564 32.5541 49.3975 33.685Z" fill="white"/>
<path d="M77.6126 38.5555V38.8062H77.8633H83.4282H83.6789V38.5555V18.6112L97.2158 38.6956L97.2903 38.8062H97.4237H103.528H103.779V38.5555V10.0663V9.81562H103.528H97.9635H97.7129V10.0663V29.9704L84.1758 9.92599L84.1013 9.81562H83.9681H77.8633H77.6126V10.0663V38.5555ZM130.549 29.3055L130.623 29.2321V29.1283V28.1731C130.623 24.8328 129.469 22.0243 127.443 20.051C125.417 18.0783 122.537 16.9587 119.118 16.9587C115.698 16.9587 112.819 18.0783 110.793 20.051C108.766 22.0243 107.612 24.8328 107.612 28.1731C107.612 31.5135 108.766 34.3219 110.793 36.2952C112.819 38.268 115.698 39.3876 119.118 39.3876C124.286 39.3876 128.709 36.2503 130.114 31.5675L130.211 31.2448H129.874H124.807H124.647L124.579 31.3907C123.668 33.3716 121.478 34.7333 119.118 34.7333C116.102 34.7333 113.766 32.755 113.224 29.7943H129.957H130.061L130.134 29.7208L130.549 29.3055ZM138.876 38.6375L138.935 38.8062H139.113H144.18H144.373L144.422 38.6193L147.711 26.121L151.039 38.62L151.089 38.8062H151.281H156.348H156.527L156.585 38.637L163.728 17.8723L163.842 17.5401H163.491H158.258H158.07L158.017 17.7213L153.912 31.9522L150.278 17.7287L150.23 17.5401H150.035H145.384H145.189L145.141 17.7287L141.507 31.9523L137.402 17.7213L137.35 17.5401H137.161H131.928H131.576L131.692 17.8727L138.876 38.6375ZM167.381 38.5555V38.8062H167.632H173.197H173.447V38.5555V19.6248L181.104 38.6491L181.167 38.8062H181.336H186.071H186.24L186.303 38.6491L193.96 19.6248V38.5555V38.8062H194.211H199.776H200.026V38.5555V10.0663V9.81562H199.776H192.882H192.716L192.651 9.96776L183.704 30.8993L174.756 9.96776L174.691 9.81562H174.526H167.632H167.381V10.0663V38.5555ZM226.766 29.3056L226.84 29.2321V29.1283V28.1731C226.84 24.8328 225.686 22.0243 223.66 20.051C221.633 18.0783 218.754 16.9587 215.335 16.9587C211.915 16.9587 209.036 18.0783 207.01 20.051C204.983 22.0243 203.829 24.8328 203.829 28.1731C203.829 31.5135 204.983 34.3219 207.01 36.2952C209.036 38.268 211.915 39.3876 215.335 39.3876C220.503 39.3876 224.926 36.2503 226.331 31.5675L226.428 31.2448H226.091H221.024H220.863L220.796 31.3907C219.885 33.3716 217.694 34.7333 215.335 34.7333C212.319 34.7333 209.983 32.755 209.441 29.7943H226.174H226.278L226.351 29.7208L226.766 29.3056ZM227.738 21.9437V22.1944H227.989H231.061V33.2397C231.061 35.0755 231.786 36.6203 233.054 37.7027C234.318 38.7821 236.103 39.3876 238.205 39.3876C239.556 39.3876 241.003 39.1357 241.833 38.7865L241.986 38.7219V38.5555V34.984V34.7333H241.735H238.122C237.637 34.7333 237.245 34.5756 236.976 34.3196C236.708 34.0646 236.546 33.6962 236.546 33.2397V22.1944H241.528H241.778V21.9437V17.7908V17.5401H241.528H236.546V10.0663V9.81562H236.295H231.311H231.061V10.0663V17.5401H227.989H227.738V17.7908V21.9437ZM245.377 38.5555V38.8062H245.627H250.611H250.862V38.5555V26.2628C250.862 24.9427 251.381 23.851 252.288 23.0852C253.199 22.3164 254.519 21.8621 256.134 21.8621H257.837H258.088V21.6115V17.7908V17.6255L257.936 17.5604C257.318 17.2958 256.412 17.1248 255.636 17.1248C253.883 17.1248 252.045 18.0541 250.862 19.4738V17.7908V17.5401H250.611H245.627H245.377V17.7908V38.5555ZM119.118 21.613C121.505 21.613 123.639 23.0171 124.598 25.14H113.637C114.596 23.0171 116.731 21.613 119.118 21.613ZM209.854 25.14C210.813 23.0171 212.947 21.613 215.335 21.613C217.722 21.613 219.856 23.0171 220.815 25.14H209.854ZM258.598 28.1731C258.598 31.5135 259.751 34.3219 261.778 36.2952C263.804 38.268 266.684 39.3876 270.103 39.3876C273.522 39.3876 276.402 38.268 278.428 36.2952C280.455 34.3219 281.608 31.5135 281.608 28.1731C281.608 24.8328 280.455 22.0243 278.428 20.051C276.402 18.0783 273.522 16.9587 270.103 16.9587C266.684 16.9587 263.804 18.0783 261.778 20.051C259.751 22.0243 258.598 24.8328 258.598 28.1731ZM276.123 28.1731C276.123 30.0916 275.508 31.6664 274.459 32.7599C273.411 33.8526 271.911 34.4841 270.103 34.4841C268.295 34.4841 266.795 33.8526 265.747 32.7599C264.698 31.6664 264.083 30.0916 264.083 28.1731C264.083 26.2547 264.698 24.6799 265.747 23.5863C266.795 22.4937 268.295 21.8621 270.103 21.8621C271.911 21.8621 273.411 22.4937 274.459 23.5863C275.508 24.6799 276.123 26.2547 276.123 28.1731Z" fill="white" stroke="white" stroke-width="0.50133"/>
<defs>
<linearGradient id="paint0_linear_1762_398" x1="-0.343888" y1="0.60157" x2="61.0831" y2="30.596" gradientUnits="userSpaceOnUse">
<stop stop-color="#B780FF"/>
<stop offset="1" stop-color="#8136E2"/>
</linearGradient>
</defs>
</svg>
