<svg width="25" height="25" viewBox="0 0 25 25" fill="none" xmlns="http://www.w3.org/2000/svg">
<path d="M4.66797 7.24268L10.2756 11.3549L10.2776 11.3566C10.9558 11.854 11.2951 12.1028 11.6667 12.1989C11.9952 12.2838 12.3405 12.2838 12.6689 12.1989C13.0409 12.1027 13.3812 11.8531 14.0605 11.3549L19.6682 7.24268M3.16797 16.5429V8.94287C3.16797 7.82277 3.16797 7.2623 3.38596 6.83447C3.5777 6.45815 3.88344 6.15241 4.25977 5.96066C4.68759 5.74268 5.24806 5.74268 6.36816 5.74268H17.9682C19.0883 5.74268 19.6475 5.74268 20.0754 5.96066C20.4517 6.15241 20.7584 6.45815 20.9502 6.83447C21.168 7.26188 21.168 7.82167 21.168 8.93959V16.5463C21.168 17.6642 21.168 18.2232 20.9502 18.6506C20.7584 19.0269 20.4517 19.3332 20.0754 19.5249C19.648 19.7427 19.089 19.7427 17.9711 19.7427H6.36488C5.24696 19.7427 4.68717 19.7427 4.25977 19.5249C3.88344 19.3332 3.5777 19.0269 3.38596 18.6506C3.16797 18.2227 3.16797 17.663 3.16797 16.5429Z" stroke="#008CFE" stroke-width="2" stroke-linecap="round" stroke-linejoin="round"/>
</svg>
