<svg width="25" height="25" viewBox="0 0 25 25" fill="none" xmlns="http://www.w3.org/2000/svg">
<path d="M9.67043 5.46498C9.3667 4.70567 8.63129 4.20776 7.81348 4.20776H5.06271C4.01627 4.20776 3.16797 5.05586 3.16797 6.10229C3.16797 14.997 10.3787 22.2077 19.2734 22.2077C20.3199 22.2077 21.168 21.3594 21.168 20.3129L21.1684 17.5617C21.1684 16.7439 20.6707 16.0086 19.9113 15.7049L17.2749 14.6507C16.5928 14.3779 15.8163 14.5007 15.2519 14.9709L14.5715 15.5384C13.7768 16.2007 12.6076 16.148 11.8762 15.4165L9.96019 13.4988C9.22875 12.7674 9.1747 11.5991 9.83691 10.8044L10.4043 10.1241C10.8746 9.55972 10.9985 8.78292 10.7256 8.10085L9.67043 5.46498Z" stroke="#008CFE" stroke-width="2" stroke-linecap="round" stroke-linejoin="round"/>
</svg>
