<svg xmlns="http://www.w3.org/2000/svg" viewBox="0 0 96 96"><rect width="96" height="96" fill="#fff" opacity="0"/><path d="M32.162,19.487c13.367-8.943,28.425-8.94,37.563.338-2.826,0-5.292-.04-7.756.008-4.947.1-9.917-.35-14.835.473a20.815,20.815,0,0,0-10.822,5.519c-.618.572-1.193,1.08-.8,2.127,2.241,5.922,4.419,11.868,6.817,18.341,1.136-3.271,2.191-6.019,3.029-8.831a2.745,2.745,0,0,1,3.186-2.318c4.537.126,4.537.021,5.918,4.326.661,2.06,1.335,4.116,2.151,6.627a33.5,33.5,0,0,0,2.189-7.06c.382-1.522,1.018-2.26,2.723-2.1a52.708,52.708,0,0,0,5.29.035c2.752-.017,4.325-1.254,4.342-3.4.016-2.046-1.282-2.983-4.336-3-5.713-.028-11.428-.081-17.139.03-2.089.04-2.875-.239-2.083-2.583,1.568-4.642,1.445-4.683,6.341-4.683,4.537,0,9.075-.038,13.612.01,6.49.069,10.6,4.064,10.577,10.207-.022,6.435-4.27,10.882-10.688,10.72-2.634-.067-4.106.608-4.489,3.233a4.331,4.331,0,0,1-.2.723c-2.006,6.032-2,5.982-8.376,5.781a2,2,0,0,1-2.124-1.6c-.852-2.422-1.775-4.82-2.815-7.62-1.058,2.726-2.013,5.037-2.847,7.39-.441,1.245-1.005,1.95-2.505,1.822-1.918-.164-4.1.47-5.725-.242-1.733-.76-1.555-3.294-2.293-5.015C32.544,40.532,29.1,32.281,25.651,24.033a3.1,3.1,0,0,0-2.307-2.271,7.416,7.416,0,0,1-5.322-9.587,7.6,7.6,0,1,1,14.422,4.812C32.223,17.731,31.384,18.386,32.162,19.487Z" fill="#f07935"/><path d="M78.316,50.887a23.717,23.717,0,0,1-3.355,6.664c-7.589,10.219-15.24,20.393-22.819,30.62-.921,1.243-1.389.982-2.158-.083q-3.307-4.581-6.759-9.06a2.037,2.037,0,0,1-.132-2.692c2.6-4.2,5.157-8.422,7.629-12.695a2.817,2.817,0,0,1,2.456-1.4c7.4-.791,12.815-4.584,16.572-10.865.41-.685.767-1.249,1.691-1.231,1.932.036,3.865.005,5.8.012C77.851,50.16,78.469,50.188,78.316,50.887Z" fill="#f07935"/><path d="M23.559,32.849c2.787,5.818,5.42,11.043,7.807,16.377a21.456,21.456,0,0,0,10.5,11.036c1.3.627,1.329,1.089.614,2.2-2.218,3.449-4.306,6.98-6.5,10.443a2.751,2.751,0,0,0-.282,2.762,7.441,7.441,0,0,1-4.656,10.091,7.643,7.643,0,0,1-9.517-4.8c-1.326-4.209.86-8.241,5.241-9.671,1.284-.419,5.2-5.522,5.251-6.875.03-.84-.645-1.337-1.092-1.909-3.1-3.967-6.144-7.94-7.529-12.918A29.022,29.022,0,0,1,23.559,32.849Z" fill="#f07935"/></svg>