<svg xmlns="http://www.w3.org/2000/svg" viewBox="0 0 96 96"><rect width="96" height="96" fill="#fff" opacity="0"/><path d="M32.5,71.25H44.771V82H32.731a12.267,12.267,0,0,1-4.612-3.446A13.867,13.867,0,0,1,32.5,71.26v-.01Z" fill="#6c53a3"/><path d="M33.216,72.157a13.715,13.715,0,0,0-3.776,6.036,10.8,10.8,0,0,0,3.6,2.713H43.357V72.157Z" fill="#7860a9"/><path d="M30.378,75.81a15.214,15.214,0,0,0-.949,2.373,10.82,10.82,0,0,0,3.6,2.713h5.5V76.212c-2.724-.02-5.437-.165-8.161-.413l.01.011Z" fill="#9178b7"/><path d="M32.442,79.72A2.794,2.794,0,0,1,34.495,82H30.069a3.466,3.466,0,0,1,2.373-2.28" fill="#60459b"/><path d="M32.421,80.194a2.883,2.883,0,0,0-1.65,1.352h1.671V80.205l-.021-.011Z" fill="#6c53a3"/><path d="M36.816,79.452A3.591,3.591,0,0,1,39.55,82H33.638a4.3,4.3,0,0,1,3.178-2.548" fill="#60459b"/><path d="M36.785,79.916a3.9,3.9,0,0,0-2.393,1.63h2.424v-1.62l-.031-.01Z" fill="#6c53a3"/><path d="M59.493,71.25H47.226V82h12.04a12.275,12.275,0,0,0,4.612-3.446,13.867,13.867,0,0,0-4.385-7.294v-.01Z" fill="#6c53a3"/><path d="M58.792,72.157a13.733,13.733,0,0,1,3.776,6.036,10.816,10.816,0,0,1-3.6,2.713H48.65V72.157Z" fill="#7860a9"/><path d="M61.619,75.81a15.214,15.214,0,0,1,.949,2.373,10.83,10.83,0,0,1-3.6,2.713h-5.5V76.212c2.724-.02,5.437-.165,8.161-.413l-.01.011Z" fill="#9178b7"/><path d="M59.565,79.72A2.794,2.794,0,0,0,57.512,82h4.426a3.462,3.462,0,0,0-2.373-2.28" fill="#60459b"/><path d="M59.586,80.194a2.888,2.888,0,0,1,1.651,1.352H59.565V80.205l.021-.011Z" fill="#6c53a3"/><path d="M55.191,79.452A3.59,3.59,0,0,0,52.457,82h5.911a4.3,4.3,0,0,0-3.177-2.548" fill="#60459b"/><path d="M55.222,79.916a3.9,3.9,0,0,1,2.393,1.63H55.191v-1.62l.031-.01Z" fill="#6c53a3"/><path d="M13.18,74.561A6.97,6.97,0,0,0,14.562,79c1.352-.1,2.487-1.61,3-2.889-.785-1.362-2.312-1.981-4.385-1.548" fill="#60459b"/><path d="M13.871,75.108a5.828,5.828,0,0,0,.959,3.178l.527-3.095a4.2,4.2,0,0,0-1.486-.083" fill="#6c53a3"/><path d="M16.584,75.6a9.072,9.072,0,0,0,1.455,4.88,5.388,5.388,0,0,0,4.189-3.291c-.98-2.218-3.291-2.528-5.654-1.589Z" fill="#60459b"/><path d="M18.328,79.741l1.331-3.91a4.809,4.809,0,0,0-2.394.216,8.1,8.1,0,0,0,1.063,3.683v.011Z" fill="#6c53a3"/><path d="M23.084,77.037a3.534,3.534,0,0,0,3.178,2.931,5.633,5.633,0,0,0,.867-2.827l-.815-.692c-1.259-.227-2.6-.134-3.24.588Z" fill="#60459b"/><path d="M25.921,79.307a4.616,4.616,0,0,0,.661-2.239l-1.352-.216.691,2.455Z" fill="#6c53a3"/><path d="M27.129,50.254V77.141c-4.653.577-10.07.392-13.949-2.59a44.973,44.973,0,0,1,.763-7.284,23.785,23.785,0,0,1,5.179-11.235c2.425-2.785,4.86-4.116,8.007-5.788v.01Z" fill="#6c53a3"/><path d="M14.5,73.932C16.935,75.8,22.754,76.377,25.818,76V52.431c-7.9,4.2-11.039,11.947-11.318,21.5" fill="#9178b7"/><path d="M14.5,73.932a12.729,12.729,0,0,0,5.51,1.888c.32-5.994.278-15.011-1.063-17.4-2.94,4.158-4.261,9.471-4.447,15.517" fill="#a58dc2"/><path d="M20,69.929a1.847,1.847,0,1,1-1.846,1.847A1.845,1.845,0,0,1,20,69.929" fill="#9178b7"/><path d="M24.415,29.29c-.536-3.5.052-5.313.774-8.5a30.141,30.141,0,0,0,6.345,4.539,27.435,27.435,0,0,1,3.477-9.564L36.042,14C40,16.992,43.388,19.386,46,23.337c2.62-3.951,5.994-6.355,9.955-9.337l1.032,1.764a27.455,27.455,0,0,1,3.477,9.564,30.141,30.141,0,0,0,6.345-4.539c.722,3.177,1.31,4.993.774,8.5l4.9,1.351c-.98,12.783-1.97,23.668-3.208,36.451-.176,1.764-.351,3.528-.537,5.292-.051.506-.671,1.414-3.291,1.445a295.192,295.192,0,0,1-38.916,0c-2.61-.031-3.229-.939-3.291-1.445-.186-1.8-.372-3.59-.547-5.385q-.108-1.1-.217-2.2c-1.073-11.39-2.115-22.759-2.991-34.16l4.9-1.351Z" fill="#6c53a3"/><path d="M36.579,16.682a25.051,25.051,0,0,0-3.508,11.3,24.2,24.2,0,0,1-6.768-3.9,14.4,14.4,0,0,0,.248,6.562c-1.785.412-3.456.835-5.117,1.32.9,11.731,1.743,23.461,2.888,35.16.114,1.166.361,3.663.485,4.829a5.149,5.149,0,0,0,1.837.279,291.912,291.912,0,0,0,38.7,0,5.682,5.682,0,0,0,1.836-.279c.124-1.135.372-3.693.485-4.829,1.146-11.709,1.992-23.44,2.889-35.16-1.661-.485-3.332-.908-5.117-1.32a14.4,14.4,0,0,0,.248-6.562,24.078,24.078,0,0,1-6.768,3.9,25.051,25.051,0,0,0-3.508-11.3c-4.3,3.25-7.108,5.6-9.419,10.317-2.322-4.714-5.118-7.067-9.43-10.317Z" fill="#9178b7"/><path d="M36.579,16.682c.32,5.221,1.63,11.009,4.085,13.423a17.747,17.747,0,0,1-7.593-2.125,24.2,24.2,0,0,1-6.768-3.9c1.146,3.435,2.249,5.891,4.509,8.284a6.118,6.118,0,0,1-4.261-1.722c-1.785.412-3.456.835-5.117,1.32.9,11.731,1.743,23.461,2.888,35.16.114,1.166.361,3.663.485,4.829a5.149,5.149,0,0,0,1.837.279c6.417.433,12.886.639,19.355.639V65.875c-9.967.783-19.1-14.94-8.615-25.277L35.3,41.753a11.105,11.105,0,0,1,.949-5.416c1.372-3.271,4.993-5.706,9.75-6.273V26.989c-2.322-4.715-5.118-7.067-9.43-10.317l.01.01Z" fill="#a58dc2"/><path d="M61.175,32.364c2.249-2.393,3.363-4.848,4.508-8.284a14.383,14.383,0,0,1-.247,6.562,6.118,6.118,0,0,1-4.261,1.722M57.389,31.4a2.022,2.022,0,1,1-2.023,2.022A2.025,2.025,0,0,1,57.389,31.4m7.366,4.55a1.4,1.4,0,1,1-1.4,1.4,1.4,1.4,0,0,1,1.4-1.4m-13.423-5.84c2.466-2.414,3.776-8.2,4.086-13.422a25.047,25.047,0,0,1,3.508,11.3,17.752,17.752,0,0,1-7.594,2.125" fill="#7860a9"/><path d="M27.686,34.325a3.322,3.322,0,1,1-3.323,3.322,3.32,3.32,0,0,1,3.323-3.322M25.54,44.518a1.331,1.331,0,1,1-1.331,1.331,1.334,1.334,0,0,1,1.331-1.331" fill="#9178b7"/><path d="M46.215,36.141A14.31,14.31,0,1,1,31.905,50.45a14.31,14.31,0,0,1,14.31-14.309" fill="#d3e8ef"/><path d="M32.277,47.19A14.326,14.326,0,0,1,43.234,36.45c5.911-.454,10.678,3.683,10.678,9.306,0,5.664-4.849,10.689-10.823,11.215s-10.823-3.632-10.823-9.3c0-.165,0-.33.011-.495v.01Z" fill="#fff"/><path d="M50.61,44.962a8.068,8.068,0,1,1-8.068,8.068,8.067,8.067,0,0,1,8.068-8.068" fill="#ea5064"/><path d="M50.61,44.962a8.024,8.024,0,0,1,3.3.7v.093c0,5.52-4.6,10.431-10.379,11.163A8.074,8.074,0,0,1,50.6,44.951l.01.011Z" fill="#eb6377"/><path d="M50.61,47.789a5.241,5.241,0,1,1-5.241,5.241,5.242,5.242,0,0,1,5.241-5.241" fill="#232323"/><path d="M50.61,47.789a5.266,5.266,0,0,1,2.878.856,11.965,11.965,0,0,1-7.067,7.531,5.238,5.238,0,0,1,4.189-8.387" fill="#333332"/><path d="M44.9,46.984a3.3,3.3,0,1,1-3.3,3.3,3.3,3.3,0,0,1,3.3-3.3" fill="#fff"/><path d="M29.378,57c4.065-2.25,10.2,1.681,9.749,8.037A18.738,18.738,0,0,1,29.378,57" fill="#6c53a3"/><path d="M29.378,57c3.693.072,7.789,2.166,9.749,8.037C34.474,64.5,30.151,60.953,29.378,57" fill="#a58dc2"/><path d="M31.307,62.315a7.61,7.61,0,0,1,3.291.144c.248.33-.433,2.064-1.145,3.178a6.323,6.323,0,0,1-2.146-3.322" fill="#7860a9"/><path d="M30.564,61.7a7.61,7.61,0,0,1,3.291.144c.248.331-.433,2.063-1.145,3.178A6.323,6.323,0,0,1,30.564,61.7" fill="#fff"/><path d="M31.317,60.809c.176,3.611,4.87,7.087,9.337,5.787a1.453,1.453,0,0,1-1.2,1.816A9.338,9.338,0,0,1,30.2,62.934a1.482,1.482,0,0,1,1.114-2.115v-.01Z" fill="#6c53a3"/><path d="M30.554,67.566a6.362,6.362,0,0,0,4.8,3.426c-2.744,1.227-5.169-.4-4.8-3.426" fill="#6c53a3"/><path d="M32.4,68.082a10.876,10.876,0,0,0,6.716,1.393c-1.754,1.187-5.231,1.31-6.716-1.393" fill="#9178b7"/><path d="M51.157,32.076c-4.436-7.656-16.084-3.2-14.908,5.406,2.92-4.829,8.542-6.387,14.908-5.406" fill="#60459b"/><path d="M51.157,32.076c-2.507-4.323-7.779-4.6-11.3-2.219a3.2,3.2,0,0,0,.815,2.322,11.848,11.848,0,0,1,10.492-.1Z" fill="#6c53a3"/><path d="M74.35,61.211a8.4,8.4,0,1,1-8.471,8.4,8.44,8.44,0,0,1,8.471-8.4" fill="#6c53a3"/><path d="M74.35,62.439a7.16,7.16,0,1,1-7.232,7.16,7.2,7.2,0,0,1,7.232-7.16" fill="#9178b7"/><path d="M74.35,62.439a7.249,7.249,0,0,1,6.479,3.972c.258,3.735-4.3,6.489-7.335,5.2a7.168,7.168,0,0,1-3.787-6.294,6.926,6.926,0,0,1,.124-1.31,7.244,7.244,0,0,1,4.509-1.568Z" fill="#a58dc2"/><path d="M71.4,68.5c-.34-1.031,3.508-2.321,3.859-1.289l3.806,11.421c.341,1.031-3.507,2.321-3.858,1.289L71.4,68.5Z" fill="#2c313a"/><path d="M76.919,67.339a8.943,8.943,0,0,0-3.652,3.55,5.375,5.375,0,0,0,4.848,2.2c1.517-1.9.722-4.085-1.207-5.747Z" fill="#60459b"/><path d="M78.1,69.939a5.634,5.634,0,0,0-1.156-1.867A8.613,8.613,0,0,0,74.1,70.785a9.679,9.679,0,0,0,3.993-.856v.01Z" fill="#6c53a3"/><path d="M78.373,71.911a8.952,8.952,0,0,0-3.652,3.549,5.378,5.378,0,0,0,4.849,2.2c1.517-1.9.722-4.086-1.207-5.747Z" fill="#60459b"/><path d="M79.55,74.334a5.65,5.65,0,0,0-1.156-1.867,8.6,8.6,0,0,0-2.837,2.713,9.679,9.679,0,0,0,3.993-.856v.01Z" fill="#6c53a3"/><path d="M70.5,72.365a7.43,7.43,0,0,1,4.251-.124,4.521,4.521,0,0,1-1.5,4.189c-2.022-.186-2.868-1.94-2.744-4.055l-.011-.01Z" fill="#60459b"/><path d="M71.379,74.4a4.564,4.564,0,0,1-.444-1.774,7.182,7.182,0,0,1,3.281-.124,8.285,8.285,0,0,1-2.827,1.9Z" fill="#6c53a3"/><path d="M67.623,41.444a13.868,13.868,0,1,0,14.63,13.061,13.87,13.87,0,0,0-14.63-13.061" fill="#3a404d"/><path d="M67.726,43.156A12.153,12.153,0,1,0,80.55,54.6,12.152,12.152,0,0,0,67.726,43.156" fill="#d3e8ef"/><path d="M77.651,61.3a11.018,11.018,0,0,0-6.283-16.642c-.361,4.179-.733,8.3-1.124,12.515A38.955,38.955,0,0,1,77.662,61.3Z" fill="#fff"/><path d="M67.551,44.508a10.557,10.557,0,0,0-9.533,13.525c-.021-.165-.031-.34-.042-.515A12.273,12.273,0,0,1,69.522,44.58h.051a10.829,10.829,0,0,0-2.012-.072Z" fill="#fff"/><path d="M58.007,61.572a12.809,12.809,0,0,0,.723,1.073l3.58-4.962,8.254,3.435,4.787-9.883,4.8.918a13.258,13.258,0,0,0-.433-1.321l-5.045-.97-4.7,9.7L61.9,56.2l-3.889,5.386v-.011Z" fill="#989898"/><path d="M61.969,54.433a2.5,2.5,0,1,1-2.352,2.641,2.5,2.5,0,0,1,2.352-2.641" fill="#3bb984"/><path d="M74.876,48.046a2.5,2.5,0,1,1-2.353,2.642,2.505,2.505,0,0,1,2.353-2.642" fill="#ea5064"/><path d="M70.13,57.838a2.5,2.5,0,1,1-2.352,2.641,2.5,2.5,0,0,1,2.352-2.641" fill="#f6893f"/></svg>