<svg xmlns="http://www.w3.org/2000/svg" viewBox="0 0 96 96"><rect width="96" height="96" fill="#fff" opacity="0"/><path d="M17.642,29.535q10.521-6.147,21.042-12.288c2.881-1.677,5.786-3.311,8.68-4.965.31-.1.38.093.418.331-1.22,3.42-2.979,6.6-4.4,9.931-.8,1.866-1.732,3.673-2.495,5.554a9.953,9.953,0,0,1-1.077,1.707h.012a1.865,1.865,0,0,1-1.163.639c-1.8.3-3.578-.175-5.371-.218-3.937-.094-7.851.49-11.787.319a12.944,12.944,0,0,1-2.746-.277C18.312,30.152,17.736,30.193,17.642,29.535Z" fill="#145e88"/><path d="M78.278,66.451,52.668,81.387c-1.256.733-2.5,1.479-3.776,2.18-.367.2-.749.762-1.247.167-.3-3.958-.116-7.92-.1-11.88a1.268,1.268,0,0,1,.441-1.035l.076-.034.059.058c3.457-1.25,7.121-1.45,10.7-2.042,4.452-.736,8.92-1.381,13.373-2.115,1.581-.26,3.175-.418,4.756-.681C77.426,65.925,78.044,65.693,78.278,66.451Z" fill="#335d24"/><path d="M28.152,36.811a.519.519,0,0,1-.062.276,22.11,22.11,0,0,1-1.483,4.4q-4.253,10.613-8.5,21.225a10.38,10.38,0,0,1-1.058,2.066c-.468.153-.277-.256-.278-.384q-.018-17.008-.012-34.019c.49-.378.942-.087,1.336.144,3.359,1.965,6.829,3.742,10.08,5.894A.322.322,0,0,1,28.152,36.811Z" fill="#145e88"/><path d="M47.669,12.591l-.3-.309c.377-.5.756-.223,1.136,0L77.413,28.945c-.475.922-1.283.425-1.889.344-5.231-.7-10.465-1.375-15.688-2.129-2.779-.4-5.565-.753-8.346-1.141a13.127,13.127,0,0,1-3.363-.843l-.093.021-.072-.063a2.283,2.283,0,0,1-.454-1.766,79.616,79.616,0,0,0-.241-8.668A4.343,4.343,0,0,1,47.669,12.591Z" fill="#1c74a7"/><path d="M67.7,59.473a.326.326,0,0,1,.117-.246c.845-3.608,2.521-6.906,3.861-10.328C73.832,43.39,76.2,37.965,78.268,32.42a3.588,3.588,0,0,1,.583-.948c.668,0,.332.518.333.764q.054,16.461.065,32.92c0,.333.056.694-.314.9a22.7,22.7,0,0,1-4.188-2.216c-2.024-1.107-4.023-2.259-6.008-3.436C68.335,60.166,67.85,60,67.7,59.473Z" fill="#3e7228"/><path d="M46.685,83.184Q37.7,78.149,28.726,73.112c-3.582-2.015-7.151-4.054-10.914-6.188,1.85-1.078,3.562-2.12,5.315-3.086A49.3,49.3,0,0,1,29.3,60.424a25.219,25.219,0,0,1,4.311,4.881C37.877,70.757,42.2,76.164,46.485,81.6a2.1,2.1,0,0,1,.651,1.263C47.138,83.137,47.009,83.318,46.685,83.184Z" fill="#27431b"/><path d="M78.851,31.472l-.265.943c-1.82,4.006-4.321,7.622-6.528,11.407-1.045,1.792-2.12,3.568-3.2,5.338-.273.448-.492.957-1.087,1.086-.081-.016-.161-.029-.243-.039-2.85.463-5.7-.044-8.541-.083-3-.041-6.009-.075-9-.4-.531-.057-1.21.131-1.424-.652q11.3-6.611,22.594-13.218C73.705,34.371,76.284,32.933,78.851,31.472Z" fill="#51912f"/><path d="M67.7,59.473c3.76,2.171,7.667,4.091,11.237,6.585l-.657.393c-1.738-.327-3.405.27-5.08.5-5.286.722-10.543,1.648-15.814,2.48-3.085.487-6.174.944-9.262,1.414Q57.817,65,67.7,59.473Z" fill="#3b6a26"/><path d="M48.56,49.076a30.749,30.749,0,0,0,5.969.509c4.151.207,8.309.263,12.464.395a1.622,1.622,0,0,1,.532.227L48.045,62.068c0-1.276,0-2.263,0-3.249-.01-2.761-.035-5.522-.021-8.282C48.025,50.012,47.736,49.322,48.56,49.076Z" fill="#599f35"/><path d="M39.811,30.056,58.49,40.723,47.466,47.145c-.368.214-.723.282-1.024-.114-2.337-5.095-4.365-10.322-6.562-15.477C39.681,31.087,39.394,30.574,39.811,30.056Z" fill="#1e82bb"/><path d="M48.127,25.176q6.874.906,13.748,1.816c3.961.533,7.917,1.113,11.883,1.617a11.058,11.058,0,0,0,3.655.336c.881.271.371.544-.013.771-1.542.908-3.093,1.8-4.64,2.7q-2.634,1.533-5.266,3.068c-.41.239-.76.5-1.313.177Q57.169,30.394,48.127,25.176Z" fill="#1e82bb"/><path d="M46.685,83.184c.542-.559-.049-.855-.309-1.185q-6.985-8.874-13.994-17.733c-1.018-1.288-2.053-2.562-3.08-3.842a35.026,35.026,0,0,1,4.693,2.516c4.675,2.606,9.33,5.25,13.992,7.879-.008,3.809-.009,7.618-.032,11.427,0,.506.19,1.076-.31,1.488A1.6,1.6,0,0,1,46.685,83.184Z" fill="#2b4f20"/><path d="M39.811,30.056c.89,3.124,2.436,5.985,3.612,9,.949,2.428,2.01,4.812,3.015,7.218.1.246.349.507,0,.762Q38.07,42.29,29.7,37.553a3.763,3.763,0,0,0-1.544-.742l-.034-.312c.183-.582.733-.751,1.18-1.014,2.593-1.524,5.206-3.012,7.775-4.577.587-.358,1.277-.456,1.851-.825l.894-.279A1.119,1.119,0,0,0,39.811,30.056Z" fill="#1c74a7"/><path d="M17.048,64.774A66.3,66.3,0,0,1,20.062,56.8c2.483-6.4,5.079-12.746,7.637-19.111a3.606,3.606,0,0,1,.391-.6q.045,10.269.1,20.539a1.165,1.165,0,0,1-.674,1.154C24.019,60.765,20.536,62.773,17.048,64.774Z" fill="#114a6c"/><path d="M38.924,30.083c-1.869,1.544-4.106,2.491-6.139,3.772-1.511.951-3.108,1.767-4.666,2.644-3.093-1.431-5.947-3.288-8.9-4.974a8.686,8.686,0,0,0-2.464-1.154c-.033-.625.491-.661.884-.836,3.21.943,6.493.6,9.74.423a52.73,52.73,0,0,1,8.5.026C36.892,30.09,37.911,30.054,38.924,30.083Z" fill="#186897"/><path d="M47.669,12.591c.373,4.175.291,8.36.293,12.543l-8.156,4.671c1.259-3.448,2.941-6.71,4.448-10.048A69.93,69.93,0,0,1,47.669,12.591Z" fill="#186897"/><path d="M67.768,50.246q5.194-8.629,10.391-17.259a6.907,6.907,0,0,1,.427-.572,63.428,63.428,0,0,1-2.722,7.143C73.265,46.051,70.629,52.53,68,59.012c-.034.084-.124.144-.188.215Z" fill="#467e29"/></svg>