<svg xmlns="http://www.w3.org/2000/svg" xmlns:xlink="http://www.w3.org/1999/xlink" viewBox="0 0 96 96"><defs><clipPath id="a"><rect x="3" y="72.981" width="90" height="9.702" fill="none"/></clipPath></defs><rect width="96" height="96" fill="#fff" opacity="0"/><g opacity="0.149"><g clip-path="url(#a)"><path d="M48,72.981c24.839,0,45,2.162,45,4.852s-20.163,4.85-45,4.85S3,80.521,3,77.833s20.161-4.852,45-4.852"/></g></g><path d="M75.059,34.41c.585-.351.7-2.513.76-3.156a2.068,2.068,0,0,1,3.156-1.344c2.046,1.46,3.1,4.266,3.389,6.662.292,2.454.059,5.727-1.694,7.656-1.87,2.1-6.6,2.747-9.409,2.455-.76-.059-1.461-.234-2.163-.351L67.754,34.293l1.462.292c1.461.292,4.442.585,5.786-.175Z" fill="#996"/><path d="M79.617,32.072a4.882,4.882,0,0,0-1.227-1.227.926.926,0,0,0-1.4.526l-.057.409a3.9,3.9,0,0,1,2.688.292m1.637,8.241a11.991,11.991,0,0,0-.468-5.9,4.083,4.083,0,0,0-1.812-1.4c-1.111-.467-1.7-.292-2.219.176a5.765,5.765,0,0,1-.293,1.168c3.039.994,4.325,3.916,4.792,6.019v-.057ZM72.37,35.988a16.053,16.053,0,0,1-3.272-.351l1.051,9.7a14.479,14.479,0,0,0,4.5.118c1.052-3.741,0-8.124-2.337-9.526Zm3.273-.643a5.28,5.28,0,0,1-1.694.525c2.1,2.222,2.746,6.254,1.985,9.41a7.627,7.627,0,0,0,3.974-1.812c.176-.175.292-.409.469-.584,0-3.332-1.345-6.9-4.559-7.6-.059.058-.059.058-.118.058Z" fill="#c0c0a0"/><path d="M75.059,41.656a12.275,12.275,0,0,1-4.034.293,8.46,8.46,0,0,1-1.285-.234l-.7-6.019a16.052,16.052,0,0,0,3.273.35c1.519.935,2.514,3.156,2.689,5.61Zm4.267-8.474c.056.351.115.7.174,1.052a10.267,10.267,0,0,1,.059,2.338,6.861,6.861,0,0,0-3.1-2.221,5.761,5.761,0,0,0,.292-1.169,1.9,1.9,0,0,1,2.219-.175l.353.175M78.448,30.9a6,6,0,0,1,.41.877,3.8,3.8,0,0,0-1.988-.058l.059-.409a.922.922,0,0,1,1.4-.526l.118.057V30.9Zm-2.8,4.442a5.311,5.311,0,0,1-1.7.525,9.346,9.346,0,0,1,2.221,5.436,4.573,4.573,0,0,0,2.045-1.285c.469-.469-.76-4.384-2.454-4.734-.059.058-.059.058-.117.058" fill="#fbfac4"/><path d="M20.24,34.41c-.585-.351-.7-2.513-.761-3.156a2.068,2.068,0,0,0-3.155-1.344c-2.047,1.46-3.1,4.266-3.39,6.662-.292,2.454-.058,5.727,1.7,7.656,1.87,2.1,6.6,2.747,9.409,2.455.76-.059,1.461-.234,2.163-.351l1.344-12.039-1.462.292c-1.461.292-4.442.585-5.786-.175Z" fill="#996"/><path d="M15.682,32.072a4.895,4.895,0,0,1,1.226-1.227.927.927,0,0,1,1.4.526l.057.409a3.9,3.9,0,0,0-2.688.292m-1.637,8.241a11.991,11.991,0,0,1,.468-5.9,4.086,4.086,0,0,1,1.811-1.4c1.111-.467,1.7-.292,2.22.176a5.765,5.765,0,0,0,.293,1.168c-3.039.994-4.325,3.916-4.793,6.019v-.057Zm8.884-4.325a16.053,16.053,0,0,0,3.272-.351l-1.052,9.7a14.473,14.473,0,0,1-4.5.118c-1.053-3.741,0-8.124,2.337-9.526Zm-3.273-.643a5.28,5.28,0,0,0,1.694.525c-2.1,2.222-2.746,6.254-1.985,9.41a7.635,7.635,0,0,1-3.975-1.812c-.176-.175-.291-.409-.468-.584,0-3.332,1.345-6.9,4.559-7.6.058.058.058.058.118.058Z" fill="#c0c0a0"/><path d="M20.24,41.656a12.271,12.271,0,0,0,4.033.293,8.473,8.473,0,0,0,1.286-.234l.7-6.019a16.06,16.06,0,0,1-3.273.35c-1.519.935-2.513,3.156-2.689,5.61Zm-4.267-8.474q-.086.526-.175,1.052a10.272,10.272,0,0,0-.057,2.338,6.853,6.853,0,0,1,3.1-2.221,5.761,5.761,0,0,1-.292-1.169,1.9,1.9,0,0,0-2.219-.175l-.353.175m.878-2.279a6,6,0,0,0-.41.877,3.794,3.794,0,0,1,1.988-.058l-.059-.409a.922.922,0,0,0-1.4-.526l-.118.057V30.9Zm2.805,4.442a5.311,5.311,0,0,0,1.7.525,9.346,9.346,0,0,0-2.221,5.436,4.576,4.576,0,0,1-2.046-1.285c-.467-.469.761-4.384,2.455-4.734.058.058.058.058.117.058" fill="#fbfac4"/><path d="M26.726,32.072a25.958,25.958,0,0,0-6.019.526l1.753-1.7a24.685,24.685,0,0,1,6.139-4.15A30.058,30.058,0,0,1,39.175,23.54a49.1,49.1,0,0,0-8.24-2.28c10.579-2.22,24.136-3.039,33.839,5.2,5.552,4.735,8.591,13.5,8.591,21.449,0,29.982-51.079,29.982-51.079,0a24.054,24.054,0,0,1,2.864-11.4,14.2,14.2,0,0,0-2.047.7l-3.1,1.286,2.218-2.513a18.037,18.037,0,0,1,4.618-3.8Z" fill="#8ed41e"/><path d="M49.637,22.838a25.4,25.4,0,0,1,13.849,5.669c4.909,4.149,7.539,11.863,7.539,18.818,0,12.739-10.519,19.344-21.389,19.695V22.838Z" fill="#70a91b"/><path d="M30.817,29.325c3.858-2.572,10.17-3.39,17.768-2.98A12.482,12.482,0,0,0,44.2,22.9c3.448-.117,6.194.643,13.032,2.98a33.009,33.009,0,0,0-19.928-4.266,24.4,24.4,0,0,1,6.954,3.273c-6.954-.76-14.962,2.571-18.176,5.318a11.171,11.171,0,0,1,5.962,1.052,15.938,15.938,0,0,0-6.371,3.565A34.979,34.979,0,0,1,34.968,31.2c-1.52-.527-2.338-1.462-4.151-1.871" fill="#a1e141"/><path d="M47.765,22.253A12.487,12.487,0,0,1,60.448,34.585a12.686,12.686,0,0,1-25.363,0,12.524,12.524,0,0,1,12.68-12.332" fill="#70a91b"/><path d="M27.662,46.1c.409-.76,38.864-1.052,39.624,0,1.343,1.753.585,3.448,0,4.909H27.662c-.35-1.578-.935-3.273,0-4.909" fill="#70a91b"/><path d="M28.188,47.208c.409-.993,37.87-1.4,38.63,0,1.286,2.4.526,4.734,0,6.721H28.188c-.351-2.163-.876-4.441,0-6.721" fill="#4b7113"/><path d="M59.338,21.728c-.526-9.994-13.968-11.046-17.474-3.214,6.2-3.39,12.506-2.163,17.474,3.214" fill="#70a91b"/><path d="M51.857,13.429a9.214,9.214,0,0,0-9.934,5.025,14.521,14.521,0,0,1,7.013-1.869,7.265,7.265,0,0,1,2.981-3.156Z" fill="#85c51f"/><path d="M47.765,20.968a11.4,11.4,0,1,1-11.394,11.4,11.374,11.374,0,0,1,11.394-11.4" fill="#d3e8ef"/><path d="M40.578,23.89c3.8-3.156,9.117-3.156,11.805.117,2.688,3.215,1.754,8.416-2.045,11.63-3.8,3.156-9.117,3.156-11.807-.117-2.687-3.214-1.751-8.415,2.047-11.63" fill="#fff"/><path d="M48.058,28.507a7.734,7.734,0,0,1,8.007,7.481,7.734,7.734,0,0,1-8.007,7.48,7.733,7.733,0,0,1-8.006-7.48,7.733,7.733,0,0,1,8.006-7.481" fill="#0d82df"/><path d="M48.058,28.507a8.254,8.254,0,0,1,5.552,2.1,10.587,10.587,0,0,1-3.273,5.026c-3.156,2.63-7.362,3.039-10.227,1.286a4.756,4.756,0,0,1-.058-.935,7.733,7.733,0,0,1,8.006-7.481" fill="#0399ed"/><path d="M48.058,31.2A5.01,5.01,0,0,1,53.2,35.988,5.156,5.156,0,1,1,48.058,31.2" fill="#232323"/><path d="M48.058,31.2a5.337,5.337,0,0,1,4.325,2.162,9.2,9.2,0,0,1-2.046,2.22,9.857,9.857,0,0,1-6.955,2.338,4.519,4.519,0,0,1-.467-1.987,4.973,4.973,0,0,1,5.143-4.792Z" fill="#323232"/><path d="M43.558,28.916a3.573,3.573,0,1,1-3.8,3.565,3.672,3.672,0,0,1,3.8-3.565" fill="#fff"/><path d="M21.175,50.014a187.26,187.26,0,0,1,53.008,0c1.286,9.233.584,18,0,26.824-17.649.7-35.359.819-53.008,0a108.453,108.453,0,0,1,0-26.824" fill="#9caeb3"/><path d="M26.26,75.027c14.318.525,28.578.468,42.9,0C64.013,72.1,58.87,69.3,53.085,67.722a41.03,41.03,0,0,1-5.845,2.162,1,1,0,0,1-.584,0A49.123,49.123,0,0,1,41.8,68.015a62.661,62.661,0,0,0-15.6,7.071ZM22.87,53.052a99.465,99.465,0,0,0,.117,21.273,71.052,71.052,0,0,1,16.421-7.6C32.746,63.222,28.071,58.2,22.87,53.052m48.155-1.4a187.672,187.672,0,0,0-46.869,0c6.428,7.187,13.5,13.091,22.91,16.187,9.993-2.862,16.888-9.115,23.959-16.187M72.37,74.325c.468-7.071.935-14.142.176-21.213-5.259,5.2-10.87,10.168-17.416,13.615a86.053,86.053,0,0,1,17.3,7.6Z" fill="#d3e8ef"/><path d="M26.26,75.027c6.9.234,13.79.35,20.746.35V69.884a.778.778,0,0,1-.292-.059,48.539,48.539,0,0,1-4.85-1.869,62.7,62.7,0,0,0-15.6,7.071M22.87,53.052a99.465,99.465,0,0,0,.117,21.273,71.052,71.052,0,0,1,16.421-7.6C32.746,63.222,28.071,58.2,22.87,53.052m24.136-2.863a175.524,175.524,0,0,0-22.85,1.462c6.371,7.188,13.5,13.032,22.85,16.187Z" fill="#fff"/><path d="M37.071,54.4a3.658,3.658,0,0,1-.29.7,2.1,2.1,0,0,1-.644.934,2.378,2.378,0,0,1-2.339.058,7.346,7.346,0,0,1-3.565-4.032,7.415,7.415,0,0,1-.409-5.26,310.438,310.438,0,0,1,35.358-.059V46.8h.176a9.948,9.948,0,0,1-.467,4.443c-.526,1.87-1.638,4.148-3.507,5.024a2.06,2.06,0,0,1-2.163.059,2.85,2.85,0,0,1-.7-.935,6.366,6.366,0,0,1-.642-2.279,1.479,1.479,0,0,1-.994.876,17.027,17.027,0,0,1-2.4.35c-.76.06-1.576.119-2.4.119a13.458,13.458,0,0,1-3.74-.468,1.956,1.956,0,0,1-1.168,1.576,11.841,11.841,0,0,1-2.513.411c-.877.058-1.754.117-2.572.117a10.73,10.73,0,0,1-4.091-.643,1.575,1.575,0,0,1-.935-.993V54.4Z" fill="#996"/><path d="M56.883,46.39c.468,2.63.35,6.02-.409,6.2-1.169.292-5.669.761-7.889-.057-.586-1.11-.586-3.916-.527-6.195,3.039,0,6.078,0,8.825.057m-18.877.526c-.409,1.228-.818,2.63-1.227,4.326-.234,1.052-.409,2.1-.586,2.863-.233,1.051-.759,1.227-1.753.818-2.572-1.11-3.914-5.434-3.8-8.065,1.754-.117,4.384-.234,7.364-.351,2.865-.058,6.079-.117,9.293-.117.291,3.215.291,7.072-.409,7.89-1.229.41-6.019.994-8.358-.058-1.053-.467-.644-4.383-.585-7.247Zm19.345-.526c.349,1.4.759,2.864,1.167,4.734.234,1.169.352,2.281.527,3.039.234,1.169.7,1.344,1.636.877,2.28-1.17,3.566-5.495,3.506-8.357-1.693-.117-4.09-.234-6.836-.293" fill="#c0c0a0"/><path d="M48.058,47.968c2.747,0,5.495,0,8.007.058.409,1.462.409,4.092-1.345,4.734a16.35,16.35,0,0,1-6.136-.35,12.565,12.565,0,0,1-.526-4.442m-10.111.175c2.514-.058,5.377-.117,8.241-.117.291,2.1.818,6.313-1.812,6.546a13.635,13.635,0,0,1-5.845-.467c-.874-.409-.759-3.331-.642-5.9ZM30.76,48.5c1.227-.118,2.862-.177,4.79-.235.234,0,.7,5.786.7,5.786-.234,1.052-.76,1.228-1.753.819-2.046-.877-3.332-3.8-3.683-6.313Zm28.285,5.668c.234,1.169.7,1.344,1.636.877,1.872-.935,3.04-3.975,3.391-6.6-1.11-.118-2.454-.176-4.034-.234-.934.7-1.111,5.552-.993,5.961" fill="#fbfac4"/><path d="M43.032,48.085c.118,2.28,0,4.558-.291,4.733-.584.353-2.747.819-3.8-.058-.411-.291-.352-2.513-.293-4.617,1.4-.058,2.864-.058,4.442-.117Zm9.819-.059c.058,1.7-.059,3.273-.292,3.39a4.581,4.581,0,0,1-3.624-.058c-.35-.234-.35-1.813-.293-3.39h4.21v.058Zm-18.468.292c-.059.643-.059,1.4-.059,2.163v2.337c0,.878-.233,1.052-.7.643-.934-.7-1.753-2.921-2.1-4.966.818-.06,1.812-.118,2.864-.177m28.987.059c-.761-.059-1.637-.117-2.63-.117,0,.643.059,1.344.059,2.105v2.512c0,.936.175,1.111.642.7.819-.76,1.579-2.98,1.929-5.2" fill="#fff"/><path d="M24.682,75.5A6.374,6.374,0,0,1,18.2,80.228c-4.033-.176-10.287-4.617-10.17-9,.059-2.454,1.871-4.676,3.741-6.078,1.812-1.4,4.85-2.863,7.189-2.221s3.973,3.858,4.733,5.961c.7,1.812,1.4,4.677.934,6.605Z" fill="#85c51f"/><path d="M23.688,75.2a6.529,6.529,0,0,0,.117-1.111c-.759-3.214-2.572-6.895-4.617-7.479-3.156-.937-9.525,3.272-9.176,7.6,1.754,2.688,5.495,4.909,8.183,5.025a5.373,5.373,0,0,0,5.494-3.974V75.2Z" fill="#70a91b"/><path d="M20.766,71.929c.817-1.636-.525-4.5-2.571-4.267-2.163.293-6.838,3.507-6.838,6.021,0,1.578,2.162,2.689,4.441,2.046a10,10,0,0,0,4.968-3.8m1.812,4.091c.409-.994-.176-2.746-1.345-2.572-1.227.235-4.15,2.338-4.032,3.507.057.936,1.7,1.754,2.981,1.286a4.951,4.951,0,0,0,2.4-2.221" fill="#5d8d17"/><path d="M17.552,64.332c.058,1.052-1.988,1.986-2.806,1.227-.7-1.344-.525-2.981.059-3.331.643-.351,2.221.293,2.747,2.1" fill="#2c440c"/><path d="M13.578,66.261c.232,1.167-1.345,2.162-2.1,1.636-.993-.993-1.343-2.747-.878-3.156s2.164.234,2.983,1.52" fill="#2c440c"/><path d="M10.6,69.183a1.345,1.345,0,0,1-1.286,1.754c-.934-.7-1.81-2.338-1.461-2.748.351-.467,1.929,0,2.747.994" fill="#2c440c"/><path d="M25.558,58.313c.468-.877-.818-1.463-1.87-1.872-1.053-.35-1.578-.35-1.987.527-.468.876-.7,2.22.409,2.57a3.652,3.652,0,0,0,3.507-1.227h-.059Z" fill="#2c440c"/><path d="M26.494,55.04c.117.993-1.287,1.519-2.455,1.754-1.11.234-1.578.116-1.694-.878s.175-2.571,1.344-2.8a2.748,2.748,0,0,1,2.805,1.928" fill="#2c440c"/><path d="M26.726,51.767c.119.936-1.285,1.4-2.452,1.638-1.111.232-1.579.116-1.7-.877-.119-.935.175-2.4,1.285-2.63a2.726,2.726,0,0,1,2.806,1.81Z" fill="#2c440c"/><path d="M17.552,49.605c.174.761,1.636.584,2.746.352,1.11-.293,1.52-.527,1.286-1.286-.176-.76-.877-1.812-1.985-1.52s-2.222,1.695-2.047,2.513Z" fill="#2c440c"/><path d="M16.559,58.9l.349.993-.759-.584a3.592,3.592,0,0,1-.877-1.169,6.811,6.811,0,0,0,.234,1.169c-1.11-1.812-2.105-3.8-1.462-6.428.586-2.4,2.982-3.508,4.677-3.974a8.944,8.944,0,0,1,3.271-.351,3.482,3.482,0,0,1,2.221.817A6.322,6.322,0,0,1,25.031,52a14.667,14.667,0,0,1-.057,3.915,8.42,8.42,0,0,1-1.111,3.215,3.842,3.842,0,0,1-1.694,1.52,4.126,4.126,0,0,1-2.515.233A6.057,6.057,0,0,1,16.5,58.956Z" fill="#85c51f"/><path d="M23.63,50.189c.7.819,1.052,4.268.233,6.78a3.414,3.414,0,0,1-.817.117,4.642,4.642,0,0,1-3.332-1.168,1.866,1.866,0,0,0,.292.76,3.883,3.883,0,0,1-1.7-2.162,7.558,7.558,0,0,0,.292,1.637,4.411,4.411,0,0,1-2.1-2.337,2.354,2.354,0,0,1,.409-2.864c2.162-1.578,5.845-1.7,6.662-.7Z" fill="#a1e141"/><path d="M70.676,75.5a6.371,6.371,0,0,0,6.487,4.733c4.032-.176,10.285-4.617,10.167-9-.056-2.454-1.87-4.676-3.739-6.078-1.812-1.4-4.852-2.863-7.189-2.221s-3.973,3.858-4.733,5.961c-.7,1.812-1.4,4.677-.934,6.605Z" fill="#85c51f"/><path d="M71.611,75.2a6.423,6.423,0,0,1-.119-1.111c.761-3.214,2.572-6.895,4.618-7.479,3.156-.937,9.525,3.272,9.176,7.6-1.754,2.688-5.5,4.909-8.182,5.025a5.372,5.372,0,0,1-5.5-3.974V75.2Z" fill="#70a91b"/><path d="M74.591,71.929c-.819-1.636.525-4.5,2.572-4.267C79.325,67.955,84,71.169,84,73.683c0,1.578-2.162,2.689-4.441,2.046a10,10,0,0,1-4.968-3.8M72.779,76.02c-.409-.994.175-2.746,1.344-2.572,1.228.235,4.149,2.338,4.033,3.507-.059.936-1.7,1.754-2.981,1.286a4.942,4.942,0,0,1-2.4-2.221" fill="#5d8d17"/><path d="M77.747,64.332c-.059,1.052,1.988,1.986,2.805,1.227.7-1.344.526-2.981-.058-3.331-.643-.351-2.222.293-2.747,2.1" fill="#2c440c"/><path d="M81.721,66.261c-.232,1.167,1.344,2.162,2.1,1.636.993-.993,1.343-2.747.877-3.156s-2.164.234-2.982,1.52" fill="#2c440c"/><path d="M84.7,69.183a1.345,1.345,0,0,0,1.285,1.754c.934-.7,1.811-2.338,1.461-2.748-.351-.467-1.928,0-2.746.994" fill="#2c440c"/><path d="M69.74,58.313c-.468-.877.818-1.463,1.871-1.872,1.052-.35,1.577-.35,1.986.527.468.876.7,2.22-.409,2.57a3.653,3.653,0,0,1-3.507-1.227h.059Z" fill="#2c440c"/><path d="M68.863,55.04c-.116.993,1.286,1.519,2.455,1.754,1.111.234,1.578.116,1.7-.878s-.175-2.571-1.344-2.8a2.749,2.749,0,0,0-2.806,1.928" fill="#2c440c"/><path d="M68.572,51.767c-.118.936,1.286,1.4,2.453,1.638,1.11.232,1.579.116,1.694-.877.119-.935-.174-2.4-1.285-2.63a2.725,2.725,0,0,0-2.8,1.81Z" fill="#2c440c"/><path d="M77.805,49.605c-.176.761-1.637.584-2.748.352-1.109-.293-1.519-.527-1.285-1.286.176-.76.876-1.812,1.986-1.52s2.222,1.695,2.047,2.513Z" fill="#2c440c"/><path d="M78.74,58.9l-.35.993.76-.584a3.576,3.576,0,0,0,.876-1.169,6.719,6.719,0,0,1-.233,1.169c1.11-1.812,2.1-3.8,1.461-6.428-.585-2.4-2.982-3.508-4.676-3.974a8.946,8.946,0,0,0-3.271-.351,3.482,3.482,0,0,0-2.221.817A6.322,6.322,0,0,0,70.268,52a14.585,14.585,0,0,0,.058,3.915,8.4,8.4,0,0,0,1.11,3.215,3.842,3.842,0,0,0,1.694,1.52,4.123,4.123,0,0,0,2.514.233A6.06,6.06,0,0,0,78.8,58.956Z" fill="#85c51f"/><path d="M71.669,50.189c-.7.819-1.053,4.268-.234,6.78a3.422,3.422,0,0,0,.818.117,4.643,4.643,0,0,0,3.332-1.168,1.894,1.894,0,0,1-.293.76,3.875,3.875,0,0,0,1.695-2.162,7.62,7.62,0,0,1-.292,1.637A4.416,4.416,0,0,0,78.8,53.816a2.355,2.355,0,0,0-.409-2.864c-2.163-1.578-5.845-1.7-6.663-.7Z" fill="#a1e141"/></svg>