<svg xmlns="http://www.w3.org/2000/svg" viewBox="0 0 96 96"><rect width="96" height="96" fill="#fff" opacity="0"/><path d="M21.855,13h52.29A8.855,8.855,0,0,1,83,21.855V83H21.855A8.856,8.856,0,0,1,13,74.145V21.855A8.855,8.855,0,0,1,21.855,13Z" fill="#a4286a"/><path d="M83,21.855A8.853,8.853,0,0,0,74.162,13L34.6,83H83Z" fill="#6c2548"/><path d="M23.416,59.928v4.886a10.4,10.4,0,0,0,7.392-3.15c2-2.03,3.836-5.32,5.586-10.206l12.964-34.72H43.086L32.642,45.746l-5.18-16.268h-5.74L29.338,49.05a8.051,8.051,0,0,1,0,5.852A7.318,7.318,0,0,1,23.416,59.928Z" fill="#fff"/><path d="M71.268,18.026,57.856,41.756a13.629,13.629,0,0,0,13.412-23.73Z" fill="#77b227"/><path d="M52.69,23.192a13.623,13.623,0,0,0,5.16,18.561h0L71.268,18.026A13.622,13.622,0,0,0,52.7,23.169h0Z" fill="#9fda4f"/><path d="M54.23,48.07,45.466,63.582A8.908,8.908,0,1,0,54.23,48.07Z" fill="#f49a00"/><path d="M54.258,48.1A8.906,8.906,0,0,0,45.48,63.6Z" fill="#fec228"/><path d="M41.406,70.778l-5.264,9.31a5.348,5.348,0,0,0,5.25-9.31Z" fill="#ed261f"/><path d="M41.406,70.792a5.349,5.349,0,0,0-5.726,9.036c.148.093.3.18.459.26Z" fill="#ff4e47"/></svg>