<svg xmlns="http://www.w3.org/2000/svg" viewBox="0 0 96 96"><rect width="96" height="96" fill="#fff" opacity="0"/><path d="M15.11,54.935a14.507,14.507,0,0,0,12.205-3.442l5.633.313-3.067,8.982c-3.411,5.414-8.326,6.539-13.394,6.227L15.11,54.967Z" fill="#7eaab9"/><path d="M17.207,56.97l.939,8.229c4.193-.031,7.573-1.408,10.077-5.226l2.222-6.447L27.972,53.4A15.749,15.749,0,0,1,17.239,56.97Z" fill="#d3e8ef"/><path d="M17.207,56.97l.563,4.882c5.79-.689,10.3-3.067,12.643-8.326L27.941,53.4A15.754,15.754,0,0,1,17.207,56.97Z" fill="#fff"/><path d="M16.487,47.863a9.576,9.576,0,1,1-9.576,9.576h0a9.576,9.576,0,0,1,9.576-9.576Z" fill="#7eaab9"/><path d="M16.487,49.74a7.668,7.668,0,1,0,7.667,7.668h0A7.66,7.66,0,0,0,16.5,49.74Z" fill="#d3e8ef"/><path d="M16.487,49.74A7.611,7.611,0,0,0,10.2,53.026a7.7,7.7,0,0,0,7.668,7.2,7.613,7.613,0,0,0,6.29-3.285A7.7,7.7,0,0,0,16.487,49.74Z" fill="#fff"/><path d="M15.484,49.24A7.136,7.136,0,1,1,8.35,56.377v0a7.132,7.132,0,0,1,7.129-7.135Z" fill="#7eaab9"/><path d="M14.985,47.331A7.167,7.167,0,1,1,7.818,54.5h0A7.186,7.186,0,0,1,14.985,47.331Z" fill="#7f401c"/><path d="M15.673,50.084a5.7,5.7,0,1,0,5.7,5.7h0A5.7,5.7,0,0,0,15.673,50.084Z" fill="#b85c28"/><path d="M11.386,41.541a3.13,3.13,0,0,1,6.259,0c1.752-2.942,7.228-1.314,5.508,3.286.1.376.156.72.218,1.095,2.974.157,3.944,4.82-.124,6.259a8.937,8.937,0,0,1-1.595,3.285c-3.505,3-4.632.533-6.51-1.5-1.815.064-6.822-1.252-5.414,3.443-3.193-2-5.259-6.134-3.694-12.2-2.159-4.882,3.537-6.7,5.352-3.693Z" fill="#7f401c"/><path d="M7.943,45.891c-.751,2.942-.782,6.259,1.315,8.638C12.2,57.878,18.145,57.721,20.43,53.5a11.423,11.423,0,0,0,.626-7.636,32.611,32.611,0,0,0-13.143.062Z" fill="#b85c28"/><path d="M7.943,45.891c-.751,2.942-.782,6.259,1.315,8.638a7.094,7.094,0,0,0,5.257,2.346V45.2A38.983,38.983,0,0,0,7.943,45.891Z" fill="#e1762e"/><path d="M10.822,48.144a5.186,5.186,0,0,0,.752,4.82,3.855,3.855,0,0,0,6.227-.595,6.213,6.213,0,0,0,.344-4.256A18.046,18.046,0,0,0,10.822,48.144Z" fill="#7f401c"/><path d="M20.492,41.541A1.659,1.659,0,1,1,18.834,43.2h0A1.669,1.669,0,0,1,20.492,41.541Zm-6.008,2.1a1.659,1.659,0,1,0,0-3.318Z" fill="#b85c28"/><path d="M14.484,43.638V40.352a1.659,1.659,0,0,0,0,3.318ZM8.819,41.729a1.659,1.659,0,1,1-1.658,1.659h0A1.669,1.669,0,0,1,8.819,41.729Z" fill="#e1762e"/><path d="M22.339,47.549a1.659,1.659,0,1,1-1.659,1.659h0A1.671,1.671,0,0,1,22.339,47.549Z" fill="#b85c28"/><path d="M79.264,67.141c-.376-4.977-2.629-8.544-7.073-10.484l.877-3.443L80.2,51.305c6.227,1.878,8.669,5.853,9.857,10.859L79.294,67.172Z" fill="#7eaab9"/><path d="M80.735,64.418l7.1-3.318c-1.252-4.162-3.318-6.854-7.7-7.918l-5.571,1.5-.25.938A12.872,12.872,0,0,1,80.7,64.386Z" fill="#fff"/><path d="M72.38,67.985A9.293,9.293,0,1,1,84.116,73.9h0A9.288,9.288,0,0,1,72.383,68Z" fill="#7eaab9"/><path d="M73.913,67.453a7.679,7.679,0,1,0,4.881-9.7h0a7.649,7.649,0,0,0-4.9,9.643Z" fill="#d3e8ef"/><path d="M88.809,64.011a7.286,7.286,0,0,0-.313-1.377,7.649,7.649,0,0,0-9.644-4.9l-.057.019a7.356,7.356,0,0,0-3.13,1.971,7.3,7.3,0,0,0,.313,1.378,7.662,7.662,0,0,0,9.668,4.891l.034-.011A7.334,7.334,0,0,0,88.809,64.011Z" fill="#fff"/><path d="M70.627,70.364a8.766,8.766,0,1,1,.014.042Z" fill="#7f401c"/><path d="M72.411,69.8a6.888,6.888,0,1,1,8.7,4.382A6.888,6.888,0,0,1,72.411,69.8Z" fill="#b85c28"/><path d="M72.129,66.546a6.9,6.9,0,0,1,13.363-1.1,6.741,6.741,0,0,1,.344,1.721,12.057,12.057,0,0,1-13.707-.658Z" fill="#e1762e"/><path d="M40.3,14a6.512,6.512,0,0,1,6.321,6.7,6.332,6.332,0,1,1-12.642,0A6.514,6.514,0,0,1,40.3,14Z" fill="#7f401c"/><path d="M40.3,15.848A4.681,4.681,0,0,0,35.827,20.7,4.7,4.7,0,0,0,40.3,25.55a4.682,4.682,0,0,0,4.475-4.85A4.7,4.7,0,0,0,40.3,15.848Z" fill="#b85c28"/><path d="M40.3,17.7a2.836,2.836,0,0,0-2.629,3,2.877,2.877,0,0,0,2.629,3,2.836,2.836,0,0,0,2.629-3A2.877,2.877,0,0,0,40.3,17.7Z" fill="#623214"/><path d="M67.184,14a6.513,6.513,0,0,1,6.322,6.7,6.332,6.332,0,1,1-12.643,0A6.514,6.514,0,0,1,67.184,14Z" fill="#7f401c"/><path d="M67.184,15.848A4.682,4.682,0,0,0,62.709,20.7a4.489,4.489,0,1,0,8.949,0A4.7,4.7,0,0,0,67.184,15.848Z" fill="#b85c28"/><path d="M67.184,17.7a2.836,2.836,0,0,0-2.629,3,2.878,2.878,0,0,0,2.629,3,2.836,2.836,0,0,0,2.629-3A2.877,2.877,0,0,0,67.184,17.7Z" fill="#4d2c11"/><path d="M51.193,17.131a2,2,0,1,1-2,2A2,2,0,0,1,51.193,17.131Zm5.1,0a2,2,0,1,1-2,2h0A2.018,2.018,0,0,1,56.294,17.131Z" fill="#7f401c"/><path d="M77.1,25.487V37.942l.126.032a4.61,4.61,0,0,1,2.973,4.35v8.951L53.759,60.006,27.315,51.493V42.324a4.61,4.61,0,0,1,2.973-4.35l.125-.032V25.455c0-8.606,46.691-8.606,46.691,0Z" fill="#7f401c"/><path d="M32.51,25.956V39.382l-1.1.438a3.053,3.053,0,0,0-1.971,2.91v9.451l24.316,7.824,24.316-8.012V42.73A3.083,3.083,0,0,0,76.1,39.82l-1.095-.438V25.956c0-6.384-42.467-6.384-42.467,0Z" fill="#b85c28"/><path d="M32.51,25.956V39.382l-1.1.438a3.053,3.053,0,0,0-1.971,2.91v9.451l24.316,7.824V54.873c-8.419.032-16.837-5.477-14.615-16.4H53.759V21.2c-10.609,0-21.249,1.595-21.249,4.789Z" fill="#e1762e"/><path d="M37.986,35.627H69.594C74.069,59.348,33.167,59.16,37.986,35.627Z" fill="#e5895b"/><path d="M39.551,37.473a11.611,11.611,0,0,0,3.067,9.952c2.879,2.88,7.229,4.131,11.234,4.1a15.9,15.9,0,0,0,10.8-3.975A11.775,11.775,0,0,0,68,37.474Z" fill="#e5895b"/><path d="M59.048,48.551c2.128,2.754,8.325,1.627,6.477-4.193Z" fill="#f9d395"/><path d="M57.107,47.957c2.379,3.066,10.14,1.252,8.358-5.383Z" fill="#4d2c11"/><path d="M59.173,46.361a.96.96,0,1,1-.571,1.232c-.009-.025-.017-.049-.024-.074A.931.931,0,0,1,59.173,46.361Zm5.07-3.5a.915.915,0,0,1,1.095.688.937.937,0,0,1-.595,1.158.915.915,0,0,1-1.095-.689A.936.936,0,0,1,64.243,42.856Z" fill="#fff"/><path d="M62.3,49.114a4.8,4.8,0,0,0,3.41-4.068C64.336,44.858,61.958,46.861,62.3,49.114Z" fill="#ae6252"/><path d="M41.241,35.627H66.308C69.844,52.557,37.423,52.4,41.241,35.627Z" fill="#f9d395"/><path d="M53.759,45.265a5.945,5.945,0,0,1,1.189-2.816c3-.469,5.6-2.754,4.788-6.854a18.034,18.034,0,0,0-5.946-1.033l-1.22,3.881L53.79,45.3Z" fill="#4d2c11"/><path d="M53.759,45.265a5.945,5.945,0,0,0-1.189-2.816c-3.005-.469-5.6-2.754-4.789-6.854a18.04,18.04,0,0,1,5.947-1.033v10.7Z" fill="#623214"/><path d="M49.315,36.19a17.1,17.1,0,0,1,8.887,0C59.454,39.288,47.969,39.256,49.315,36.19Z" fill="#ae6252"/><path d="M48.971,27.584a3.349,3.349,0,1,1-3.35,3.349A3.349,3.349,0,0,1,48.971,27.584Z" fill="#fff"/><path d="M49.221,28.742a2.5,2.5,0,1,1-2.5,2.5h0A2.51,2.51,0,0,1,49.221,28.742Z" fill="#1b1d23"/><path d="M58.609,27.584a3.349,3.349,0,1,0,3.35,3.349A3.349,3.349,0,0,0,58.609,27.584Z" fill="#fff"/><path d="M58.359,28.742a2.5,2.5,0,1,0,2.5,2.5A2.5,2.5,0,0,0,58.359,28.742Z" fill="#1b1d23"/><path d="M51.411,26.488a9.346,9.346,0,0,0-6.947,1.221C43.745,23.609,50.661,22.389,51.411,26.488Z" fill="#623214"/><path d="M55.48,24.423a9.346,9.346,0,0,1,6.947,1.221C63.147,21.544,56.231,20.323,55.48,24.423Z" fill="#4d2c11"/><path d="M80.172,51.305V77.061a3.139,3.139,0,0,1-3.13,3.129H30.413a3.14,3.14,0,0,1-3.13-3.129V51.524l26.445,6.322Z" fill="#7eaab9"/><path d="M78.075,54,53.759,60.005,29.411,54.184V76.5a1.551,1.551,0,0,0,1.537,1.563H76.51a1.55,1.55,0,0,0,1.565-1.534V54Z" fill="#d3e8ef"/><path d="M53.759,60.005,29.443,54.184V76.5a1.549,1.549,0,0,0,1.536,1.563h22.78Z" fill="#fff"/><path d="M53.759,66.327H74.194v2.754H53.759Zm0,5.664H74.194v2.754H53.759Z" fill="#086bab"/><path d="M33.323,66.327H53.759v2.754H33.323Zm20.436,8.418V71.991H33.323v2.754Z" fill="#3c94d1"/><polygon points="41.617 64.543 44.183 64.543 44.183 77.029 41.617 77.029 41.617 64.543" fill="#fff"/><path d="M34.419,53.214c6.446,1.534,12.893,3.1,19.309,4.632l-6.887,6.509C42.367,61.726,37.955,58.816,34.419,53.214Z" fill="#7eaab9"/><path d="M39.9,56.688a36.22,36.22,0,0,0,6.667,5.038l2.911-2.753C46.279,58.222,43.087,57.439,39.9,56.688Z" fill="#fff"/><path d="M73.068,53.214c-6.447,1.534-12.894,3.1-19.309,4.632l6.885,6.509C65.119,61.726,69.532,58.816,73.068,53.214Z" fill="#7eaab9"/><path d="M67.591,56.688a36.153,36.153,0,0,1-6.667,5.038l-2.91-2.753C61.207,58.222,64.4,57.439,67.591,56.688Z" fill="#fff"/></svg>