<svg xmlns="http://www.w3.org/2000/svg" viewBox="0 0 96 96"><rect width="96" height="96" fill="#fff" opacity="0"/><rect x="-228.992" y="-35.731" width="241" height="36" fill="#343230"/><path d="M74.381,56.452c1.831,5.9,1.189,11.208-2.4,16-3.427,4.582-8.219,6.834-13.793,7.49-8.1.954-16.234.359-24.352.511-2.384.044-4.77.007-7.179-.079,2.072-.985,4.2-1.805,6.237-2.845.788-.4.881-.733.534-1.546a6.092,6.092,0,0,0-2.045-2.55c-3.8-2.856-7.163-6.125-9.253-10.471-2.249-4.675-3.235-9.53-1.651-14.653.113-.367.247-.728.39-1.084a2.031,2.031,0,0,1,.287-.369,32.93,32.93,0,0,0,6.878,7.922c8.526,6.9,18.183,10.423,29.229,9.449C63.741,63.657,69.579,61.459,74.381,56.452Z" fill="#4f9bc6"/><path d="M21.732,39.5c-2.746-6.8-.176-15.062,5.92-19.562A21.972,21.972,0,0,1,39.606,15.84c9.822-.622,19.66-.177,29.49-.291.06,0,.12.063.3.162-2.1.9-4.15,1.7-6.124,2.674-.882.436-1,.842-.622,1.765a7,7,0,0,0,2.522,2.816c4.864,3.782,8.754,8.266,10.371,14.386a17.753,17.753,0,0,1-.466,11.637c-.339.076-.416-.152-.529-.321-6.132-9.134-14.9-14.276-25.478-16.415a33.043,33.043,0,0,0-19.495,1.775A22.594,22.594,0,0,0,21.732,39.5Z" fill="#4f9bc6"/><path d="M53.65,60.9c-12.494-.856-22.83-5.587-29.787-16.468a1.614,1.614,0,0,1,.239-2.307A20.167,20.167,0,0,1,36.59,35.665c14.056-1.929,25.571,2.767,34.223,13.962,2.773,3.588,2.765,2.728-.711,5.941-3.659,3.381-8.281,4.625-13.128,5.119C55.87,60.8,54.758,60.834,53.65,60.9Z" fill="#5d7a86"/></svg>