<svg xmlns="http://www.w3.org/2000/svg" viewBox="0 0 96 96"><rect width="96" height="96" fill="#fff" opacity="0"/><path d="M54.775,69.853h9.352V26.338H54.775Z" fill="#16384f" fill-rule="evenodd"/><path d="M36.262,48.477V69.853h9.352V39.125Z" fill="#16384f" fill-rule="evenodd"/><path d="M91.038,62.6c-.191.191-.382.191-.573.382a5.279,5.279,0,0,1-2.481.573,3.6,3.6,0,0,1-2.863-1.146,5.668,5.668,0,0,1-.954-3.435V43.706h7.825V36.453H84.167V26.338H74.815V36.453H70.044V43.9h4.771V58.4a21.274,21.274,0,0,0,.573,5.153A9.774,9.774,0,0,0,77.3,67.563a10.573,10.573,0,0,0,3.626,2.672,15.184,15.184,0,0,0,5.535.954A15.423,15.423,0,0,0,96,67.753L91.038,62.6Z" fill="#16384f" fill-rule="evenodd"/><path d="M36.262,26.338V39.125l9.352-9.352V26.338Z" fill="#16384f" fill-rule="evenodd"/><path d="M.763,66.227l6.108-6.3a9.654,9.654,0,0,0,4.962,1.909c2.863,0,6.107-2.1,6.107-5.153V26.338h9.543V57.066A12.173,12.173,0,0,1,18.7,69.089C11.26,71.38,2.672,68.708.763,66.227Z" fill="#16384f"/></svg>