<svg xmlns="http://www.w3.org/2000/svg" xmlns:xlink="http://www.w3.org/1999/xlink" viewBox="0 0 96 96"><defs><mask id="a" x="14" y="14.216" width="80" height="80.055" maskUnits="userSpaceOnUse"><path d="M19.186,14.216H76.663a5.192,5.192,0,0,1,5.186,5.2V77.022a5.192,5.192,0,0,1-5.186,5.2H19.186A5.192,5.192,0,0,1,14,77.022V19.414A5.192,5.192,0,0,1,19.186,14.216Z" fill="#fff" fill-rule="evenodd"/></mask><mask id="b" x="14" y="14.216" width="67.849" height="68.003" maskUnits="userSpaceOnUse"><path d="M19.186,14.216H76.663a5.192,5.192,0,0,1,5.186,5.2V77.022a5.192,5.192,0,0,1-5.186,5.2H19.186A5.192,5.192,0,0,1,14,77.022V19.414A5.192,5.192,0,0,1,19.186,14.216Z" fill="#fff" fill-rule="evenodd"/></mask></defs><rect width="96" height="96" fill="#fff" opacity="0"/><path d="M19.186,14.27H76.663a5.193,5.193,0,0,1,5.186,5.2V77.076a5.192,5.192,0,0,1-5.186,5.2H19.186A5.192,5.192,0,0,1,14,77.076V19.468A5.193,5.193,0,0,1,19.186,14.27Z" fill="#263ad0"/><g mask="url(#a)"><ellipse cx="73.336" cy="73.559" rx="20.664" ry="20.711" fill="#3d54ff"/></g><g mask="url(#b)"><path d="M70.051,67.506a3.379,3.379,0,0,1-1.338.3c-.448-.025-.64-.224-.641-.3,0-.053.167-.22.684-.257.081-.006.166-.01.254-.01a1.861,1.861,0,0,1,1.041.261m.962,4.56a5.144,5.144,0,0,1-5.081-1.227,3.019,3.019,0,0,1-.782-3.08c.71-2.133,4.109-3.413,6.281-3.413h.07c.809.011,1.369.207,1.462.512.052.171-.071.471-.329.8a6.211,6.211,0,0,1-1.853,1.5,2.461,2.461,0,0,0-2.079-.649c-1.02.074-1.38.571-1.376,1.01,0,.479.467.99,1.346,1.039a4.157,4.157,0,0,0,1.805-.415,2.938,2.938,0,0,1-.089,1.428.374.374,0,1,0,.722.192,3.42,3.42,0,0,0,.047-1.96,7.24,7.24,0,0,0,2.065-1.681,1.664,1.664,0,0,0,.456-1.481,1.237,1.237,0,0,0-.654-.734c.025-2.812.523-4.755.97-4.757h0a.35.35,0,0,1,.264.123c.364.362.8,1.552.8,5.163,0,3.563-.3,6.6-4.045,7.631m-3.563-8.31a.261.261,0,0,0,0-.028l-.005-.041a2.769,2.769,0,0,1,.272-1.7.626.626,0,0,1,.458-.272.8.8,0,0,1,.685.218,2.75,2.75,0,0,1,.554,1.932,10.236,10.236,0,0,0-1.864.654c-.047-.268-.08-.524-.1-.765m3.217-1.3a.689.689,0,0,1,.537-.223.755.755,0,0,1,.6.2,1.839,1.839,0,0,1,.329,1.209,4.9,4.9,0,0,0-.619-.045h-.076a7.618,7.618,0,0,0-1.088.086,1.783,1.783,0,0,1,.321-1.231m4.121-3.711A1.109,1.109,0,0,0,74,58.4H73.99c-.984.006-1.323,1.477-1.493,2.583-.05.325-.088.656-.118.977-.015-.016-.029-.033-.045-.049a1.513,1.513,0,0,0-1.13-.43,1.435,1.435,0,0,0-1.087.465,1.679,1.679,0,0,0-.209.3,2.265,2.265,0,0,0-.531-.845,1.533,1.533,0,0,0-1.293-.422,1.384,1.384,0,0,0-.973.577l0,0c-.41-2.045-1.188-4.515-2.545-4.374a1.207,1.207,0,0,0-.853.521c-1.048,1.427-.556,5.669-.1,7.951a.374.374,0,0,0,.366.3.361.361,0,0,0,.073-.007.374.374,0,0,0,.293-.441c-.762-3.82-.592-6.595-.03-7.36a.455.455,0,0,1,.33-.22c.749-.079,1.673,2.545,2.062,5.857a9.166,9.166,0,0,0,.153,1.093v0a5.087,5.087,0,0,0-2.416,2.643,3.743,3.743,0,0,0,.948,3.831A5.637,5.637,0,0,0,69.5,73.021a6.415,6.415,0,0,0,1.716-.234c4.242-1.173,4.593-4.62,4.593-8.352,0-3.193-.323-5-1.017-5.694" fill="#fff" fill-rule="evenodd"/></g><g mask="url(#b)"><g style="isolation:isolate"><text transform="translate(64.115 78.76)" font-size="5.84" fill="#fff" font-family="Arial-BoldMT, Arial" font-weight="700" letter-spacing="0.077em" style="isolation:isolate">TEC</text></g></g><path d="M22.678,30.978l25.388-9.261A5.853,5.853,0,0,1,55.5,25.029q6.072,15.015,5.634,18.8c-.511,4.411-.441,6.43-4.72,10.587S49.371,59.477,43.3,62.05q-5.421,2.3-12.138,4.445A1.783,1.783,0,0,1,28.944,65.4l-9.768-26.9A5.876,5.876,0,0,1,22.678,30.978Z" fill="#fff"/><path d="M56.414,27.576l-1.659-3.935a4.87,4.87,0,0,0-6.28-2.994L21.293,30.614a4.886,4.886,0,0,0-2.917,6.219l1.662,3.711Z" fill="#3d54ff" fill-rule="evenodd"/><path d="M48.181,19.841A5.726,5.726,0,0,1,55.5,23.188l.063.173L60.188,36.8A18.81,18.81,0,0,1,49.017,60.91a.858.858,0,0,1-.588-1.613,17.1,17.1,0,0,0,10.24-21.659l-.095-.267-4.629-13.45A4.013,4.013,0,0,0,48.924,21.4l-.155.053L21.587,31.42a4.027,4.027,0,0,0-2.457,4.966l.053.16L29.676,66.174l11.485-4.212a.858.858,0,0,1,.588,1.613L30.16,67.824a1.617,1.617,0,0,1-2.023-.878l-.043-.108L17.569,37.121a5.745,5.745,0,0,1,3.255-7.245L21,29.808Z" fill="#0f1031"/><path d="M59.6,42.837a.853.853,0,1,1,1.7-.054c.131,3.886-4.061,6.421-10.089,6.246L51,49.021l-.022.048c-.1.2-.215.481-.37.893l-.728,2.006c-.084.232-.163.445-.243.659-.353.939-.691,1.777-1.054,2.591-1.71,3.828-3.752,6.612-6.48,8.171a.858.858,0,0,1-.846-1.492c2.348-1.342,4.193-3.858,5.769-7.386.289-.649.564-1.317.845-2.048l.247-.655.913-2.515c.638-1.722.854-2.029,1.613-2.006l.081,0c5.471.31,8.965-1.7,8.872-4.454Z" fill="#0f1031"/><path d="M48.047,38.4A2.1,2.1,0,1,0,49.3,35.7a2.1,2.1,0,0,0-1.252,2.7" fill="#334aff" fill-rule="evenodd"/><path d="M38.63,41.856a2.1,2.1,0,1,0,1.252-2.7,2.1,2.1,0,0,0-1.252,2.7" fill="#334aff" fill-rule="evenodd"/><path d="M29.214,45.309a2.1,2.1,0,1,0,1.251-2.7,2.1,2.1,0,0,0-1.251,2.7" fill="#334aff" fill-rule="evenodd"/><path d="M41.975,50.027a2.1,2.1,0,1,0,1.251-2.7,2.1,2.1,0,0,0-1.251,2.7" fill="#334aff" fill-rule="evenodd"/><path d="M32.368,53.549a2.1,2.1,0,1,0,1.252-2.7,2.1,2.1,0,0,0-1.252,2.7" fill="#334aff" fill-rule="evenodd"/><path d="M23.528,24.9a.856.856,0,0,1,1.061.427l.037.086L27.2,32.487a.857.857,0,0,1-1.573.673l-.037-.086L23.016,26A.859.859,0,0,1,23.528,24.9Z" fill="#0f1031"/><path d="M42.918,17.825a.854.854,0,0,1,1.061.427l.037.086,2.569,7.075a.857.857,0,0,1-1.573.673L44.976,26l-2.57-7.075A.86.86,0,0,1,42.918,17.825Z" fill="#0f1031"/></svg>