<svg xmlns="http://www.w3.org/2000/svg" viewBox="0 0 144 144"><rect y="0.002" width="144" height="144" fill="#fff" opacity="0"/><path d="M95.549,38.958a26.278,26.278,0,1,1-49.863,0H26.362V97.042h91.276V38.958Z" class="sgmaincolor"/><path d="M137.822,103.388a1,1,0,0,0-.822-.43h-8.681V40.341a1,1,0,0,0-.231-.641l-6.915-8.3a1,1,0,0,0-.769-.359H92.537a27.244,27.244,0,0,0-43.839,0H24.979a1,1,0,0,0-.708.293l-8.3,8.3a1,1,0,0,0-.293.707v62.617H7a1,1,0,0,0-.937,1.351l4.15,11.064a1,1,0,0,0,.936.648h121.7a1,1,0,0,0,.936-.648l4.15-11.064A1,1,0,0,0,137.822,103.388Zm-67.2-81.41A25.277,25.277,0,1,1,45.341,47.256,25.306,25.306,0,0,1,70.617,21.978ZM96.9,39.958h19.744V96.043H27.361V39.958H44.34a27.277,27.277,0,1,0,52.555,0Zm-79.214.8,7.712-7.712H47.346a27.227,27.227,0,0,0-2.371,4.915H26.361a1,1,0,0,0-1,1V97.043a1,1,0,0,0,1,1h91.278a1,1,0,0,0,1-1V38.958a1,1,0,0,0-1-1H96.259a27.16,27.16,0,0,0-2.371-4.915h26.048l6.383,7.66v62.255H17.681Zm114.476,73.266H11.843l-3.4-9.063H135.557Z"/><path d="M65.085,59.319a1,1,0,0,1-1-1V36.191a1,1,0,0,1,1.524-.851L83.588,46.4a1,1,0,0,1,0,1.7L65.609,59.171A1.007,1.007,0,0,1,65.085,59.319Zm1-21.338V56.53l15.07-9.274Z"/><path d="M88.6,110.489H55.4a1,1,0,1,1,0-2H88.6a1,1,0,0,1,0,2Z"/><path d="M142.319,124.212h-30a1,1,0,0,1,0-2h30a1,1,0,0,1,0,2Z"/><path d="M115.066,21a6.5,6.5,0,0,1-5.026-10.608,6.5,6.5,0,1,1,5.7,10.574C115.513,20.989,115.289,21,115.066,21Zm.017-11a4.5,4.5,0,0,0-2.848,7.984h0A4.5,4.5,0,1,0,115.083,10Z"/><path d="M26.39,139.788a1,1,0,0,1-.723-.309L15.99,129.352a1,1,0,0,1,.477-1.659l13.574-3.45a.99.99,0,0,1,.964.272,1,1,0,0,1,.243.972l-3.9,13.577a1,1,0,0,1-.722.695A1.021,1.021,0,0,1,26.39,139.788ZM18.619,129.21l7.29,7.628,2.937-10.228Z"/></svg>