<svg xmlns="http://www.w3.org/2000/svg" viewBox="0 0 96 96"><rect width="96" height="96" fill="#fff" opacity="0"/><polygon points="11 6.001 57 6.001 75 24.001 75 90.001 11 90.001 11 6.001" class="sgmaincolor"/><path d="M31.769,56.043a5.532,5.532,0,1,0-5.532-5.532A5.538,5.538,0,0,0,31.769,56.043Zm0-9.063a3.532,3.532,0,1,1-3.532,3.531A3.536,3.536,0,0,1,31.769,46.98Z"/><path d="M71.648,81.739l-6.7-6.45,4.408-1.913a1,1,0,0,0-.053-1.855l-7.346-2.706V40.459a1,1,0,0,0-1-1h-43a1,1,0,0,0-1,1v34a1,1,0,0,0,1,1H52.573l3.444,9.346a1,1,0,0,0,.912.654.987.987,0,0,0,.945-.605L59.746,80.5l6.493,6.663a1,1,0,0,0,.71.3h.006a1,1,0,0,0,.707-.293l4-4a1,1,0,0,0-.014-1.427ZM18.955,41.459h41v20.2L48.65,50.74a1.071,1.071,0,0,0-.721-.281,1,1,0,0,0-.705.318L34,64.949l-4.275-5.13a1,1,0,0,0-.713-.358.98.98,0,0,0-.748.278l-9.307,8.95V41.459Zm0,32v-2l9.92-9.54L33.187,67.1a1,1,0,0,0,.74.359,1.024,1.024,0,0,0,.759-.317L47.992,52.885,59.955,64.44v3.638L50.3,64.521a1,1,0,0,0-1.284,1.284l2.82,7.654ZM66.964,85.036l-6.83-7.009a1,1,0,0,0-.717-.3,1.028,1.028,0,0,0-.182.017,1,1,0,0,0-.736.588l-1.473,3.429L51.643,67.147l8.871,3.268a.921.921,0,0,0,.147.054l5.608,2.067-3.5,1.517a1,1,0,0,0-.294,1.638l7.048,6.782Z"/><path d="M85.924,23.623a1.078,1.078,0,0,0-.094-.147.936.936,0,0,0-.1-.161l-17-18-.014-.01a.947.947,0,0,0-.194-.135A.974.974,0,0,0,68,5H11a1,1,0,0,0-1,1V90a1,1,0,0,0,1,1H85a1,1,0,0,0,1-1V24A1,1,0,0,0,85.924,23.623ZM67,14.587,59.414,7H67ZM58,8.415,67.288,17.7l.012.011L72.586,23H58ZM75.414,23,69,16.587V8.517L82.68,23ZM23,7H56V24a1,1,0,0,0,1,1H74V89H12V7H23ZM22,21H38.059a1,1,0,0,0,0-2H22Zm0,10H46.059a1,1,0,0,0,0-2H22ZM76,89V25h8V89Z"/></svg>