<svg xmlns="http://www.w3.org/2000/svg" viewBox="0 0 96 96"><rect width="96" height="96" fill="#fff" opacity="0"/><path d="M74.384,44.529H55.911a1,1,0,0,1,0-2H74.384a1,1,0,0,1,0,2Z""/><path d="M74.384,49.794H55.911a1,1,0,0,1,0-2H74.384a1,1,0,0,1,0,2Z""/><path d="M74.384,55.058H55.911a1,1,0,0,1,0-2H74.384a1,1,0,0,1,0,2Z""/><path d="M74.384,38.757H55.911a1,1,0,0,1-1-1V30.674a1,1,0,0,1,1-1H74.384a1,1,0,0,1,1,1v7.083A1,1,0,0,1,74.384,38.757Zm-17.473-2H73.384V31.674H56.911Z""/><path d="M36.49,28.8A14.082,14.082,0,1,0,50.572,42.883,14.1,14.1,0,0,0,36.49,28.8ZM23.716,42.883a12.724,12.724,0,0,1,1.106-5.2l6.094,16.7A12.776,12.776,0,0,1,23.716,42.883ZM36.491,55.658a12.753,12.753,0,0,1-3.609-.52L36.715,44l3.927,10.758a1.227,1.227,0,0,0,.091.177A12.757,12.757,0,0,1,36.491,55.658Zm1.761-18.765c.769-.04,1.462-.121,1.462-.121a.528.528,0,0,0-.082-1.053s-2.069.162-3.405.162c-1.256,0-3.365-.162-3.365-.162a.528.528,0,0,0-.081,1.053s.651.081,1.34.121l1.99,5.453-2.8,8.385L28.664,36.893c.769-.04,1.461-.121,1.461-.121a.528.528,0,0,0-.081-1.053s-2.07.162-3.406.162c-.239,0-.521-.006-.822-.016a12.773,12.773,0,0,1,19.3-2.4c-.055,0-.109-.01-.166-.01a2.212,2.212,0,0,0-2.145,2.267,5.978,5.978,0,0,0,1.255,3,6.728,6.728,0,0,1,1.053,3.523,11.9,11.9,0,0,1-.972,4.131l-1.274,4.257Zm9.448-.139a12.78,12.78,0,0,1-4.787,17.171l3.9-11.282a12.055,12.055,0,0,0,.972-4.575A9.786,9.786,0,0,0,47.7,36.754Z" fill="#206d7a"/><circle cx="21.692" cy="19.598" r="1.843""/><circle cx="27.221" cy="19.598" r="1.843""/><circle cx="32.75" cy="19.598" r="1.843""/><path d="M86.727,9.109H9.674l-5.682,6V67.464l4.952,6.471h76.93l6.066-6.472V15.179Zm-6.331,53H16.122v-47H80.4Z" class="sgmaincolor"/><path d="M92.752,68.015a.966.966,0,0,0,.113-.177,1.009,1.009,0,0,0,.057-.285c0-.031.018-.058.018-.089V15.179a1,1,0,0,0-.241-.651l-5.212-6.07a1,1,0,0,0-.759-.349H9.675a1,1,0,0,0-.727.313l-5.683,6a1,1,0,0,0-.273.687V67.464a.983.983,0,0,0,.072.356.919.919,0,0,0,.059.112.932.932,0,0,0,.075.139l4.951,6.472a1,1,0,0,0,.794.392l28.541-.011-2.966,11.69H30.575a1,1,0,0,0,0,2H65.286a1,1,0,0,0,0-2H61.3l-2.983-11.7,27.558.019h0a1,1,0,0,0,.729-.316l6.041-6.447.005-.006.019-.02A.945.945,0,0,0,92.752,68.015ZM10.105,10.109H86.268l4.671,5.441V66.464H4.992V15.509ZM36.583,86.614l2.966-11.691,16.7-.007,2.983,11.7ZM85.441,72.936l-28.9-.02h0l-47.1.019L6.016,68.464H89.632Z""/><path d="M81.4,23.889V15.11a1,1,0,0,0-1-1H16.122a1,1,0,0,0-1,1v47a1,1,0,0,0,1,1H80.4a1,1,0,0,0,1-1V23.889Zm-2-7.779v6.779H17.122V16.11Zm-62.273,45V24.889H79.4V61.106Z""/></svg>