<svg xmlns="http://www.w3.org/2000/svg" viewBox="0 0 96 96"><rect y="0.002" width="96" height="96" fill="#fff" opacity="0"/><polygon points="85.13 38.264 82.879 30.011 85.881 21.007 23.605 21.007 23.605 38.264 12.351 38.264 12.351 55.521 22.855 55.521 22.855 73.528 29.608 73.528 29.608 64.525 39.362 64.525 39.362 73.528 85.13 73.528 82.879 64.525 85.13 55.521 73.876 55.521 71.625 47.268 74.626 38.264 85.13 38.264" class="sgmaincolor"/><path d="M76.877,63.524H58.87a1,1,0,0,0,0,2H76.877a1,1,0,1,0,0-2Z"/><path d="M36.36,48.268H65.622a1,1,0,0,0,0-2H36.36a1,1,0,0,0,0,2Z"/><path d="M47.615,31.011H76.877a1,1,0,0,0,0-2H47.615a1,1,0,0,0,0,2Z"/><path d="M85.91,56.521h4.473a1,1,0,0,0,0-2H74.64L72.669,47.3l2.682-8.045,9.685,0c.032,0,.061.015.093.015a1.131,1.131,0,0,0,.115-.015l5.156,0a1,1,0,0,0,0-2H85.889L83.924,30.04,86.6,22.007h3.782a1,1,0,0,0,0-2H23.605a.992.992,0,0,0-.341.06l-8.253,3a1,1,0,0,0-.658.94v10.5a1,1,0,0,0,.585.91l4.052,1.842H12.351a1,1,0,0,0-.414.089L3.684,41.105a1,1,0,0,0-.586.911V52.521a1,1,0,0,0,.658.939l8.253,3a.993.993,0,0,0,.342.06h6.268l-3.714,1.857a1,1,0,0,0-.552.894V69.777a1,1,0,0,0,.552.895l7.5,3.751a1,1,0,0,0,.447.105h5.752v5a1,1,0,0,0,1.581.814l4.625-3.3L38.722,80.3a1,1,0,0,0,1.64-.769v-5H90.383a1,1,0,0,0,0-2H85.91l-2-8Zm-15.233-9.57a.994.994,0,0,0-.017.579l1.907,6.991H13.351V39.265H23.605l49.638-.013ZM81.932,29.694a.994.994,0,0,0-.017.579l1.9,6.977-59.212.015V22.007H84.494ZM16.353,24.709l6.252-2.274V36.711l-6.252-2.842ZM5.1,42.659l6.253-2.842V54.094L5.1,51.82ZM16.353,59.891l5.5-2.751V71.91l-5.5-2.751ZM38.362,77.4,35.5,75.011a1,1,0,0,0-1.222-.045l-3.672,2.622V65.524h7.755Zm2-4.868v-7h4.252a1,1,0,1,0,0-2H28.857a1,1,0,0,0-1,1,.986.986,0,0,0,.75.95v7.054H23.855V56.521H83.85l-1.94,7.761a1,1,0,0,0,0,.485l1.94,7.761Z"/></svg>