<svg xmlns="http://www.w3.org/2000/svg" viewBox="0 0 96 96"><rect width="96" height="96" fill="fff" opacity="0"/><path d="M87,20V14H54l-6,4-6-4H10v6H5V76H41v3l7,3,7-3V76H91V20ZM26.289,43.707a1.5,1.5,0,0,1-.152.833.815.815,0,0,1-.67.453,1.27,1.27,0,0,1-1-.468,12.493,12.493,0,0,1-2.78-5.382q-1.236,2.421-1.824,3.632c-.747,1.425-1.379,2.157-1.91,2.194-.34.024-.63-.267-.882-.873a54.674,54.674,0,0,1-2.067-9.584,1.075,1.075,0,0,1,.2-.845,1.016,1.016,0,0,1,.8-.39.922.922,0,0,1,1.1.911q.58,3.957,1.264,6.7l2.773-5.259a1.2,1.2,0,0,1,.948-.756c.555-.037.895.317,1.033,1.062a23.587,23.587,0,0,0,1.192,4.319,19.426,19.426,0,0,1,1.677-6.94.971.971,0,0,1,.834-.554,1.1,1.1,0,0,1,.795.254.985.985,0,0,1,.39.72,1.093,1.093,0,0,1-.127.606A15.279,15.279,0,0,0,26.65,38.9,23.562,23.562,0,0,0,26.289,43.707Zm7.754-1.969a3.375,3.375,0,0,1-2.97,1.888,3.283,3.283,0,0,1-.681-.077,2.9,2.9,0,0,1-2.017-1.467,4.88,4.88,0,0,1-.6-2.5,6.689,6.689,0,0,1,.99-3.558,3.4,3.4,0,0,1,2.969-1.889,3.354,3.354,0,0,1,.682.077,2.934,2.934,0,0,1,2.017,1.468,4.769,4.769,0,0,1,.6,2.487A6.767,6.767,0,0,1,34.043,41.738Zm7.9.012a3.375,3.375,0,0,1-2.969,1.889,3.269,3.269,0,0,1-.681-.077A2.908,2.908,0,0,1,36.276,42.1a4.9,4.9,0,0,1-.6-2.5,6.693,6.693,0,0,1,.991-3.557,3.4,3.4,0,0,1,2.969-1.889,3.285,3.285,0,0,1,.682.077,2.908,2.908,0,0,1,2.017,1.467,4.658,4.658,0,0,1,.6,2.488A6.762,6.762,0,0,1,41.944,41.75Z" class="sgmaincolor"/><path d="M91,19H88V14a1,1,0,0,0-1-1H54a1.006,1.006,0,0,0-.555.168L48,16.8l-5.445-3.63A1.006,1.006,0,0,0,42,13H10a1,1,0,0,0-1,1v5H5a1,1,0,0,0-1,1V76a1,1,0,0,0,1,1H40v2a1,1,0,0,0,.606.919l7,3a1,1,0,0,0,.788,0l7-3A1,1,0,0,0,56,79V77H91a1,1,0,0,0,1-1V20A1,1,0,0,0,91,19ZM11,69H41a1,1,0,0,0,0-2H11V65H41.586L47,70.414v4.172l-3.293-3.293A1,1,0,0,0,43,71H11Zm38,1.459L55.37,65H86v2H56a1,1,0,0,0,0,2H86v2H54a1.006,1.006,0,0,0-.641.231L49,74.865ZM54.3,15H86V63H55a.994.994,0,0,0-.65.241L49,67.826V18.535ZM11,15H41.7L47,18.535v49.05l-4.293-4.292A1,1,0,0,0,42,63H11V15ZM90,75H55a1,1,0,0,0-1,1v2.341l-6,2.571-6-2.571V76a1,1,0,0,0-1-1H6V21H9V72a1,1,0,0,0,1,1H42.586l4.707,4.707c.006.006.014.008.021.014a.99.99,0,0,0,.262.184c.007,0,.015,0,.022,0A.986.986,0,0,0,48,78a1,1,0,0,0,.361-.072c.007,0,.015,0,.022,0a1,1,0,0,0,.255-.154h0L54.362,73H87a1,1,0,0,0,1-1V21h2Z"/><path d="M55,26H79a1,1,0,0,0,0-2H55a1,1,0,0,0,0,2Z"/><path d="M73,30H55a1,1,0,0,0,0,2H73a1,1,0,0,0,0-2Z"/><path d="M41.017,30.506H16.974a3.8,3.8,0,0,0-2.642,1.133,3,3,0,0,0-.932,2.116V43.5a3.568,3.568,0,0,0,3.574,3.25H28.257l5.447,3.2a.325.325,0,0,0,.466-.4l-1.121-2.8h7.972a3.781,3.781,0,0,0,2.432-.941A3.114,3.114,0,0,0,44.59,43.5V33.756A3.569,3.569,0,0,0,41.017,30.506Zm-14.728,13.2a1.5,1.5,0,0,1-.152.833.815.815,0,0,1-.67.453,1.27,1.27,0,0,1-1-.468,12.493,12.493,0,0,1-2.78-5.382q-1.236,2.421-1.824,3.632c-.747,1.425-1.379,2.157-1.91,2.194-.34.024-.63-.267-.882-.873a54.674,54.674,0,0,1-2.067-9.584,1.075,1.075,0,0,1,.2-.845,1.016,1.016,0,0,1,.8-.39.922.922,0,0,1,1.1.911q.58,3.957,1.264,6.7l2.773-5.259a1.2,1.2,0,0,1,.948-.756c.555-.037.895.317,1.033,1.062a23.587,23.587,0,0,0,1.192,4.319,19.426,19.426,0,0,1,1.677-6.94.971.971,0,0,1,.834-.554,1.1,1.1,0,0,1,.795.254.985.985,0,0,1,.39.72,1.093,1.093,0,0,1-.127.606A15.279,15.279,0,0,0,26.65,38.9,23.562,23.562,0,0,0,26.289,43.707Zm7.754-1.969a3.375,3.375,0,0,1-2.97,1.888,3.283,3.283,0,0,1-.681-.077,2.9,2.9,0,0,1-2.017-1.467,4.88,4.88,0,0,1-.6-2.5,6.689,6.689,0,0,1,.99-3.558,3.4,3.4,0,0,1,2.969-1.889,3.354,3.354,0,0,1,.682.077,2.934,2.934,0,0,1,2.017,1.468,4.769,4.769,0,0,1,.6,2.487A6.767,6.767,0,0,1,34.043,41.738Zm7.9.012a3.375,3.375,0,0,1-2.969,1.889,3.269,3.269,0,0,1-.681-.077A2.908,2.908,0,0,1,36.276,42.1a4.9,4.9,0,0,1-.6-2.5,6.693,6.693,0,0,1,.991-3.557,3.4,3.4,0,0,1,2.969-1.889,3.285,3.285,0,0,1,.682.077,2.908,2.908,0,0,1,2.017,1.467,4.658,4.658,0,0,1,.6,2.488A6.762,6.762,0,0,1,41.944,41.75Z"/><path d="M31.92,36.251c-.455-.086-.9.168-1.309.789a4.065,4.065,0,0,0-.663,1.505,4.331,4.331,0,0,0-.084.921,3.2,3.2,0,0,0,.231,1.148c.192.491.445.755.749.817a1.211,1.211,0,0,0,1.02-.408,3.334,3.334,0,0,0,.952-1.872,3.723,3.723,0,0,0,.084-.934,3.189,3.189,0,0,0-.232-1.148C32.477,36.577,32.223,36.313,31.92,36.251Z"/><path d="M39.834,36.218c-.455-.086-.9.168-1.309.788a4.088,4.088,0,0,0-.663,1.505,4.34,4.34,0,0,0-.084.922,3.2,3.2,0,0,0,.232,1.148,2.094,2.094,0,0,0,.214.419.86.86,0,0,0,.534.4,1.218,1.218,0,0,0,1.021-.408,3.343,3.343,0,0,0,.951-1.873,4.375,4.375,0,0,0,.084-.934,3.176,3.176,0,0,0-.232-1.148C40.391,36.544,40.137,36.28,39.834,36.218Z"/></svg>