<svg xmlns="http://www.w3.org/2000/svg" viewBox="0 0 96 96"><rect width="96" height="96" fill="#fff" opacity="0"/><path d="M33.992,44.686H5.907v-6l13.16-13.825a33.032,33.032,0,0,0,4.065-5.239,8.427,8.427,0,0,0,1.316-4.248,6.3,6.3,0,0,0-1.388-4.319A5.011,5.011,0,0,0,19.1,9.486a5.4,5.4,0,0,0-4.38,1.911,8.434,8.434,0,0,0-1.808,5.289h-8a14.506,14.506,0,0,1,1.8-7.146,12.665,12.665,0,0,1,5.082-4.884,15.457,15.457,0,0,1,7.448-1.77q6.372,0,9.9,3.059t3.524,8.641a13.86,13.86,0,0,1-1.586,6.231,34.664,34.664,0,0,1-5.438,7.391l-8.73,9.478h17Z"/><path class="sgmaincolor" d="M86.962,63.493l5.018-2.628-3.106-9.079-5.5.717c-.956-1.434-2.389-2.867-3.584-4.3l1.434-5.5-8.6-4.3-3.345,4.539a42.567,42.567,0,0,0-5.5-.478l-2.622-4.778-9.08,3.106.717,5.5a31.1,31.1,0,0,0-4.3,3.585l-5.5-1.434-4.3,8.6,4.54,3.345a22.337,22.337,0,0,0-.478,5.495l-4.779,2.629,3.111,9.074,5.5-.716a31.093,31.093,0,0,0,3.584,4.3l-1.434,5.5,8.6,4.3,3.345-4.54a21.4,21.4,0,0,0,5.5.478l2.62,4.778,9.085-3.1-.717-5.5c1.433-.956,2.867-2.389,4.3-3.584l5.5,1.434,4.3-8.6-4.548-3.35A21.2,21.2,0,0,0,86.962,63.493ZM64.98,72.686a8.137,8.137,0,0,1-7.992-8c-.194-4.321,3.812-8,7.993-8a8.135,8.135,0,0,1,7.993,8C73.167,69.008,69.161,72.686,64.98,72.686Z"/><path d="M68.8,92.686a1,1,0,0,1-.876-.518l-2.339-4.26A22.2,22.2,0,0,1,61.1,87.55l-2.963,4.014a1,1,0,0,1-1.252.3l-8.6-4.3a1,1,0,0,1-.521-1.147l1.3-4.989c-.286-.323-.582-.637-.877-.951a19.475,19.475,0,0,1-2.118-2.53l-4.856.633a1,1,0,0,1-1.075-.668l-3.106-9.079a1,1,0,0,1,.464-1.2l4.262-2.347a22.932,22.932,0,0,1,.359-4.485L38.1,57.846a1,1,0,0,1-.3-1.252l4.3-8.6a1,1,0,0,1,1.146-.52l4.99,1.3c.323-.286.636-.582.951-.877a19.242,19.242,0,0,1,2.529-2.118l-.632-4.856a1,1,0,0,1,.668-1.075l9.079-3.107a1,1,0,0,1,1.2.464l2.348,4.269a42.661,42.661,0,0,1,4.443.405l3-4.067a1,1,0,0,1,1.252-.3l8.6,4.3a1,1,0,0,1,.521,1.146l-1.3,4.994c.293.341.6.681.9,1.022.711.8,1.444,1.624,2.058,2.459l4.9-.638a1,1,0,0,1,1.075.668l3.106,9.079a1,1,0,0,1-.482,1.209l-4.42,2.317a22.158,22.158,0,0,1-.235,4.464l4.067,3a1,1,0,0,1,.3,1.252l-4.3,8.6a1.006,1.006,0,0,1-1.147.521l-4.994-1.3c-.341.293-.68.595-1.021.9-.8.711-1.624,1.444-2.459,2.058l.638,4.9a1,1,0,0,1-.668,1.076l-9.08,3.106A1.018,1.018,0,0,1,68.8,92.686Zm-8.124-7.257a.992.992,0,0,1,.243.03,20.589,20.589,0,0,0,5.252.448,1,1,0,0,1,.876.518l2.224,4.043,7.511-2.57-.611-4.685a1,1,0,0,1,.437-.961A27.4,27.4,0,0,0,79.367,80c.486-.433.972-.865,1.46-1.27a1,1,0,0,1,.891-.2l4.712,1.23,3.563-7.124L86.13,69.791a1,1,0,0,1-.4-.929l.04-.318a19.064,19.064,0,0,0,.2-4.929,1,1,0,0,1,.529-1.009l4.257-2.231-2.568-7.489L83.5,53.5a1,1,0,0,1-.961-.436,27.018,27.018,0,0,0-2.25-2.756c-.432-.486-.865-.973-1.27-1.46a1,1,0,0,1-.2-.892l1.229-4.711-7.124-3.563-2.839,3.859a1,1,0,0,1-.928.4l-.574-.073a36.73,36.73,0,0,0-4.8-.4,1,1,0,0,1-.876-.518l-2.222-4.041-7.513,2.571.611,4.684a1,1,0,0,1-.5,1,14.832,14.832,0,0,0-2.731,2.2c-.466.439-.933.878-1.427,1.289a1.009,1.009,0,0,1-.891.2L43.525,49.62l-3.558,7.116,3.863,2.85a1,1,0,0,1,.377,1.048,21.438,21.438,0,0,0-.449,5.252,1,1,0,0,1-.517.876L39.2,68.986l2.57,7.51,4.685-.61a1.009,1.009,0,0,1,1,.5,14.839,14.839,0,0,0,2.2,2.731c.439.465.878.932,1.289,1.426a1,1,0,0,1,.2.892l-1.229,4.712,7.124,3.562,2.846-3.862a1,1,0,0,1,.8-.416Zm4.3-11.743a9.168,9.168,0,0,1-8.992-8.953,8.326,8.326,0,0,1,2.418-6.14,8.961,8.961,0,0,1,15.566,6.05,8.327,8.327,0,0,1-2.418,6.143A9.2,9.2,0,0,1,64.98,73.686Zm0-16a7.28,7.28,0,0,0-5.129,2.288,6.351,6.351,0,0,0-1.863,4.669,7.175,7.175,0,0,0,6.992,7.043A7.288,7.288,0,0,0,70.109,69.4a6.353,6.353,0,0,0,1.865-4.667A7.174,7.174,0,0,0,64.98,57.686Z"/></svg>