<svg xmlns="http://www.w3.org/2000/svg" viewBox="0 0 96 96"><rect width="96" height="96" fill="#fff" opacity="0"/><path d="M89.874,52.51A2.827,2.827,0,0,0,87.029,49.7l-5.128.05L87.162,46.9A2.825,2.825,0,0,0,88.3,43.07L79.46,26.762a2.826,2.826,0,0,0-3.831-1.138L69.14,29.142l4.39-7.3a2.826,2.826,0,0,0-.965-3.878L56.668,8.4a2.827,2.827,0,0,0-3.879.966L46.561,19.727l.028,46.346-.141.066V11.023A2.826,2.826,0,0,0,43.622,8.2H25.072a2.826,2.826,0,0,0-2.826,2.826v60.37a2.826,2.826,0,0,0,2.826,2.826h18.55a2.8,2.8,0,0,0,.65-.083L87.193,73.9A2.825,2.825,0,0,0,90,71.059ZM68.73,29.824l-20.092,35.3-1.571.728Z" class="sgmaincolor"/><path d="M11.742,38.985a1.9,1.9,0,1,0-1.9-1.9A1.9,1.9,0,0,0,11.742,38.985Z"/><path d="M17.441,38.985a1.9,1.9,0,1,0-1.9-1.9A1.9,1.9,0,0,0,17.441,38.985Z"/><path d="M90.874,52.5a3.831,3.831,0,0,0-3.828-3.8h-.027l-1.1.01,1.724-.934a3.83,3.83,0,0,0,1.54-5.187l-8.84-16.307a3.824,3.824,0,0,0-5.187-1.54l-3.266,1.77,2.5-4.16A3.832,3.832,0,0,0,73.08,17.1l-15.9-9.558a3.831,3.831,0,0,0-5.25,1.307l-4.485,7.459V11.023A3.831,3.831,0,0,0,43.622,7.2H25.072a3.831,3.831,0,0,0-3.826,3.826V29.776H6a1,1,0,0,0-1,1V82a1,1,0,0,0,1,1h5.569v7a1,1,0,0,0,1,1H78.823a1,1,0,0,0,1-1V74.955l7.377-.05A3.827,3.827,0,0,0,91,71.052Zm-14.769-26a1.825,1.825,0,0,1,2.476.735l8.84,16.308a1.828,1.828,0,0,1-.735,2.475l-5.147,2.791a.971.971,0,0,0-.358.193L72.8,53.547,65,39.143a.965.965,0,0,0-.456-.409l5.318-8.844ZM69.4,73.026l-16.265.11-.045-5.47a.988.988,0,0,0-.538-.863l16.739-9.074ZM51.13,73.15l-4.145.028a3.77,3.77,0,0,0,.463-1.785V69.567L51.1,67.585c0,.034-.019.063-.019.1Zm-3.682-5.858v-.133l5.092-8.47,2.448,4.516ZM51.84,55.973a.984.984,0,0,0-.228.38l-4.164,6.925V48.228l6.646,4Zm4.907,6.279L53.737,56.7l9.729-16.181L71.045,54.5Zm-3.1-52.368a1.829,1.829,0,0,1,2.506-.624l15.9,9.558a1.83,1.83,0,0,1,.624,2.507l-4.323,7.19a.952.952,0,0,0-.1.162l-3.717,6.181L50.5,26.415a1,1,0,1,0-1.03,1.715l14.04,8.442L55.125,50.51l-7.677-4.616v-25.7Zm-30.4,1.139A1.828,1.828,0,0,1,25.072,9.2h18.55a1.829,1.829,0,0,1,1.826,1.826V26.814H29.064a1,1,0,0,0,0,2H45.448V45.079H29.064a1,1,0,0,0,0,2H45.448V71.393a1.821,1.821,0,0,1-1.63,1.806l-2.942.02h-15.8a1.828,1.828,0,0,1-1.826-1.826Zm-2,20.753V42.193H7V31.776ZM7,44.193H21.246v27.2a3.83,3.83,0,0,0,3.826,3.826h18.55c.067,0,.13-.016.2-.02l27.435-.186V81H7ZM77.823,89H13.569V83H72.253a1,1,0,0,0,1-1V75l4.57-.031ZM88.474,72.361a1.811,1.811,0,0,1-1.288.544l-14.9.1c-.013,0-.024-.007-.038-.007s-.026.007-.04.008l-.818,0-.111-15.627a.975.975,0,0,0-.234-.612L82.159,50.75l4.877-.046h.012a1.828,1.828,0,0,1,1.826,1.813L89,71.066A1.821,1.821,0,0,1,88.474,72.361Z"/><path d="M33.744,66.04a1.9,1.9,0,1,0-1.9-1.9A1.9,1.9,0,0,0,33.744,66.04Z"/></svg>