<svg xmlns="http://www.w3.org/2000/svg" viewBox="0 0 96 96"><rect width="96" height="96" fill="#fff" opacity="0"/><polygon points="85.987 74.004 85.987 60.004 77.987 53.004 46.987 53.004 38.987 60.004 38.987 74.004 50.987 83.004 50.987 64.004 50.987 91.004 73.987 91.004 73.987 83.004 85.987 74.004" class="sgmaincolor"/><circle cx="62.487" cy="37.504" r="13.5" class="sgmaincolor"/><path d="M86.645,59.251l-8-7s-.012-.006-.017-.01a.811.811,0,0,0-.109-.066.985.985,0,0,0-.215-.114.955.955,0,0,0-.14-.025A.893.893,0,0,0,77.987,52h-31a1,1,0,0,0-.211.038.646.646,0,0,0-.382.17c-.019.014-.042.02-.06.035h0l-8,7a1,1,0,0,0-.342.753V74a1,1,0,0,0,.4.8l11.6,8.7V91a1,1,0,0,0,1,1h23a1,1,0,0,0,1-1V83.5l11.6-8.7a1,1,0,0,0,.4-.8V60A1,1,0,0,0,86.645,59.251ZM73.986,54,62.972,59.878,51.223,54Zm11,19.5-10,7.5V64a1,1,0,0,0-2,0V90h-21V64a1,1,0,1,0-2,0V81l-10-7.5V60.458L47.14,54.2l15.4,7.7c.013.007.028,0,.041.01a1,1,0,0,0,.4.095h0a1.037,1.037,0,0,0,.254-.035c.028-.008.053-.021.08-.031a1.114,1.114,0,0,0,.136-.051l14.39-7.676,7.139,6.247Z"/><path d="M76.987,37.5A14.5,14.5,0,1,0,62.487,52,14.5,14.5,0,0,0,76.987,37.5ZM62.487,50a12.5,12.5,0,1,1,12.5-12.5A12.5,12.5,0,0,1,62.487,50Z"/><path d="M24.992,47h-8V16l-10,3V12l17-6h1Z"/></svg>