<svg width="145" height="55" viewBox="0 0 145 55" fill="none" xmlns="http://www.w3.org/2000/svg"><path fill-rule="evenodd" clip-rule="evenodd" d="M7.15 54.959C3.229 54.952.007 51.73 0 47.809V7.651C.007 3.73 3.229.508 7.15.5h130.7c3.921.007 7.143 3.229 7.15 7.15v40.151c-.007 3.921-3.229 7.143-7.15 7.15H7.15v.007z" fill="#008CFE"/><path fill-rule="evenodd" clip-rule="evenodd" d="M7.15 1.62c-3.306.006-6.032 2.725-6.032 6.03v40.152c.007 3.306 2.726 6.032 6.031 6.032h42.004V1.619H7.15zm98.886 36.342l.895-1.258a3.419 3.419 0 002.467 1.048c.909 0 1.349-.42 1.349-.86 0-.566-.72-.733-1.573-.943-1.272-.287-2.893-.636-2.893-2.404 0-1.293 1.118-2.363 2.942-2.363 1.237 0 2.258.37 3.026 1.084l-.922 1.209a3.356 3.356 0 00-2.258-.846c-.705 0-1.104.315-1.104.776 0 .503.713.664 1.545.86 1.272.3 2.907.685 2.907 2.446 0 1.419-1.013 2.488-3.103 2.488-1.489-.014-2.565-.503-3.278-1.237zm-7.073 0l.895-1.258a3.42 3.42 0 002.467 1.048c.909 0 1.349-.42 1.349-.86 0-.566-.72-.733-1.566-.943-1.271-.287-2.893-.636-2.893-2.404 0-1.293 1.118-2.363 2.942-2.363 1.23 0 2.258.37 3.027 1.084l-.916 1.209a3.356 3.356 0 00-2.257-.846c-.706 0-1.105.315-1.105.776 0 .503.713.664 1.545.86 1.272.3 2.907.685 2.907 2.446 0 1.419-1.013 2.488-3.103 2.488-1.495-.014-2.565-.503-3.291-1.237zm-25.754 0l.895-1.258a3.42 3.42 0 002.467 1.048c.908 0 1.349-.42 1.349-.86 0-.566-.72-.733-1.573-.943-1.272-.287-2.893-.636-2.893-2.404 0-1.293 1.118-2.363 2.942-2.363 1.237 0 2.257.37 3.026 1.084l-.922 1.209a3.356 3.356 0 00-2.258-.846c-.706 0-1.104.315-1.104.776 0 .503.706.664 1.545.86 1.272.3 2.907.685 2.907 2.446 0 1.419-1.013 2.488-3.103 2.488-1.482-.014-2.551-.503-3.278-1.237zm-8.093-1.999v-4.669h1.691V35.9c0 1.083.636 1.824 1.824 1.824 1.189 0 1.817-.748 1.817-1.824v-4.606h1.692v4.655c0 1.929-1.14 3.243-3.502 3.243-2.355.007-3.522-1.321-3.522-3.229zm24.3 3.096L85.72 34v5.06h-1.65v-7.765h1.691l3.6 4.865v-4.865h1.649v7.758h-1.594v.007zm-8.617 0v-7.765h1.65v7.758h-1.65v.007zm11.825 0v-7.765h5.5v1.454h-3.843v1.642h3.76v1.454h-3.76v1.754h3.837v1.454l-5.493.007zm-35.294 0v-7.765h4.082c1.481 0 2.236.944 2.236 1.978 0 .979-.608 1.629-1.335 1.782.825.126 1.482.93 1.482 1.901 0 1.16-.776 2.097-2.257 2.097l-4.208.007zm4.78-2.327c0-.49-.349-.909-.999-.909h-2.124v1.803h2.124c.622 0 1-.342 1-.894zm-.146-3.173a.849.849 0 00-.846-.846h-2.131v1.691h2.068c.56 0 .909-.349.909-.838v-.007zm3.033-11.707c0-2.383 1.803-4.018 4.13-4.018a3.565 3.565 0 013.244 1.9l-1.42.7a2.093 2.093 0 00-1.816-1.133c-1.405 0-2.433 1.084-2.433 2.537 0 1.454 1.02 2.537 2.433 2.537a2.07 2.07 0 001.824-1.125l1.412.706c-.56.964-1.538 1.9-3.243 1.9-2.32.008-4.13-1.614-4.13-4.004zm8.072 0c0-2.383 1.803-4.018 4.13-4.018a3.565 3.565 0 013.244 1.9l-1.42.7A2.099 2.099 0 0077.2 19.3c-1.405 0-2.432 1.084-2.432 2.537 0 1.454 1.02 2.537 2.432 2.537a2.07 2.07 0 001.824-1.125l1.419.685c-.56.964-1.538 1.9-3.243 1.9-2.32.029-4.13-1.593-4.13-3.983zm12.832 3.88l-1.523-2.748h-1.21v2.747H81.52v-7.758h3.627c1.615 0 2.607 1.056 2.607 2.502 0 1.37-.86 2.118-1.691 2.307l1.747 2.963-1.908-.014zm-23.217 0l-.475-1.315h-3.327l-.49 1.314h-1.887l3.006-7.758h2.069l2.99 7.758h-1.886zm58.679 0v-7.759h3.061c2.432 0 4.117 1.545 4.117 3.886s-1.692 3.872-4.117 3.872h-3.061zm-6.863 0v-7.759h5.5v1.454h-3.851v1.642h3.753v1.454h-3.753v1.754h3.837v1.454H114.5zm-10.12 0v-7.759h1.649v7.758h-1.649zm-8.436 0v-7.759h3.061c2.433 0 4.117 1.545 4.117 3.886s-1.691 3.872-4.117 3.872h-3.06zm-6.863 0v-7.759h5.5v1.454h-3.85v1.642h3.76v1.454h-3.76v1.754h3.836v1.454h-5.486zm20.359 0v-6.305h-2.272v-1.454h6.193v1.454h-2.258v6.304h-1.663zm17.423-3.873c0-1.37-.845-2.432-2.432-2.432h-1.405v4.85h1.405c1.524 0 2.418-1.104 2.418-2.418h.014zm-25.418 0c0-1.37-.846-2.432-2.433-2.432h-1.404v4.85h1.404c1.524 0 2.419-1.104 2.419-2.418h.014zm-40.9-2.236l-1.209 3.34h2.418l-1.209-3.34zm25.517.845c0-.65-.496-1.048-1.16-1.048h-1.734v2.097h1.734c.664 0 1.16-.392 1.16-1.049z" fill="#fff"/><path fill-rule="evenodd" clip-rule="evenodd" d="M17.375 45.363c1.104.49 1.642.81 1.852 2.18.356 2.39-1.846 3.3-3.921 3.3h-4.864V40.415h4.906c1.761 0 3.368.804 3.368 2.768 0 .978-.51 1.69-1.341 2.18zm9.742 0c1.104.49 1.643.81 1.852 2.18.357 2.39-1.845 3.3-3.92 3.3h-4.865V40.415h4.906c1.762 0 3.37.804 3.37 2.768 0 .978-.511 1.69-1.343 2.18zm11.595 2.188c-.21-1.37-.755-1.692-1.852-2.18.831-.49 1.349-1.203 1.349-2.188 0-1.964-1.608-2.768-3.369-2.768h-4.906v10.434h4.864c2.069 0 4.277-.908 3.914-3.298zm1.356.796v-.02a2.413 2.413 0 012.404-2.405 2.412 2.412 0 012.404 2.398v.02a2.413 2.413 0 01-2.404 2.405c-1.314.007-2.397-1.077-2.404-2.398zm4.592-.007v-.02a2.203 2.203 0 00-2.188-2.181 2.195 2.195 0 00-2.188 2.188v.02a2.203 2.203 0 002.188 2.181 2.195 2.195 0 002.188-2.188zm-3.132-1.307h1.105c.265-.014.53.084.733.26.133.125.203.3.203.474v.014c0 .399-.265.636-.636.727l.762.993h-.454l-.713-.93h-.63v.93h-.363l-.007-2.468zm-26.02 1.839h-2.851v-2.377h2.851c2.09 0 1.964 2.377 0 2.377zm9.743 0h-2.844v-2.377h2.844c2.09 0 1.964 2.377 0 2.377zm6.898-2.377v2.377h2.845c1.964 0 2.09-2.377 0-2.377h-2.845zm10.449 1.748c.342 0 .587-.161.587-.44v-.015c0-.258-.21-.426-.566-.426h-.727v.88h.706zm-29.941-5.836h2.558c1.593 0 1.65 2.222.098 2.222h-2.656v-2.222zm19.5 0h2.536c1.594 0 1.65 2.222.098 2.222h-2.649l.014-2.222zm-9.743 0h2.55c1.594 0 1.65 2.222.098 2.222h-2.655l.007-2.222zm-7.262-6.66h4.746l.845 2.879h7.758l.846-2.88h4.745l-.622-2.117H15.774l-.622 2.117zm5.745-17.06l-2.3 3.172c-1.153 1.587-.796 4.403.776 5.535l4.264 3.076c.733.53.79 1.055.44 1.607l.622.461 2.16-2.99c1.334-1.853 1.216-4.362-.762-5.809l-4.305-3.138c-.51-.377-.567-.901-.287-1.482l-.608-.433zm3.69-14.007L21.01 9.635c-1.678 2.32-1.07 6.284 1.223 7.975l5.885 4.32c1.195.873 1.348 3.11.482 4.248l.496.378 4.06-5.71c1.825-2.565 1.72-6.36-1.146-8.436l-6.297-4.578c-.88-.636-1.32-1.726-.587-2.767l-.538-.385z" fill="#008CFE"/></svg>