<svg width="77" height="124" viewBox="0 0 77 124" fill="none" xmlns="http://www.w3.org/2000/svg"><path fill-rule="evenodd" clip-rule="evenodd" d="M31.918 31.492l-4.45 6.03c-2.204 3.036-1.538 8.4 1.497 10.563L37.2 53.95c1.414.998 1.539 1.997.873 3.078l1.206.873 4.16-5.697c2.578-3.536 2.328-8.318-1.456-11.063l-8.318-5.989c-.998-.707-1.081-1.705-.54-2.828l-1.207-.831zm7.153-26.7l-6.903 9.44c-3.244 4.409-2.08 11.978 2.37 15.222l11.354 8.234c2.287 1.664 2.62 5.906.915 8.11l.956.707 7.86-10.896c3.536-4.908 3.328-12.102-2.204-16.095l-12.143-8.733c-1.706-1.207-2.537-3.286-1.123-5.282l-1.082-.707zM20.856 64.014h9.15l1.621 5.49H46.6l1.622-5.49h9.15l-1.207-4.034H22.02l-1.164 4.034zM7.589.176H69.68C73.715.176 77 3.419 77 7.412v108.421c0 3.951-3.285 7.194-7.32 7.194H7.59c-4.035 0-7.32-3.243-7.32-7.194V7.37C.27 3.42 3.555.176 7.59.176zm0 .499H69.68c3.743 0 6.82 3.036 6.82 6.737v108.421c0 3.701-3.077 6.737-6.82 6.737H7.59c-3.744 0-6.821-3.036-6.821-6.737V7.37c0-3.66 3.077-6.695 6.82-6.695zm67.373 98.231v16.885c0 2.87-2.37 5.24-5.323 5.24H7.589c-2.911 0-5.282-2.37-5.282-5.24V98.906h72.655zm-60.47 9.316l-2.703-6.696h-1.372l-2.745 6.696h1.539l.582-1.497h2.62l.583 1.497h1.497zm-2.62-2.786h-1.621l.457-1.206c.083-.208.125-.375.208-.583.042-.166.125-.332.166-.457a6.9 6.9 0 01.125.457c.042.167.125.375.208.583l.458 1.206zm8.693-2.828a3.543 3.543 0 00-1.706-1.082 3.049 3.049 0 00-.914-.124 3.25 3.25 0 00-1.29.249 3.35 3.35 0 00-.998.707c-.29.291-.499.665-.665 1.081-.167.416-.25.874-.25 1.414 0 .541.083.998.208 1.456.167.416.375.79.624 1.081.291.291.624.541.998.707.375.167.79.25 1.29.25.873 0 2.37-.458 2.786-1.289l-.998-.874c-.291.458-1.206.874-1.747.874-.25 0-.5-.042-.707-.167a1.867 1.867 0 01-.54-.457c-.167-.208-.25-.416-.333-.666a2.677 2.677 0 01-.125-.831c0-.292.041-.583.125-.874.083-.249.166-.499.332-.665.125-.167.333-.333.541-.458.208-.083.457-.166.707-.166.54 0 1.29.333 1.664.832l.998-.998zm13.599 5.614l-1.58-2.537c.457-.166.956-.457 1.206-.79.208-.333.332-.749.332-1.248 0-.374-.083-.665-.208-.956-.124-.25-.29-.499-.54-.666-.208-.166-.5-.291-.79-.416a3.553 3.553 0 00-.957-.124H28.3v6.695h1.414v-2.412l1.29.042 1.497 2.37 1.663.042zm-1.539-4.575c0 .583-.332.874-1.04.874h-1.87v-1.705h1.87c.333 0 .583.041.75.207.207.125.29.333.29.624zm7.528 4.575v-1.331H36.45v-1.622h2.995v-1.289h-2.953v-1.164h3.535v-1.331h-4.99v6.737h5.115zm6.903-3.369c0-.623-.083-1.123-.25-1.58-.165-.416-.415-.79-.748-1.04a3.621 3.621 0 00-1.123-.582c-.416-.125-.915-.166-1.414-.166h-2.245v6.737h2.12c.458 0 .916-.042 1.331-.208a3.417 3.417 0 001.165-.582 3.4 3.4 0 00.832-1.04c.208-.457.332-.956.332-1.539zm-1.497 0c0 .291-.041.583-.124.832-.084.25-.209.458-.416.666a1.812 1.812 0 01-.666.415c-.25.084-.582.167-.956.167h-.707v-4.117h.748c.749 0 1.29.166 1.622.499.333.374.5.873.5 1.538zm2.87 3.369h1.414v-6.696h-1.414v6.696zm8.11-5.406v-1.331h-5.532v1.331h2.038v5.406h1.456v-5.406h2.038zm12.933 2.037c0-.623-.083-1.123-.29-1.58-.167-.416-.416-.79-.75-1.04a3.621 3.621 0 00-1.122-.582c-.416-.125-.915-.166-1.414-.166H63.65v6.737h2.121c.458 0 .915-.042 1.331-.208a3.416 3.416 0 001.164-.582c.333-.291.624-.624.832-1.04a3.12 3.12 0 00.374-1.539zm-1.497 0c0 .291-.041.583-.124.832-.084.25-.208.458-.416.666a1.812 1.812 0 01-.666.415 3.3 3.3 0 01-.998.167h-.707v-4.117h.749c.748 0 1.289.166 1.622.499.374.374.54.873.54 1.538zm-5.406 3.369v-1.331h-3.702v-1.622h2.953v-1.289h-2.994v-1.164h3.535v-1.331h-4.99v6.737h5.198zm-11.978 8.65v-1.33h-3.7v-1.622h2.993v-1.29H46.89v-1.164h3.535v-1.331h-4.99v6.696l5.156.041zm-23.414-14.264a3.544 3.544 0 00-1.705-1.082 3.25 3.25 0 00-.915-.124c-.457 0-.915.083-1.29.249a3.35 3.35 0 00-.997.707c-.291.291-.5.665-.666 1.081a3.74 3.74 0 00-.25 1.414c0 .541.084.998.209 1.456.166.416.374.79.624 1.081.29.291.623.541.998.707.374.167.79.25 1.289.25.873 0 2.37-.458 2.786-1.289l-1.04-.874c-.29.458-1.205.874-1.746.874-.25 0-.5-.042-.707-.167a1.867 1.867 0 01-.54-.457 3.31 3.31 0 01-.333-.666 2.674 2.674 0 01-.125-.831c0-.292.041-.583.125-.874.083-.291.166-.499.332-.665.125-.167.333-.333.54-.458.209-.083.458-.166.708-.166.54 0 1.29.333 1.663.832l1.04-.998zm-5.864 12.102c0-.374-.083-.666-.29-.915-.167-.25-.417-.416-.708-.541.25-.125.416-.333.54-.54a1.48 1.48 0 00.209-.791c0-.582-.208-.998-.582-1.33-.416-.292-.957-.458-1.622-.458h-3.203v6.696h3.16c.375 0 .708-.042.999-.125a2.37 2.37 0 00.79-.416c.208-.166.374-.416.5-.665.166-.25.207-.541.207-.915zm-1.663-2.662a.626.626 0 01-.167.458c-.124.124-.332.166-.623.166h-1.83v-1.289h1.788c.291 0 .54.041.665.166s.167.291.167.499zm.208 2.703c0 .25-.084.499-.25.624-.166.167-.416.25-.748.25h-1.872v-1.747h1.872c.665 0 .998.291.998.873zm8.026-.831v-3.743h-1.372v3.784c0 .541-.125.957-.375 1.289a1.35 1.35 0 01-1.04.458c-.457 0-.79-.166-1.039-.458-.25-.332-.374-.748-.374-1.289v-3.743H22.27v3.785c0 .499.083.915.208 1.289.124.374.332.707.582.957.25.249.54.457.873.582.333.125.749.208 1.165.208.873 0 1.58-.25 2.08-.79.498-.583.748-1.331.706-2.329zm6.446.956c0-.374-.083-.665-.208-.915-.124-.249-.332-.416-.54-.582a2.114 2.114 0 00-.749-.374c-.29-.084-.54-.167-.832-.208-.29-.042-.499-.125-.707-.167a2.078 2.078 0 01-.416-.166c-.124-.042-.166-.125-.207-.208-.042-.083-.042-.166-.042-.291 0-.083 0-.166.042-.208a.73.73 0 01.166-.208 2.02 2.02 0 01.291-.125c.125-.041.291-.041.458-.041.332 0 .623.041.873.166s.499.291.707.499l.998-.956a4.218 4.218 0 00-1.123-.791 3.727 3.727 0 00-1.414-.291c-.333 0-.665.042-.956.125-.291.083-.583.208-.79.374-.209.167-.416.375-.541.624-.125.25-.208.541-.208.832 0 .333.041.624.166.832.125.208.25.416.458.54.208.167.416.292.707.375.25.083.582.166.873.249.333.083.582.125.79.208.208.042.375.125.458.208.124.083.166.125.208.208.041.083.041.166.041.291 0 .25-.083.458-.29.541-.209.125-.5.166-.916.166-.333 0-.665-.041-.956-.166a2.761 2.761 0 01-.832-.582l-.998.873c.25.374.623.665 1.123.873a4.03 4.03 0 001.622.333c.457 0 .873-.042 1.247-.166a1.81 1.81 0 00.832-.458c.208-.166.374-.416.499-.665.083-.167.166-.458.166-.749zm1.123 1.996h1.414v-6.695h-1.414v6.695zm8.484 0v-6.695h-1.372v4.283a3.752 3.752 0 00-.208-.332c-.083-.125-.166-.292-.291-.416l-2.454-3.535h-1.33v6.695h1.372v-4.408c.041.083.124.208.208.374.083.125.166.291.29.416l2.58 3.66 1.205-.042zm12.352-1.996c0-.374-.083-.665-.208-.915-.125-.249-.333-.416-.54-.582a2.113 2.113 0 00-.75-.374c-.29-.084-.54-.167-.83-.208-.292-.042-.5-.125-.708-.167a2.075 2.075 0 01-.416-.166.505.505 0 01-.208-.208c-.041-.083-.041-.166-.041-.291 0-.083 0-.166.041-.208a.73.73 0 01.167-.208c.083-.042.166-.083.29-.125.126-.041.292-.041.458-.041.333 0 .624.041.873.166.25.125.5.291.707.499l.999-.956a4.218 4.218 0 00-1.123-.791 3.78 3.78 0 00-2.412-.166c-.291.083-.583.208-.79.374-.209.167-.416.375-.541.624-.125.25-.208.541-.208.832 0 .333.041.624.166.832.125.208.25.416.458.54.208.167.416.292.707.375l.873.249c.333.083.582.125.79.208.208.042.374.125.458.208.125.083.166.125.208.208.041.083.041.166.041.291 0 .25-.083.458-.29.541-.209.125-.5.166-.916.166-.332 0-.665-.041-.956-.166a2.759 2.759 0 01-.832-.582l-.998.873c.25.374.624.665 1.123.873a3.83 3.83 0 001.58.333c.5 0 .873-.042 1.248-.166a2.21 2.21 0 00.873-.458c.208-.166.374-.416.5-.665.165-.167.207-.458.207-.749zm5.989 0c0-.374-.083-.665-.208-.915-.125-.249-.333-.416-.54-.582a2.113 2.113 0 00-.75-.374c-.29-.084-.54-.167-.831-.208-.291-.042-.5-.125-.707-.167a2.075 2.075 0 01-.416-.166c-.125-.042-.166-.125-.208-.208-.042-.083-.042-.166-.042-.291 0-.083 0-.166.042-.208a.73.73 0 01.166-.208 2.03 2.03 0 01.291-.125c.125-.041.291-.041.458-.041.333 0 .624.041.873.166.25.125.5.291.707.499l.998-.956a4.218 4.218 0 00-1.122-.791 3.78 3.78 0 00-2.413-.166c-.29.083-.582.208-.79.374-.208.167-.416.375-.54.624-.125.25-.208.541-.208.832 0 .333.041.624.166.832.125.208.25.416.457.54.208.167.416.292.707.375.25.083.583.166.874.249.333.083.582.125.79.208.208.042.374.125.457.208.125.083.167.125.208.208.042.083.042.166.042.291 0 .25-.083.458-.291.541-.208.125-.5.166-.915.166-.333 0-.666-.041-.957-.166a2.76 2.76 0 01-.831-.582l-.998.873c.249.374.623.665 1.122.873a3.83 3.83 0 001.58.333c.458 0 .874-.042 1.248-.166a1.81 1.81 0 00.832-.458c.208-.166.374-.416.5-.665.207-.167.249-.458.249-.749zM21.52 89.05h-5.49v-4.533h5.49c4.034 0 3.785 4.533 0 4.533zm18.798 0h-5.49v-4.533h5.49c4.034 0 3.826 4.533 0 4.533zm18.84 0h-5.49v-4.533h5.49c4.034 0 3.784 4.533 0 4.533zm-38.012-8.11h-5.115v-4.242h4.907c3.12 0 3.202 4.242.208 4.242zm18.798 0h-5.116v-4.242h4.908c3.119 0 3.202 4.242.208 4.242zm18.84 0h-5.116v-4.242h4.907c3.078 0 3.203 4.242.208 4.242zm-30.07 5.573c-.373-2.62-1.455-3.244-3.576-4.159 1.622-.915 2.579-2.287 2.579-4.159 0-3.743-3.12-5.281-6.488-5.281h-9.482v19.879h9.399c3.992 0 8.234-1.705 7.569-6.28zm18.799 0c-.374-2.62-1.456-3.244-3.577-4.159 1.622-.915 2.579-2.287 2.579-4.159 0-3.743-3.12-5.281-6.488-5.281h-9.482v19.879h9.399c3.992 0 8.234-1.705 7.569-6.28zm18.798 0c-.374-2.62-1.456-3.244-3.577-4.159 1.622-.915 2.579-2.287 2.579-4.159 0-3.743-3.12-5.281-6.488-5.281h-9.44v19.879h9.398c3.993 0 8.235-1.705 7.528-6.28z" fill="#008CFE"/><path fill-rule="evenodd" clip-rule="evenodd" d="M7.59.675h62.09c3.743 0 6.82 3.036 6.82 6.737v108.421c0 3.701-3.077 6.737-6.82 6.737H7.59c-3.744 0-6.821-3.036-6.821-6.737V7.37c0-3.66 3.077-6.695 6.82-6.695zm19.878 36.847l4.45-6.03 1.206.831c-.54 1.123-.457 2.121.541 2.828l8.318 5.989c3.784 2.745 4.034 7.527 1.455 11.063L39.28 57.9l-1.206-.873c.666-1.081.541-2.08-.873-3.078l-8.235-5.864c-3.035-2.162-3.7-7.527-1.497-10.563zm4.7-23.29l6.903-9.44 1.082.707c-1.414 1.996-.582 4.076 1.123 5.282l12.143 8.733c5.532 3.993 5.74 11.187 2.205 16.095l-7.86 10.896-.957-.707c1.705-2.204 1.372-6.446-.915-8.11l-11.354-8.234c-4.45-3.244-5.614-10.813-2.37-15.222zm-2.163 49.782h-9.15l1.165-4.034h34.144l1.206 4.034h-9.15l-1.621 5.49H31.627l-1.622-5.49zm44.957 51.777V98.906H2.307v16.885c0 2.87 2.37 5.24 5.282 5.24h62.05c2.953 0 5.323-2.37 5.323-5.24zM25.14 82.354c2.121.915 3.203 1.539 3.577 4.159.665 4.575-3.577 6.28-7.57 6.28h-9.398v-19.88h9.482c3.369 0 6.488 1.54 6.488 5.282 0 1.872-.957 3.244-2.579 4.16zm18.798 0c2.121.915 3.203 1.539 3.577 4.159.665 4.575-3.577 6.28-7.57 6.28h-9.398v-19.88h9.482c3.369 0 6.488 1.54 6.488 5.282 0 1.872-.957 3.244-2.579 4.16zm18.798 0c2.121.915 3.203 1.539 3.577 4.159.707 4.575-3.535 6.28-7.528 6.28h-9.399v-19.88h9.44c3.37 0 6.489 1.54 6.489 5.282 0 1.872-.957 3.244-2.579 4.16z" fill="#fff"/><path d="M21.147 80.94h-5.115v-4.242h4.907c3.12 0 3.202 4.242.208 4.242zm18.798 0h-5.116v-4.242h4.908c3.119 0 3.202 4.242.208 4.242zm.208 27.282v-1.331H36.45v-1.622h2.995v-1.289h-2.953v-1.164h3.535v-1.331h-4.99v6.737h5.115zm.167-19.172h-5.49v-4.533h5.49c4.033 0 3.825 4.533 0 4.533zm18.464-8.11H53.67v-4.242h4.907c3.078 0 3.203 4.242.208 4.242zm.375 8.11h-5.49v-4.533h5.49c4.034 0 3.784 4.533 0 4.533zm-37.638 0h-5.49v-4.533h5.49c4.034 0 3.785 4.533 0 4.533z" fill="#fff"/><path fill-rule="evenodd" clip-rule="evenodd" d="M34.164 108.222l-1.58-2.537c.457-.166.956-.457 1.206-.79.208-.333.332-.749.332-1.248 0-.374-.083-.665-.208-.956-.124-.25-.29-.499-.54-.666-.208-.166-.5-.291-.79-.416a3.553 3.553 0 00-.957-.124H28.3v6.695h1.414v-2.412l1.29.042 1.497 2.37 1.663.042zm-2.578-3.701c.707 0 1.04-.291 1.04-.874 0-.291-.084-.499-.292-.624-.166-.166-.416-.207-.748-.207h-1.872v1.705h1.872z" fill="#fff"/><path d="M27.177 102.608a3.544 3.544 0 00-1.705-1.082 3.25 3.25 0 00-.915-.124c-.457 0-.915.083-1.29.249a3.35 3.35 0 00-.997.707c-.291.291-.5.665-.666 1.081a3.74 3.74 0 00-.25 1.414c0 .541.084.998.209 1.456.166.416.374.79.624 1.081.29.291.623.541.998.707.374.167.79.25 1.289.25.873 0 2.37-.458 2.786-1.289l-1.04-.874c-.29.458-1.205.874-1.746.874-.25 0-.5-.042-.707-.167a1.867 1.867 0 01-.54-.457 3.31 3.31 0 01-.333-.666 2.674 2.674 0 01-.125-.831c0-.292.041-.583.125-.874.083-.291.166-.499.332-.665.125-.167.333-.333.54-.458.209-.083.458-.166.708-.166.54 0 1.29.333 1.663.832l1.04-.998zm29.362.208v-1.331h-5.532v1.331h2.038v5.406h1.456v-5.406h2.038zm-8.11 5.406h1.414v-6.696h-1.414v6.696z" fill="#fff"/><path fill-rule="evenodd" clip-rule="evenodd" d="M47.056 104.853c0-.623-.083-1.123-.25-1.58-.165-.416-.415-.79-.748-1.04a3.621 3.621 0 00-1.123-.582c-.416-.125-.915-.166-1.414-.166h-2.245v6.737h2.12c.458 0 .916-.042 1.331-.208a3.417 3.417 0 001.165-.582 3.4 3.4 0 00.832-1.04c.208-.457.332-.956.332-1.539zm-1.621.832c.083-.249.124-.541.124-.832 0-.665-.166-1.164-.499-1.538-.333-.333-.873-.499-1.622-.499h-.748v4.117h.707c.374 0 .707-.083.956-.167.25-.083.5-.249.666-.415.208-.208.332-.416.416-.666z" fill="#fff"/><path d="M62.569 108.222v-1.331h-3.702v-1.622h2.953v-1.289h-2.994v-1.164h3.535v-1.331h-4.99v6.737h5.198z" fill="#fff"/><path fill-rule="evenodd" clip-rule="evenodd" d="M69.472 104.853c0-.623-.083-1.123-.29-1.58-.167-.416-.416-.79-.75-1.04a3.621 3.621 0 00-1.122-.582c-.416-.125-.915-.166-1.414-.166H63.65v6.737h2.121c.458 0 .915-.042 1.331-.208a3.416 3.416 0 001.164-.582c.333-.291.624-.624.832-1.04a3.12 3.12 0 00.374-1.539zm-1.621.832c.083-.249.124-.541.124-.832 0-.665-.166-1.164-.54-1.538-.333-.333-.874-.499-1.622-.499h-.749v4.117h.707a3.3 3.3 0 00.998-.167c.25-.083.5-.249.666-.415.208-.208.332-.416.416-.666z" fill="#fff"/><path d="M43.937 116.872v-6.695h-1.372v4.283a3.752 3.752 0 00-.208-.332c-.083-.125-.166-.292-.291-.416l-2.454-3.535h-1.33v6.695h1.372v-4.408c.041.083.124.208.208.374.083.125.166.291.29.416l2.58 3.66 1.205-.042zm6.654 0v-1.33h-3.7v-1.622h2.993v-1.29H46.89v-1.164h3.535v-1.331h-4.99v6.696l5.156.041zm5.698-1.996c0-.374-.083-.665-.208-.915-.125-.249-.333-.416-.54-.582a2.113 2.113 0 00-.75-.374c-.29-.084-.54-.167-.83-.208-.292-.042-.5-.125-.708-.167a2.075 2.075 0 01-.416-.166.505.505 0 01-.208-.208c-.041-.083-.041-.166-.041-.291 0-.083 0-.166.041-.208a.73.73 0 01.167-.208c.083-.042.166-.083.29-.125.126-.041.292-.041.458-.041.333 0 .624.041.873.166.25.125.5.291.707.499l.999-.956a4.218 4.218 0 00-1.123-.791 3.78 3.78 0 00-2.412-.166c-.291.083-.583.208-.79.374-.209.167-.416.375-.541.624-.125.25-.208.541-.208.832 0 .333.041.624.166.832.125.208.25.416.458.54.208.167.416.292.707.375l.873.249c.333.083.582.125.79.208.208.042.374.125.458.208.125.083.166.125.208.208.041.083.041.166.041.291 0 .25-.083.458-.29.541-.209.125-.5.166-.916.166-.332 0-.665-.041-.956-.166a2.759 2.759 0 01-.832-.582l-.998.873c.25.374.624.665 1.123.873a3.83 3.83 0 001.58.333c.5 0 .873-.042 1.248-.166a2.21 2.21 0 00.873-.458c.208-.166.374-.416.5-.665.165-.167.207-.458.207-.749zm5.989 0c0-.374-.083-.665-.208-.915-.125-.249-.333-.416-.54-.582a2.113 2.113 0 00-.75-.374c-.29-.084-.54-.167-.831-.208-.291-.042-.5-.125-.707-.167a2.075 2.075 0 01-.416-.166c-.125-.042-.166-.125-.208-.208-.042-.083-.042-.166-.042-.291 0-.083 0-.166.042-.208a.73.73 0 01.166-.208 2.03 2.03 0 01.291-.125c.125-.041.291-.041.458-.041.333 0 .624.041.873.166.25.125.5.291.707.499l.998-.956a4.218 4.218 0 00-1.122-.791 3.78 3.78 0 00-2.413-.166c-.29.083-.582.208-.79.374-.208.167-.416.375-.54.624-.125.25-.208.541-.208.832 0 .333.041.624.166.832.125.208.25.416.457.54.208.167.416.292.707.375.25.083.583.166.874.249.333.083.582.125.79.208.208.042.374.125.457.208.125.083.167.125.208.208.042.083.042.166.042.291 0 .25-.083.458-.291.541-.208.125-.5.166-.915.166-.333 0-.666-.041-.957-.166a2.76 2.76 0 01-.831-.582l-.998.873c.249.374.623.665 1.122.873a3.83 3.83 0 001.58.333c.458 0 .874-.042 1.248-.166a1.81 1.81 0 00.832-.458c.208-.166.374-.416.5-.665.207-.167.249-.458.249-.749zm-26.825 1.996h1.414v-6.695h-1.414v6.695zm-1.123-1.996c0-.374-.083-.665-.208-.915-.124-.249-.332-.416-.54-.582a2.114 2.114 0 00-.749-.374c-.29-.084-.54-.167-.832-.208-.29-.042-.499-.125-.707-.167a2.078 2.078 0 01-.416-.166c-.124-.042-.166-.125-.207-.208-.042-.083-.042-.166-.042-.291 0-.083 0-.166.042-.208a.73.73 0 01.166-.208 2.02 2.02 0 01.291-.125c.125-.041.291-.041.458-.041.332 0 .623.041.873.166s.499.291.707.499l.998-.956a4.218 4.218 0 00-1.123-.791 3.727 3.727 0 00-1.414-.291c-.333 0-.665.042-.956.125-.291.083-.583.208-.79.374-.209.167-.416.375-.541.624-.125.25-.208.541-.208.832 0 .333.041.624.166.832.125.208.25.416.458.54.208.167.416.292.707.375.25.083.582.166.873.249.333.083.582.125.79.208.208.042.375.125.458.208.124.083.166.125.208.208.041.083.041.166.041.291 0 .25-.083.458-.29.541-.209.125-.5.166-.916.166-.333 0-.665-.041-.956-.166a2.761 2.761 0 01-.832-.582l-.998.873c.25.374.623.665 1.123.873a4.03 4.03 0 001.622.333c.457 0 .873-.042 1.247-.166a1.81 1.81 0 00.832-.458c.208-.166.374-.416.499-.665.083-.167.166-.458.166-.749zm-6.446-.956v-3.743h-1.372v3.784c0 .541-.125.957-.375 1.289a1.35 1.35 0 01-1.04.458c-.457 0-.79-.166-1.039-.458-.25-.332-.374-.748-.374-1.289v-3.743H22.27v3.785c0 .499.083.915.208 1.289.124.374.332.707.582.957.25.249.54.457.873.582.333.125.749.208 1.165.208.873 0 1.58-.25 2.08-.79.498-.583.748-1.331.706-2.329z" fill="#fff"/><path fill-rule="evenodd" clip-rule="evenodd" d="M21.313 114.71c0-.374-.083-.666-.29-.915-.167-.25-.417-.416-.708-.541.25-.125.416-.333.54-.54a1.48 1.48 0 00.209-.791c0-.582-.208-.998-.582-1.33-.416-.292-.957-.458-1.622-.458h-3.203v6.696h3.16c.375 0 .708-.042.999-.125a2.37 2.37 0 00.79-.416c.208-.166.374-.416.5-.665.166-.25.207-.541.207-.915zm-1.83-2.204a.626.626 0 00.167-.458c0-.208-.042-.374-.167-.499-.124-.125-.374-.166-.665-.166H17.03v1.289h1.83c.29 0 .499-.042.623-.166zm.125 2.869c.166-.125.25-.374.25-.624 0-.582-.333-.873-.998-.873h-1.872v1.747h1.872c.332 0 .582-.083.748-.25z" fill="#fff"/><path d="M20.565 102.608a3.543 3.543 0 00-1.706-1.082 3.049 3.049 0 00-.914-.124 3.25 3.25 0 00-1.29.249 3.35 3.35 0 00-.998.707c-.29.291-.499.665-.665 1.081-.167.416-.25.874-.25 1.414 0 .541.083.998.208 1.456.167.416.375.79.624 1.081.291.291.624.541.998.707.375.167.79.25 1.29.25.873 0 2.37-.458 2.786-1.289l-.998-.874c-.291.458-1.206.874-1.747.874-.25 0-.5-.042-.707-.167a1.867 1.867 0 01-.54-.457c-.167-.208-.25-.416-.333-.666a2.677 2.677 0 01-.125-.831c0-.292.041-.583.125-.874.083-.249.166-.499.332-.665.125-.167.333-.333.541-.458.208-.083.457-.166.707-.166.54 0 1.29.333 1.664.832l.998-.998z" fill="#fff"/><path fill-rule="evenodd" clip-rule="evenodd" d="M14.493 108.222l-2.704-6.696h-1.372l-2.745 6.696h1.539l.582-1.497h2.62l.583 1.497h1.497zm-4.242-2.786h1.622l-.458-1.206a5.01 5.01 0 01-.208-.583 6.9 6.9 0 00-.125-.457c-.041.125-.124.291-.166.457-.083.208-.125.375-.208.583l-.457 1.206z" fill="#fff"/></svg>