<svg width="25" height="25" viewBox="0 0 25 25" fill="none" xmlns="http://www.w3.org/2000/svg"><path d="M5.168 10.816c0 4.852 4.244 8.864 6.123 10.402.269.22.405.332.606.388.156.044.386.044.542 0 .2-.056.336-.167.606-.388 1.879-1.538 6.123-5.55 6.123-10.402a6.885 6.885 0 00-2.05-4.895 7.04 7.04 0 00-4.95-2.028 7.04 7.04 0 00-4.95 2.028 6.884 6.884 0 00-2.05 4.895z" stroke="#008CFE" stroke-width="2" stroke-linecap="round" stroke-linejoin="round"/><path d="M10.168 9.893a2 2 0 104 0 2 2 0 00-4 0z" stroke="#008CFE" stroke-width="2" stroke-linecap="round" stroke-linejoin="round"/></svg>