<svg width="101" height="75" viewBox="0 0 101 75" fill="none" xmlns="http://www.w3.org/2000/svg"><path d="M66.699 31.705v-6.808h10.64L51.971 9.543a2.145 2.145 0 00-2.214-.005L24.16 24.896l8.893 6.809H5.43c-1.539 0-2.107-2.023-.792-2.824l45.1-27.464a2.145 2.145 0 012.248.01L97.47 29.722c.916.57.513 1.983-.566 1.983H66.699z" fill="url(#paint0_linear_1384_10321)"/><path fill-rule="evenodd" clip-rule="evenodd" d="M46.085 46.454a4.666 4.666 0 01-9.332 0V38.36l9.332-6.64v14.734z" fill="#000"/><path d="M63.909 46.454V28.11a3.217 3.217 0 00-3.217-3.217h-6.115v21.561a4.666 4.666 0 109.332 0z" fill="#000"/><path d="M53.643 31.72c1.546 0 .692.26.933 4.82V24.895l-8.49 6.827h7.557z" fill="#000"/><path fill-rule="evenodd" clip-rule="evenodd" d="M44.218 24.894c1.03 0 1.866.836 1.867 1.866v4.96h-7.973l-1.36-.725v-6.101h7.466z" fill="#000"/><path d="M36.753 30.995v.726h1.359l-1.36-.726zm9.332 15.459a4.666 4.666 0 01-4.666 4.666h4.666v-4.666zm13.158 4.666a4.666 4.666 0 01-4.667-4.666v4.666h4.667z" fill="#000"/><path d="M76.155 51.734C74.235 65.394 62.8 73.846 50.919 73.75c-13.545-.108-23.77-10.885-24.805-22.099-.05-.54.285-1.143.854-1.181.93-.062 1.275 1.36 2.148 3.055 4.06 7.886 12.45 13.216 21.803 13.216 9.352 0 18.34-5.98 22.069-15.006.87-2.105 3.412-1.746 3.167-.002z" fill="#000"/><defs><linearGradient id="paint0_linear_1384_10321" x1="-.53" y1=".73" x2="94.17" y2="46.971" gradientUnits="userSpaceOnUse"><stop stop-color="#B780FF"/><stop offset="1" stop-color="#8136E2"/></linearGradient></defs></svg>