<svg width="282" height="49" viewBox="0 0 282 49" fill="none" xmlns="http://www.w3.org/2000/svg"><path d="M43.264 20.693v-4.416h6.902L33.71 6.317a1.391 1.391 0 00-1.436-.002L15.67 16.277l5.77 4.416H3.52c-.998 0-1.366-1.312-.513-1.831L32.263 1.047a1.391 1.391 0 011.458.007l29.503 18.353c.594.37.332 1.286-.367 1.286H43.264z" fill="url(#paint0_linear_1762_398)"/><path fill-rule="evenodd" clip-rule="evenodd" d="M29.894 30.26a3.027 3.027 0 01-6.054 0v-5.25l6.054-4.306v9.556z" fill="#fff"/><path d="M41.455 30.26V18.362a2.087 2.087 0 00-2.087-2.087h-3.966V30.26a3.027 3.027 0 006.053 0z" fill="#fff"/><path d="M34.796 20.704c1.003 0 .449.167.606 3.126v-7.555l-5.508 4.429h4.902z" fill="#fff"/><path fill-rule="evenodd" clip-rule="evenodd" d="M28.683 16.275c.668 0 1.21.542 1.21 1.211v3.218h-5.171l-.882-.471v-3.958h4.843z" fill="#fff"/><path d="M23.84 20.233v.47h.882l-.882-.47zm6.054 10.027a3.027 3.027 0 01-3.027 3.027h3.027V30.26zm8.534 3.027a3.027 3.027 0 01-3.026-3.027v3.027h3.026z" fill="#fff"/><path d="M49.398 33.685c-1.246 8.861-8.663 14.343-16.37 14.282-8.785-.07-15.418-7.06-16.09-14.335-.032-.35.186-.742.554-.766.604-.04.827.882 1.394 1.981 2.634 5.116 8.075 8.573 14.142 8.573s11.897-3.879 14.315-9.734c.564-1.365 2.213-1.132 2.054-.001z" fill="#fff"/><path d="M77.613 38.556v.25h6.065V18.611l13.538 20.085.074.11h6.49V9.816h-6.067V29.97L84.176 9.926l-.075-.11h-6.488v28.74zm52.936-9.25l.074-.074v-1.059c0-3.34-1.154-6.149-3.18-8.122-2.026-1.973-4.906-3.092-8.325-3.092-3.42 0-6.299 1.12-8.325 3.092-2.027 1.973-3.181 4.782-3.181 8.122s1.154 6.149 3.181 8.122c2.026 1.973 4.905 3.093 8.325 3.093 5.168 0 9.591-3.138 10.996-7.82l.097-.323h-5.564l-.068.146c-.911 1.98-3.101 3.342-5.461 3.342-3.016 0-5.352-1.978-5.894-4.939h16.837l.073-.073.415-.416zm8.327 9.332l.059.168h5.438l.049-.187 3.289-12.498 3.328 12.499.05.186h5.438l.058-.169 7.143-20.765.114-.332h-5.772l-.053.181-4.105 14.231-3.634-14.223-.048-.189h-5.041l-.048.189-3.634 14.223-4.105-14.23-.052-.182h-5.774l.116.333 7.184 20.765zm28.505-.082v.25h6.066V19.625l7.657 19.024.063.157h5.073l.063-.157 7.657-19.024v19.181h6.066V9.816h-7.31l-.065.152-8.947 20.931-8.948-20.931-.065-.152h-7.31v28.74zm59.385-9.25l.074-.074v-1.059c0-3.34-1.154-6.149-3.18-8.122-2.027-1.973-4.906-3.092-8.325-3.092-3.42 0-6.299 1.12-8.325 3.092-2.027 1.973-3.181 4.782-3.181 8.122s1.154 6.149 3.181 8.122c2.026 1.973 4.905 3.093 8.325 3.093 5.168 0 9.591-3.138 10.996-7.82l.097-.323h-5.565l-.067.146c-.911 1.98-3.102 3.342-5.461 3.342-3.016 0-5.352-1.978-5.894-4.939h16.837l.073-.073.415-.415zm.972-7.362v.25h3.323V33.24c0 1.835.725 3.38 1.993 4.463 1.264 1.08 3.049 1.685 5.151 1.685 1.351 0 2.798-.252 3.628-.602l.153-.064v-3.988h-3.864c-.485 0-.877-.158-1.146-.414-.268-.255-.43-.624-.43-1.08V22.194h5.232v-4.653h-5.232V9.815h-5.485v7.724h-3.323v4.404zm17.639 16.612v.25h5.485V26.263c0-1.32.519-2.412 1.426-3.178.911-.769 2.231-1.223 3.846-1.223h1.954v-4.237l-.152-.065c-.618-.264-1.524-.435-2.3-.435-1.753 0-3.591.93-4.774 2.349V17.54h-5.485v21.015zM119.118 21.613a6.014 6.014 0 015.48 3.527h-10.961a6.015 6.015 0 015.481-3.527zm90.736 3.527a6.014 6.014 0 015.481-3.527 6.014 6.014 0 015.48 3.527h-10.961zm48.744 3.033c0 3.34 1.153 6.149 3.18 8.122 2.026 1.973 4.906 3.093 8.325 3.093 3.419 0 6.299-1.12 8.325-3.093 2.027-1.973 3.18-4.782 3.18-8.122s-1.153-6.149-3.18-8.122c-2.026-1.973-4.906-3.092-8.325-3.092-3.419 0-6.299 1.12-8.325 3.092-2.027 1.973-3.18 4.782-3.18 8.122zm17.525 0c0 1.919-.615 3.493-1.664 4.587-1.048 1.093-2.548 1.724-4.356 1.724-1.808 0-3.308-.631-4.356-1.724-1.049-1.094-1.664-2.668-1.664-4.587 0-1.918.615-3.493 1.664-4.587 1.048-1.092 2.548-1.724 4.356-1.724 1.808 0 3.308.632 4.356 1.724 1.049 1.094 1.664 2.669 1.664 4.587z" fill="#fff" stroke="#fff" stroke-width=".501"/><defs><linearGradient id="paint0_linear_1762_398" x1="-.344" y1=".602" x2="61.083" y2="30.596" gradientUnits="userSpaceOnUse"><stop stop-color="#B780FF"/><stop offset="1" stop-color="#8136E2"/></linearGradient></defs></svg>