<svg width="25" height="25" viewBox="0 0 25 25" fill="none" xmlns="http://www.w3.org/2000/svg"><path d="M4.668 7.243l5.608 4.112.002.002c.678.497 1.017.746 1.389.842a2 2 0 001.002 0c.372-.096.712-.346 1.391-.844l5.608-4.112m-16.5 9.3v-7.6c0-1.12 0-1.68.218-2.109.192-.376.497-.682.874-.873.428-.218.988-.218 2.108-.218h11.6c1.12 0 1.68 0 2.107.218.377.191.683.497.875.873.218.428.218.988.218 2.106v7.606c0 1.118 0 1.677-.218 2.105a2.003 2.003 0 01-.875.874c-.427.218-.986.218-2.104.218H6.365c-1.118 0-1.678 0-2.105-.218a2 2 0 01-.874-.874c-.218-.428-.218-.988-.218-2.108z" stroke="#008CFE" stroke-width="2" stroke-linecap="round" stroke-linejoin="round"/></svg>