<svg width="64" height="65" viewBox="0 0 64 65" fill="none" xmlns="http://www.w3.org/2000/svg"><rect x="1" y="1.826" width="62" height="62" rx="31" fill="url(#paint0_linear_1698_4233)"/><rect x="1" y="1.826" width="62" height="62" rx="31" stroke="#000" stroke-width="2"/><rect x="1" y="1.826" width="62" height="62" rx="31" stroke="url(#paint1_linear_1698_4233)" stroke-width="2"/><path d="M32.356 21.286c4.352 0 7.328 2.528 7.328 6.816 0 2.88-1.024 4.384-3.456 6.496l-6.4 5.504h10.048v4.224H24.068v-5.088l8.8-7.904c1.6-1.44 2.016-2.176 2.016-3.168 0-1.472-1.312-2.464-2.784-2.464-1.632 0-2.784 1.12-2.944 2.88l-4.8-.352c.288-4.48 3.328-6.944 8-6.944z" fill="#fff"/><defs><linearGradient id="paint0_linear_1698_4233" x1="32" y1=".826" x2="32" y2="64.826" gradientUnits="userSpaceOnUse"><stop stop-color="#008CFE"/><stop offset="1" stop-color="#7E39E3"/></linearGradient><linearGradient id="paint1_linear_1698_4233" x1="32" y1=".826" x2="32" y2="64.826" gradientUnits="userSpaceOnUse"><stop stop-color="#008CFE"/><stop offset="1" stop-color="#7E39E3"/></linearGradient></defs></svg>