<svg width="64" height="65" viewBox="0 0 64 65" fill="none" xmlns="http://www.w3.org/2000/svg"><rect x="1" y="1.826" width="62" height="62" rx="31" fill="url(#paint0_linear_1698_4239)"/><rect x="1" y="1.826" width="62" height="62" rx="31" stroke="#000" stroke-width="2"/><rect x="1" y="1.826" width="62" height="62" rx="31" stroke="url(#paint1_linear_1698_4239)" stroke-width="2"/><path d="M31.78 21.286c4.48 0 7.648 2.272 7.648 6.304 0 2.592-1.44 4.448-3.872 4.96v.096c2.688.352 4.256 2.624 4.256 5.28 0 4.256-3.36 6.784-8.16 6.784-4.384 0-7.296-2.112-8.128-5.856l5.056-1.184c.32 1.632 1.344 2.624 3.36 2.624 1.952 0 3.072-1.088 3.072-2.912 0-2.624-2.592-2.624-4.352-2.624h-1.248v-4.16h1.472c2.496 0 3.744-.736 3.744-2.528 0-1.44-1.28-2.368-2.816-2.368-1.344 0-2.464.736-2.816 2.112l-5.28-1.088c.928-3.552 3.744-5.44 8.064-5.44z" fill="#fff"/><defs><linearGradient id="paint0_linear_1698_4239" x1="32" y1=".826" x2="32" y2="64.826" gradientUnits="userSpaceOnUse"><stop stop-color="#008CFE"/><stop offset="1" stop-color="#7E39E3"/></linearGradient><linearGradient id="paint1_linear_1698_4239" x1="32" y1=".826" x2="32" y2="64.826" gradientUnits="userSpaceOnUse"><stop stop-color="#008CFE"/><stop offset="1" stop-color="#7E39E3"/></linearGradient></defs></svg>