<svg id="beaa314a-578b-422e-ab4c-4640d5356b45" data-name="Icons" xmlns="http://www.w3.org/2000/svg" width="64" height="64" viewBox="0 0 130.225 130.221"><path d="M125.458,66.468l11.534-7.143-8.984-21.157L115,40.827c-2.531-3.261-6.2-6.439-9.3-9.659l2.479-13.377L86.884,9l-7.21,11.42a102.142,102.142,0,0,0-13.212-.193L59.36,9.261,38.2,18.246,40.86,31.252c-3.83,2.572-6.438,6.2-9.657,9.3L17.826,38.078,9.032,59.368l11.422,7.211a53.51,53.51,0,0,0-.2,13.212L9.3,86.893l8.986,21.157,13.006-2.657c2.57,3.83,6.2,6.438,9.3,9.658l-2.48,13.377L59.4,137.22l7.21-11.421c4.648.813,8.645.525,13.212.195l7.1,10.965,21.157-8.986-2.659-13.007c3.261-2.529,6.44-6.2,9.658-9.3l13.379,2.479,8.793-21.291-11.424-7.212c.244-4.607.525-8.644-.374-13.171" transform="translate(-8.032 -7.998)" fill="#ebe0ef"/><path d="M59.405,138.22a1,1,0,0,1-.382-.076L37.73,129.352a1,1,0,0,1-.6-1.107l2.383-12.866c-.91-.921-1.878-1.811-2.817-2.675a41.146,41.146,0,0,1-5.853-6.2L18.481,109.03a.993.993,0,0,1-1.12-.589L8.375,87.284a1,1,0,0,1,.376-1.229l10.468-6.782a54.158,54.158,0,0,1,.142-12.2L8.5,60.214a1,1,0,0,1-.39-1.228L16.9,37.7a1,1,0,0,1,1.105-.6l12.868,2.383c.921-.912,1.811-1.879,2.675-2.819a41.19,41.19,0,0,1,6.2-5.852L37.223,18.446a1,1,0,0,1,.589-1.121L58.969,8.341a1,1,0,0,1,1.23.377l6.783,10.47a96.388,96.388,0,0,1,11.384.16l.776.041,6.9-10.924a1,1,0,0,1,1.227-.39l21.293,8.792a1,1,0,0,1,.6,1.107l-2.386,12.869c.924.945,1.9,1.9,2.856,2.828a73.659,73.659,0,0,1,5.772,6.054l12.4-2.537a1,1,0,0,1,1.121.589l8.985,21.158a1,1,0,0,1-.4,1.241l-10.951,6.781a51.353,51.353,0,0,1,.3,12l-.008.153,10.928,6.9a1,1,0,0,1,.389,1.227l-8.794,21.291a1,1,0,0,1-1.106.6l-12.87-2.385c-.939.918-1.888,1.893-2.809,2.838a73.591,73.591,0,0,1-6.072,5.789l2.536,12.405a1,1,0,0,1-.589,1.121l-21.157,8.986a1,1,0,0,1-1.23-.376l-6.78-10.469a51.687,51.687,0,0,1-12.2-.14l-6.854,10.86A1,1,0,0,1,59.405,138.22ZM39.243,127.812l19.765,8.163,6.76-10.71a1.006,1.006,0,0,1,1.018-.452c4.525.792,8.437.51,12.967.184a.993.993,0,0,1,.913.453l6.645,10.26,19.631-8.338-2.495-12.206a1,1,0,0,1,.367-.99,66.258,66.258,0,0,0,6.355-5.992c1.051-1.081,2.14-2.2,3.22-3.241a1,1,0,0,1,.877-.263l12.581,2.331,8.163-19.764L125.3,80.485a1,1,0,0,1-.464-.9l.04-.74c.23-4.306.429-8.025-.4-12.185a1,1,0,0,1,.454-1.045l10.8-6.69-8.329-19.615-12.2,2.5a1,1,0,0,1-.99-.367,66.149,66.149,0,0,0-5.976-6.336c-1.087-1.06-2.211-2.155-3.259-3.243a1,1,0,0,1-.263-.876l2.332-12.579L87.281,10.244,80.52,20.953a.981.981,0,0,1-.9.465l-1.364-.073a90.061,90.061,0,0,0-11.723-.122.99.99,0,0,1-.911-.453L58.977,10.511,39.346,18.847l2.494,12.2a1,1,0,0,1-.421,1.03,36.448,36.448,0,0,0-6.4,5.932c-1,1.085-2.03,2.207-3.126,3.261a.993.993,0,0,1-.875.264l-12.58-2.33L10.278,58.972l10.711,6.761a1,1,0,0,1,.451,1.018,52.6,52.6,0,0,0-.184,12.968,1,1,0,0,1-.453.911L10.544,87.276l8.337,19.631,12.206-2.494a1,1,0,0,1,1.031.423,36.46,36.46,0,0,0,5.93,6.4c1.086,1,2.208,2.031,3.262,3.125a1,1,0,0,1,.264.876Z" transform="translate(-8.032 -7.998)" fill="#532f82"/><circle cx="65.112" cy="65.112" r="47.066" fill="#c1aecc"/><path d="M73.143,121.176A48.066,48.066,0,1,1,121.21,73.11,48.12,48.12,0,0,1,73.143,121.176Zm0-94.132A46.066,46.066,0,1,0,119.21,73.11,46.118,46.118,0,0,0,73.143,27.044Z" transform="translate(-8.032 -7.998)" fill="#542f81"/><path d="M94.1,64.7h-4.67c0-2.96-.01-5.92,0-8.87a20.377,20.377,0,0,0-.51-4.67,16.79,16.79,0,0,0-2.37-5.63,17.037,17.037,0,0,0-13.56-7.77,16.7,16.7,0,0,0-4.62.49,16.148,16.148,0,0,0-5.74,2.6,17.313,17.313,0,0,0-5.74,6.93,14.884,14.884,0,0,0-1.53,5.82c-.12,3.7-.09,7.4-.12,11.1h-3.05a2.68,2.68,0,0,0-2.68,2.68v33.95a2.68,2.68,0,0,0,2.68,2.68H94.1a2.678,2.678,0,0,0,2.67-2.68V67.38A2.678,2.678,0,0,0,94.1,64.7Zm-8.88,0H59.441c-.01-1.66,0-3.32,0-4.98h.01c0-1.74-.02-3.49,0-5.23a12.04,12.04,0,0,1,1.48-5.45,12.765,12.765,0,0,1,5.97-5.78,10.608,10.608,0,0,1,4.63-1.19,25.189,25.189,0,0,1,3.36.24,10.264,10.264,0,0,1,3.76,1.4,12.9,12.9,0,0,1,5.03,5.22,11.8,11.8,0,0,1,1.52,5.33C85.271,57.74,85.241,61.21,85.221,64.7Z" transform="translate(-8.032 -7.998)" fill="#ebe0ef"/><path d="M94.1,63.7h-3.67V55.83a21.714,21.714,0,0,0-.53-4.88,17.829,17.829,0,0,0-2.52-5.97,18.025,18.025,0,0,0-8.46-6.96,18.33,18.33,0,0,0-5.89-1.26,17.5,17.5,0,0,0-4.89.52,17.13,17.13,0,0,0-6.09,2.75,18.478,18.478,0,0,0-6.07,7.33,15.925,15.925,0,0,0-1.62,6.2c-.09,2.75-.1,5.54-.1,8.24-.01.64-.01,1.27-.01,1.9h-2.06a3.683,3.683,0,0,0-3.68,3.68v33.95a3.683,3.683,0,0,0,3.68,3.68H94.1a3.681,3.681,0,0,0,3.67-3.68V67.38A3.681,3.681,0,0,0,94.1,63.7Zm-37.84-1.89c0-2.69.01-5.46.1-8.18a14.038,14.038,0,0,1,1.43-5.43,16.416,16.416,0,0,1,5.42-6.54,16.3,16.3,0,0,1,9.73-2.9,16.228,16.228,0,0,1,5.23,1.12,16.008,16.008,0,0,1,7.54,6.2,15.843,15.843,0,0,1,2.24,5.3,19.606,19.606,0,0,1,.48,4.44V63.7h-2.2c.01-3.11.03-6.31-.03-9.46a12.732,12.732,0,0,0-1.63-5.78,13.974,13.974,0,0,0-5.41-5.61,11.328,11.328,0,0,0-4.14-1.53,26.063,26.063,0,0,0-3.49-.25h-.04a11.684,11.684,0,0,0-5.02,1.28,13.833,13.833,0,0,0-6.43,6.22,13.193,13.193,0,0,0-1.59,5.91c-.02,1.21-.01,2.43-.01,3.65l.01,1.44a.757.757,0,0,0-.01.15v1.55c-.01.8-.01,1.61-.01,2.43h-2.18C56.251,63.07,56.251,62.44,56.261,61.81Zm4.17,1.89c0-.81,0-1.62.01-2.43v-1.4c0-.05.01-.1.01-.15l-.01-1.6c0-1.2-.01-2.41.01-3.61a11.212,11.212,0,0,1,1.37-5.01,11.779,11.779,0,0,1,5.51-5.34,9.725,9.725,0,0,1,4.16-1.09h.03a23.837,23.837,0,0,1,3.23.23,9.293,9.293,0,0,1,3.4,1.27A12.069,12.069,0,0,1,82.8,49.4a10.682,10.682,0,0,1,1.4,4.88c.06,3.13.04,6.32.03,9.42Zm35.34,37.63a1.675,1.675,0,0,1-1.67,1.68H52.191a1.684,1.684,0,0,1-1.68-1.68V67.38a1.684,1.684,0,0,1,1.68-1.68H94.1a1.675,1.675,0,0,1,1.67,1.68Z" transform="translate(-8.032 -7.998)" fill="#532f82"/><path d="M67.837,98.377c-.637.013-.774-.221-.813-.84-.138-2.183.592-4.19,1.114-6.239.441-1.734.882-3.469,1.389-5.184a2.09,2.09,0,0,0-.74-2.453,5.028,5.028,0,0,1-1.721-3.873,6.594,6.594,0,0,1,3.657-6.258c2.652-1.521,5.65-.613,7.629,2.119a6.508,6.508,0,0,1,.291,7.169,3.678,3.678,0,0,1-.831.925,2.083,2.083,0,0,0-.651,2.491c.788,2.942,1.613,5.875,2.309,8.84a11.206,11.206,0,0,1,.06,2.915c0,.152-.372.413-.575.416-1.907.033-3.814.02-5.721.02C73.234,98.4,69.635,98.339,67.837,98.377Z" transform="translate(-8.032 -7.998)" fill="#d1bfda"/><path d="M75.753,99.428l-1.26,0H73.234a.987.987,0,0,1-.122-.008c-.408-.021-3.6-.078-5.254-.04-.008.014-.041,0-.063,0-1.1,0-1.7-.6-1.769-1.777a16.134,16.134,0,0,1,.828-5.379c.108-.39.215-.779.315-1.169.445-1.752.892-3.507,1.4-5.221a1.115,1.115,0,0,0-.419-1.4,5.967,5.967,0,0,1-2.081-4.606,7.6,7.6,0,0,1,4.158-7.161c3.04-1.748,6.632-.782,8.936,2.4a7.477,7.477,0,0,1,.319,8.3,4.608,4.608,0,0,1-1.069,1.178c-.315.237-.537.493-.285,1.433l.531,1.967c.61,2.254,1.241,4.584,1.786,6.9a9.116,9.116,0,0,1,.113,2.6c-.011.193-.021.385-.028.575a1.648,1.648,0,0,1-1.56,1.381C77.9,99.423,76.826,99.428,75.753,99.428Zm-7.916-1.051h0Zm10.694-.429v0Zm-7.936-.6a22.172,22.172,0,0,1,2.639.1v-.018H74.5c1.354,0,2.708,0,4.06-.015,0-.023,0-.046,0-.069A7.594,7.594,0,0,0,78.5,95.3c-.537-2.285-1.163-4.6-1.77-6.837l-.532-1.973a3.114,3.114,0,0,1,1.017-3.55,2.653,2.653,0,0,0,.594-.671,5.509,5.509,0,0,0-.263-6.036c-1.726-2.381-4.149-3.086-6.322-1.838a5.576,5.576,0,0,0-3.155,5.354,4.013,4.013,0,0,0,1.358,3.139A3.091,3.091,0,0,1,70.486,86.4c-.5,1.678-.939,3.415-1.366,5.093-.116.458-.227.86-.337,1.261a14.69,14.69,0,0,0-.767,4.622C69.053,97.352,69.9,97.343,70.6,97.343Zm8.343.062h0Z" transform="translate(-8.032 -7.998)" fill="#542f81"/></svg>