<svg id="uuid-d4c01c0d-efa4-4b63-ab10-866f0e50cda2" xmlns="http://www.w3.org/2000/svg" width="150" height="150" viewBox="0 0 209.667 72.389"><path id="uuid-0786a0e4-9691-4c07-b6b2-134ef5335453" d="m31.301,32.874c-.097-.3-.361-.516-.675-.552l-9.271-1.307c-.337-.046-.631-.253-.787-.555l-4.147-8.15c-.217-.414-.729-.574-1.144-.356-.152.08-.277.204-.356.356l-4.146,8.15c-.156.302-.45.51-.787.555l-9.269,1.307c-.314.036-.578.252-.675.552-.103.294-.02.622.212.831l6.709,6.344c.246.23.359.569.3.9l-1.583,8.951c-.058.307.073.619.332.793.258.186.6.21.881.061l8.292-4.23c.306-.155.667-.155.973,0l8.292,4.23c.281.148.623.125.881-.061.259-.175.389-.486.332-.793l-1.584-8.954c-.058-.331.055-.67.3-.9l6.709-6.344c.232-.209.315-.537.212-.831m41.094.003c-.097-.3-.361-.516-.675-.552l-9.271-1.307c-.337-.046-.631-.253-.787-.555l-4.147-8.15c-.217-.414-.729-.574-1.144-.356-.152.08-.277.204-.356.356l-4.145,8.15c-.156.302-.45.51-.787.555l-9.271,1.307c-.314.034-.579.251-.675.552-.103.294-.02.622.212.831l6.709,6.344c.246.23.359.569.3.9l-1.583,8.951c-.058.307.073.619.332.793.258.186.6.21.881.061l8.292-4.23c.306-.155.667-.155.973,0l8.292,4.23c.281.148.623.125.881-.061.259-.175.389-.486.332-.793l-1.584-8.959c-.058-.331.055-.67.3-.9l6.709-6.344c.232-.209.316-.537.212-.831m41.094.008c-.097-.3-.361-.516-.675-.552l-9.271-1.307c-.337-.046-.631-.253-.787-.555l-4.147-8.15c-.217-.414-.729-.574-1.144-.356-.152.08-.277.204-.356.356l-4.146,8.15c-.156.302-.45.51-.787.555l-9.271,1.307c-.314.036-.578.252-.675.552-.104.294-.02.622.212.831l6.709,6.344c.246.23.359.569.3.9l-1.582,8.951c-.058.307.073.619.332.793.258.186.6.21.881.061l8.292-4.23c.306-.155.667-.155.973,0l8.292,4.23c.281.148.623.125.881-.061.259-.175.389-.486.332-.793l-1.584-8.959c-.058-.331.055-.67.3-.9l6.709-6.344c.232-.209.316-.537.212-.831m41.094.008c-.097-.3-.361-.516-.675-.552l-9.271-1.307c-.337-.046-.631-.253-.787-.555l-4.15-8.15c-.217-.414-.729-.574-1.144-.356-.152.08-.277.204-.356.356l-4.146,8.15c-.156.302-.45.51-.787.555l-9.267,1.307c-.314.036-.578.252-.675.552-.103.294-.02.622.212.831l6.709,6.344c.246.23.359.569.3.9l-1.583,8.951c-.058.307.073.619.332.793.258.186.6.21.881.061l8.292-4.23c.306-.155.667-.155.973,0l8.292,4.23c.281.148.623.125.881-.061.259-.175.389-.486.332-.793l-1.584-8.959c-.058-.331.055-.67.3-.9l6.709-6.344c.232-.209.316-.537.212-.831m54.286-1.632c-.143-.442-.531-.759-.993-.812l-13.635-1.922c-.495-.067-.927-.372-1.157-.816l-6.1-11.986c-.323-.608-1.078-.838-1.685-.515-.219.117-.398.296-.515.515l-6.1,11.986c-.229.444-.661.749-1.156.816l-13.635,1.922c-.462.053-.85.37-.993.812-.153.433-.03.915.311,1.222l9.868,9.33c.36.338.526.834.441,1.32l-2.33,13.174c-.085.452.107.911.489,1.167.379.274.881.309,1.295.09l12.2-6.22c.449-.229.981-.229,1.43,0l12.2,6.22c.413.219.915.184,1.294-.09.382-.256.574-.715.489-1.167l-2.33-13.174c-.084-.486.082-.982.442-1.32l9.867-9.33c.341-.307.464-.789.311-1.222" fill="#4343f0" stroke-width="0"/><path d="m182.239,53.784v7.308c0,.552.448,1,1,1s1-.448,1-1v-23.182l1.13-1.13h.888l1.131,1.13v15.46c0,.552.448,1,1,1s1-.448,1-1v-5.435h2.018l1.13,1.13v3.876c0,.552.448,1,1,1s1-.448,1-1v-3.29h2.018l1.13,1.13v4.309c0,.552.448,1,1,1s1-.448,1-1v-3.72h2.019l1.13,1.13v12.562l-3.806,5.327h-16.232l-3.704-3.705v-12.9l1.13-1.13h.888l1.13,1.13Z" fill="#fff" stroke-width="0"/><path d="m185.885,8.481c-.552,0-1-.448-1-1V1c0-.552.448-1,1-1s1,.448,1,1v6.481c0,.552-.448,1-1,1Zm18.199,10.319c-.265,0-.52-.105-.707-.293-.39-.391-.39-1.023,0-1.414l4.583-4.583c.391-.39,1.023-.39,1.414,0,.39.39.39,1.024,0,1.414l-4.583,4.583c-.187.188-.442.293-.707.293Zm-35.18,0c-.265,0-.52-.105-.707-.293l-4.583-4.583c-.39-.39-.39-1.024,0-1.414.39-.39,1.024-.39,1.414,0l4.583,4.583c.39.391.39,1.024,0,1.414-.187.187-.442.293-.707.293Zm30.638,53.589h-17.161c-.265,0-.52-.105-.707-.293l-4.29-4.29c-.188-.187-.293-.442-.293-.707v-13.73c0-.265.105-.52.293-.707l1.716-1.716c.188-.188.442-.293.707-.293h1.716c.265,0,.52.105.707.293l.009.009v-13.455c0-.265.105-.52.293-.707l1.716-1.716c.188-.188.442-.293.707-.293h1.716c.265,0,.52.105.707.293l1.717,1.716c.188.187.293.442.293.707v8.439h2.432c.265,0,.52.105.707.293l1.423,1.423h3.018c.265,0,.52.105.707.293l1.423,1.423h3.019c.265,0,.52.105.707.293l1.716,1.716c.188.187.293.442.293.707v13.3c0,.208-.065.411-.186.581l-4.291,6.007c-.189.261-.492.415-.814.414Zm-16.747-2h16.232l3.806-5.327v-12.562l-1.13-1.13h-2.019v3.72c0,.552-.448,1-1,1s-1-.448-1-1v-4.309l-1.13-1.13h-2.018v3.29c0,.552-.448,1-1,1s-1-.448-1-1v-3.876l-1.13-1.13h-2.018v5.435c0,.552-.448,1-1,1s-1-.448-1-1v-15.46l-1.131-1.13h-.888l-1.13,1.13v23.182c0,.552-.448,1-1,1s-1-.448-1-1v-7.308l-1.13-1.13h-.888l-1.13,1.13v12.9l3.704,3.705Z" stroke-width="0"/><rect x="0" width="209.666" height="72.389" fill="none" stroke-width="0"/></svg>