<svg xmlns="http://www.w3.org/2000/svg" width="144" height="144" viewBox="0 0 144 144"><rect x="45.89" y="81.06" width="52.35" height=".01"/><path d="m100,91.4h-56c-.28,0-.5-.22-.5-.5s.22-.5.5-.5h56c.28,0,.5.22.5.5s-.22.5-.5.5Z" fill="#807d7d"/><path d="m86,100.73h-28c-.28,0-.5-.22-.5-.5s.22-.5.5-.5h28c.28,0,.5.22.5.5s-.22.5-.5.5Z" fill="#807d7d"/><path d="m72.06,53.6c-.28,0-.5-.22-.5-.5v-9.33c0-.28.22-.5.5-.5s.5.22.5.5v9.33c0,.28-.22.5-.5.5Z" fill="#807d7d"/><line x1="94.93" y1="49.9" x2="90.26" y2="57.98" fill="#e8f0fb" class="sgmaincolor"/><path d="m90.26,58.48c-.08,0-.17-.02-.25-.07-.24-.14-.32-.44-.18-.68l4.67-8.08c.14-.24.44-.32.68-.18.24.14.32.44.18.68l-4.67,8.08c-.09.16-.26.25-.43.25Z" fill="#807d7d"/><line x1="111.67" y1="66.64" x2="103.59" y2="71.3" fill="#e8f0fb" class="sgmaincolor"/><path d="m103.59,71.8c-.17,0-.34-.09-.43-.25-.14-.24-.06-.54.18-.68l8.08-4.67c.24-.14.54-.06.68.18.14.24.06.54-.18.68l-8.08,4.67c-.08.05-.17.07-.25.07Z" fill="#807d7d"/><line x1="32.11" y1="66.98" x2="40.2" y2="71.65" fill="#e8f0fb" class="sgmaincolor"/><path d="m40.2,72.15c-.08,0-.17-.02-.25-.07l-8.08-4.67c-.24-.14-.32-.44-.18-.68.14-.24.44-.32.68-.18l8.08,4.67c.24.14.32.44.18.68-.09.16-.26.25-.43.25Z" fill="#807d7d"/><line x1="48.73" y1="50.02" x2="53.4" y2="58.11" fill="#e8f0fb" class="sgmaincolor"/><path d="m53.4,58.61c-.17,0-.34-.09-.43-.25l-4.67-8.08c-.14-.24-.06-.54.18-.68.24-.14.54-.06.68.18l4.67,8.08c.14.24.06.54-.18.68-.08.05-.17.07-.25.07Z" fill="#807d7d"/><path d="m142,81.06h-42.73c-3.65-11.83-14.79-20.06-27.21-20.06s-23.55,8.23-27.21,20.06H2c-.28,0-.5.23-.5.5s.22.5.5.5h140c.28,0,.5-.22.5-.5s-.22-.5-.5-.5Zm-43.76.01h-52.35c3.64-11.26,14.29-19.07,26.17-19.07s22.54,7.81,26.18,19.06h0Z" fill="#807d7d"/><path d="m98.24,81.06h0s-52.35.01-52.35.01h0c3.64-11.26,14.29-19.07,26.17-19.07s22.54,7.81,26.18,19.06Z" fill="#e8f0fb" class="sgmaincolor"/><path d="m45.09,82.06s.08.01.12.01h53.71s.08,0,.11-.01h-53.94Z" fill="#807d7d"/></svg>