<svg xmlns="http://www.w3.org/2000/svg" width="64" height="64" viewBox="0 0 96 96"><rect width="96" height="96" fill="#fff" opacity="0"/><path d="M77.508,57.029c-.039,0-.076,0-.115.006V8.2H28.274V51.662H3.935v32.3H51.746V73.075l9.86-.016a15.905,15.905,0,1,0,15.9-16.03Z" class="sgmaincolor"/><path d="M70.28,18.127H34.557a1,1,0,0,1,0-2H70.28a1,1,0,0,1,0,2Z"/><path d="M70.28,26.37H34.557a1,1,0,0,1,0-2H70.28a1,1,0,0,1,0,2Z"/><path d="M70.28,34.614H34.557a1,1,0,0,1,0-2H70.28a1,1,0,0,1,0,2Z"/><path d="M42.1,66.544a4.85,4.85,0,1,1,4.849-4.85A4.855,4.855,0,0,1,42.1,66.544Zm0-7.7a2.85,2.85,0,1,0,2.849,2.849A2.852,2.852,0,0,0,42.1,58.845Z"/><path d="M94.4,72.706c0-.016.009-.029.009-.046s-.013-.049-.015-.076a16.907,16.907,0,0,0-16-16.511V8.2a1,1,0,0,0-1-1H28.274a1,1,0,0,0-1,1V50.662H3.935a1,1,0,0,0-1,1v32.3a1,1,0,0,0,1,1H51.746a1,1,0,0,0,1-1v-9.89l7.911-.014a16.908,16.908,0,0,0,16.46,15.765.935.935,0,0,0,.219.044.979.979,0,0,0,.131-.026l.041,0A16.927,16.927,0,0,0,94.416,72.937C94.416,72.859,94.405,72.784,94.4,72.706ZM50.746,82.964H4.935V70.141L17.848,59.9,32.607,74.658a1,1,0,0,0,1.414-1.414L26.779,66l2.927-2.662L44.447,77.257A1,1,0,0,0,45.82,75.8L30.405,61.25a1,1,0,0,0-1.36-.012l-3.681,3.349-6.732-6.732a1,1,0,0,0-1.329-.076L4.935,67.588V52.662H50.746Zm1-32.3H29.274V9.2h47.12V56.085A16.906,16.906,0,0,0,60.644,72.06l-7.9.014V51.662A1,1,0,0,0,51.746,50.662ZM78.336,87.8V83.535a1,1,0,0,0-2,0v4.25A14.912,14.912,0,0,1,62.657,74.06l4.788.007h0a1,1,0,0,0,0-2l-4.8-.007A14.908,14.908,0,0,1,76.392,58.085v4.223a1,1,0,0,0,2,0V58.073A14.911,14.911,0,0,1,92.351,71.664l-4.178.007a1,1,0,0,0,0,2h0l4.2-.007A14.9,14.9,0,0,1,78.336,87.8Z"/><path d="M73.815,77.706a1,1,0,0,1-.979-1.2l1.022-4.881a1,1,0,0,1,.517-.682L84.817,65.49a1,1,0,0,1,1.3,1.435l-6.7,10.215a1,1,0,0,1-.813.452l-4.767.114Zm1.9-5.213-.666,3.183,2.981-.072,4.3-6.565Z"/></svg>