<svg xmlns="http://www.w3.org/2000/svg" width="64" height="64" viewBox="0 0 96 96"><rect width="96" height="96" fill="#fff" opacity="0"/><path d="M79,16H18l-6,6V65l4,5H79l5-5V22ZM74,60H22V21H74Z" class="sgmaincolor"/><path d="M22,61H74a1,1,0,0,0,1-1V21a1,1,0,0,0-1-1H22a1,1,0,0,0-1,1V60A1,1,0,0,0,22,61Zm1-2V29H73V59ZM73,22v5H23V22Z"/><path d="M85,22a1.006,1.006,0,0,0-.231-.641l-5-6A1,1,0,0,0,79,15H18a1,1,0,0,0-.707.293l-6,6A1,1,0,0,0,11,22V65a.99.99,0,0,0,.073.361.906.906,0,0,0,.061.11.959.959,0,0,0,.085.154l4,5A1,1,0,0,0,16,71l22.693-.01L36.236,80H33a1,1,0,0,0,0,2H62a1,1,0,0,0,0-2H58.758l-2.534-9.016L79,71h0a1,1,0,0,0,.707-.293l5-5a.975.975,0,0,0,.216-.323A.988.988,0,0,0,85,65ZM18.414,17H78.531L83,22.362V64H13V22.414ZM38.309,80l2.458-9.01,13.379-.006L56.68,80ZM78.586,69,54.9,68.983h0L16.48,69l-2.4-3H81.586Z"/><path d="M51.447,37.1a1,1,0,0,0-1.342.448l-6,12a1,1,0,0,0,1.79.894l6-12A1,1,0,0,0,51.447,37.1Z"/><path d="M52.293,40.293a1,1,0,0,0,0,1.414L54.586,44l-2.293,2.293a1,1,0,1,0,1.414,1.414l3-3a1,1,0,0,0,0-1.414l-3-3A1,1,0,0,0,52.293,40.293Z"/><path d="M43.707,40.293a1,1,0,0,0-1.414,0l-3,3a1,1,0,0,0,0,1.414l3,3a1,1,0,0,0,1.414-1.414L41.414,44l2.293-2.293A1,1,0,0,0,43.707,40.293Z"/><path d="M48,32A12,12,0,1,0,60,44,12.013,12.013,0,0,0,48,32Zm0,22A10,10,0,1,1,58,44,10.011,10.011,0,0,1,48,54Z"/><circle cx="26.5" cy="24.5" r="1.5"/><circle cx="30.5" cy="24.5" r="1.5"/><circle cx="34.5" cy="24.5" r="1.5"/></svg>